{"glyphs":{"0":{"ha":958,"x_min":85,"x_max":868,"o":"m 240 42 q 142 175 178 97 q 95 342 106 253 q 97 524 85 432 q 143 701 110 617 q 229 856 176 786 q 352 969 282 925 q 506 1018 422 1013 q 508 1018 507 1018 q 584 1017 542 1021 q 658 981 626 1014 l 658 974 q 613 936 640 939 q 558 938 586 933 q 556 938 557 938 q 531 942 543 940 q 506 942 518 943 q 337 863 410 932 q 221 692 264 793 q 173 505 185 604 q 180 311 161 406 q 250 143 199 217 q 331 74 279 103 q 448 42 382 44 q 582 76 514 39 q 672 158 631 104 q 743 282 714 211 q 785 432 772 353 q 788 590 797 511 q 743 736 779 668 q 701 797 729 763 q 629 840 672 832 q 581 842 603 846 q 538 831 558 838 q 533 829 536 831 q 486 822 510 824 q 439 836 463 819 q 500 908 447 889 q 626 915 553 926 q 693 893 658 911 q 742 864 728 875 q 835 728 804 811 q 867 549 865 646 q 847 358 868 453 q 783 182 825 263 q 685 53 742 101 q 540 -21 622 -1 q 378 -24 458 -40 q 240 42 299 -8 z "},"1":{"ha":833,"x_min":168,"x_max":642,"o":"m 454 -57 q 406 -40 419 -62 q 390 16 392 -18 q 389 81 388 50 q 389 82 389 82 l 389 114 q 399 456 383 288 q 443 760 414 625 q 401 737 421 751 q 361 707 382 722 q 321 675 342 689 q 297 657 311 668 q 294 654 296 656 q 236 618 268 635 q 171 624 204 601 l 168 629 q 192 683 168 664 q 240 717 217 703 q 254 724 247 721 q 267 732 261 728 q 426 862 349 788 q 572 1003 504 936 q 578 1008 574 1004 q 597 1022 586 1017 q 631 1015 608 1028 l 635 1011 q 628 956 642 981 q 599 910 615 932 l 597 908 q 583 890 590 899 q 571 871 576 881 q 508 682 531 790 q 476 449 486 574 q 464 197 467 325 q 460 -50 461 69 l 454 -57 z "},"2":{"ha":972,"x_min":71,"x_max":894,"o":"m 886 -24 q 810 -25 849 -37 q 735 4 771 -12 q 706 17 721 11 q 676 28 692 24 l 675 28 q 569 60 629 43 q 442 83 508 76 q 313 72 376 89 q 270 56 290 67 q 229 31 250 44 q 160 -8 196 8 q 75 -7 124 -25 l 71 1 q 99 67 79 44 q 145 101 118 90 q 201 121 172 113 q 233 131 217 125 q 263 143 249 136 q 378 220 321 171 q 488 332 436 269 q 583 462 540 394 q 656 593 626 529 q 657 597 656 594 q 696 696 675 638 q 711 810 717 754 q 672 897 706 865 q 587 938 638 928 q 480 940 536 949 q 372 909 424 932 q 286 850 321 886 q 244 769 251 814 q 258 683 235 718 q 329 642 282 647 q 351 643 340 640 q 372 650 363 646 q 404 658 388 656 q 439 646 421 660 l 442 642 q 436 597 449 613 q 401 574 424 581 q 354 565 378 567 q 317 565 331 564 q 219 608 254 571 q 174 697 185 644 q 177 802 164 749 q 225 894 190 856 q 317 962 261 933 q 440 1005 374 990 q 569 1015 506 1019 q 685 983 633 1010 q 766 901 738 956 q 788 760 794 846 q 737 576 781 663 q 644 415 693 489 q 574 322 613 365 q 497 236 536 278 q 464 201 481 218 q 432 164 447 183 q 624 124 528 149 q 800 64 719 100 q 808 60 804 63 q 818 57 813 58 q 821 56 819 57 q 869 31 844 47 q 890 -18 894 15 l 886 -24 z "},"3":{"ha":972,"x_min":128,"x_max":836,"o":"m 483 -35 q 360 -30 424 -40 q 242 9 296 -19 q 158 85 189 38 q 136 200 128 132 q 174 283 142 246 q 250 338 206 319 q 338 347 294 357 l 343 339 q 316 284 338 301 q 272 256 294 267 q 233 231 250 244 q 213 186 215 218 q 254 93 207 135 q 376 42 301 51 q 504 45 440 33 q 622 85 568 57 q 712 158 676 114 q 754 257 747 201 q 724 399 764 340 q 615 490 683 458 q 467 526 546 522 q 434 526 451 528 q 397 522 417 525 q 394 522 396 522 q 320 517 358 518 q 252 526 282 515 q 210 569 222 538 l 211 576 q 291 615 244 614 q 383 608 338 615 q 392 608 388 608 q 401 607 397 607 q 433 603 418 604 q 461 603 447 601 q 565 627 513 606 q 653 685 617 649 q 697 767 690 721 q 664 864 704 813 q 570 927 633 906 q 439 940 507 949 q 367 920 401 936 q 308 882 332 904 q 281 838 285 860 q 281 815 278 824 q 286 796 283 806 q 288 794 288 794 q 295 771 293 783 q 285 739 297 758 l 281 736 q 224 750 247 726 q 199 817 200 774 q 227 909 197 869 q 307 974 257 949 q 415 1011 357 1000 q 529 1017 474 1022 q 653 972 601 1008 q 735 884 706 936 q 765 773 764 832 q 735 660 765 714 q 640 568 706 607 q 746 490 701 540 q 813 376 790 439 q 831 250 836 314 q 776 116 824 178 q 652 15 728 54 q 483 -35 576 -25 z "},"4":{"ha":972,"x_min":50,"x_max":961,"o":"m 636 -68 q 594 -57 606 -72 q 581 -17 582 -42 q 582 32 581 8 l 582 33 q 583 49 583 42 q 583 64 583 57 l 583 222 q 435 226 513 235 q 283 206 358 218 q 276 204 279 204 q 161 187 217 194 q 57 182 106 179 l 50 189 q 86 314 53 254 q 154 431 119 374 q 290 642 219 542 q 456 835 361 742 q 528 904 489 868 q 614 968 568 940 q 710 1000 660 996 l 715 997 q 739 884 746 946 q 718 758 732 822 q 717 754 717 756 q 706 712 711 733 q 699 669 701 690 q 677 492 685 581 q 671 318 669 404 q 726 306 693 308 q 793 303 758 303 q 799 303 794 303 q 876 297 839 301 q 938 276 914 293 q 960 222 961 260 l 954 215 q 894 213 928 210 q 825 222 861 217 q 814 224 821 222 q 740 232 776 229 q 674 229 704 235 q 658 172 658 207 q 660 99 657 138 q 660 89 660 92 q 660 81 660 86 q 661 -1 663 39 q 640 -65 660 -42 l 636 -68 m 165 271 q 289 287 226 281 q 415 299 351 293 q 583 315 499 304 q 590 369 586 342 q 596 422 593 396 q 606 519 601 471 q 617 615 611 568 l 629 694 q 645 796 639 747 q 647 890 651 844 q 165 271 311 636 z "},"5":{"ha":972,"x_min":144,"x_max":860,"o":"m 433 -62 q 335 -45 385 -62 q 251 10 285 -28 q 217 110 217 49 q 242 200 217 160 q 305 260 267 240 q 385 269 343 281 l 390 263 q 374 217 389 233 q 342 188 358 200 q 308 158 322 174 q 293 110 293 142 q 322 41 294 63 q 392 18 350 19 q 481 27 435 17 q 567 54 528 38 q 628 86 607 71 q 706 169 675 121 q 744 269 738 218 q 733 424 757 360 q 663 524 710 488 q 557 572 617 561 q 435 565 497 582 q 319 506 372 549 q 301 488 310 497 q 282 468 292 479 q 241 426 264 446 q 181 397 218 406 l 174 400 q 150 509 144 447 q 167 631 156 571 q 173 660 169 646 q 178 689 176 675 q 183 717 181 703 q 186 746 185 732 q 206 864 194 807 q 242 964 217 921 l 249 967 q 290 961 268 965 q 338 953 313 957 l 340 953 q 468 933 400 943 q 601 924 536 924 q 718 940 667 924 q 796 996 769 956 q 823 1011 803 1011 q 857 999 843 1011 l 860 992 q 815 903 853 935 q 719 859 776 871 q 594 848 661 847 q 463 856 528 849 q 344 872 397 864 q 319 876 331 874 q 296 879 307 878 q 256 726 268 811 q 238 551 244 642 q 276 573 258 563 q 311 593 294 583 q 403 641 357 621 q 525 660 449 661 q 663 625 604 658 q 760 535 722 592 q 814 408 799 479 q 821 261 829 338 q 777 131 813 190 q 687 29 742 72 q 566 -38 632 -14 q 433 -62 500 -62 z "},"6":{"ha":972,"x_min":106,"x_max":878,"o":"m 396 -60 q 284 -13 333 -51 q 199 81 235 25 q 143 201 164 138 q 118 326 122 265 q 158 635 106 497 q 322 864 211 772 q 589 990 432 956 q 621 989 600 993 q 656 975 642 985 q 666 951 671 965 q 621 919 661 936 q 581 907 600 913 q 544 897 563 901 q 508 888 526 893 q 474 875 490 883 q 406 838 431 854 q 365 803 382 821 q 329 764 349 786 q 267 670 299 729 q 215 538 236 611 q 194 383 194 464 q 206 280 194 339 q 243 164 218 221 q 310 66 268 107 q 410 15 351 25 q 540 22 479 4 q 644 69 600 39 q 708 121 689 99 q 760 213 739 154 q 790 337 782 271 q 785 464 797 403 q 739 567 774 525 q 639 614 704 608 q 520 595 574 621 q 434 520 467 569 q 399 406 401 471 q 402 376 399 392 q 410 346 406 361 q 410 343 410 344 q 420 288 418 315 q 400 251 422 261 l 397 251 q 352 271 368 250 q 331 319 336 292 q 322 364 325 347 q 335 488 315 428 q 396 595 354 547 q 499 669 438 643 q 635 690 560 694 q 806 604 743 683 q 875 389 868 525 q 860 250 878 317 q 810 131 842 183 q 742 43 779 78 q 599 -45 682 -12 q 396 -60 515 -78 z "},"7":{"ha":972,"x_min":61,"x_max":961,"o":"m 458 -68 q 427 -57 438 -72 q 413 -17 417 -42 q 410 33 410 8 q 411 75 410 58 q 411 81 411 79 q 437 331 414 213 q 496 526 460 449 q 606 690 540 621 q 744 822 672 758 q 824 893 785 856 q 601 897 706 915 q 409 832 496 879 q 257 717 322 785 q 151 571 192 649 q 149 563 150 567 q 146 553 147 558 q 129 515 140 535 q 89 499 118 496 l 83 501 q 68 581 61 532 q 88 678 75 631 l 88 681 q 94 705 90 693 q 99 728 97 717 q 104 751 101 739 q 108 774 107 763 q 128 872 118 824 q 150 960 139 919 q 158 979 149 975 q 185 983 167 983 l 197 983 l 204 979 q 213 915 218 949 q 200 849 208 882 q 190 807 194 828 q 186 765 186 786 q 221 785 206 772 q 250 811 236 797 q 264 823 257 817 q 278 835 271 829 q 650 978 442 963 q 866 974 786 986 q 951 926 946 963 q 813 782 961 878 q 799 773 804 776 q 790 767 793 769 q 573 497 647 649 q 488 143 499 344 q 488 127 488 138 q 489 101 488 117 q 485 -24 492 17 q 458 -68 479 -64 z "},"8":{"ha":972,"x_min":121,"x_max":879,"o":"m 867 176 q 809 60 856 108 q 694 -18 763 11 q 549 -56 626 -47 q 395 -54 471 -65 q 257 -10 319 -43 q 158 76 194 22 q 122 206 121 131 q 154 325 124 278 q 231 406 185 372 q 326 468 278 439 q 362 490 344 479 q 394 511 379 500 q 355 536 376 525 q 310 558 333 547 q 226 604 267 579 q 161 670 185 629 q 144 779 138 711 q 194 890 151 842 q 301 967 238 938 q 435 1002 364 996 q 570 988 506 1008 q 679 918 635 968 q 696 892 685 913 q 712 849 707 872 q 705 806 717 825 q 651 782 693 788 l 644 785 q 631 810 633 797 q 628 832 628 822 q 622 860 628 847 q 552 910 604 890 q 440 929 500 931 q 329 901 382 929 q 246 831 276 874 q 221 740 215 788 q 336 625 229 678 q 389 601 358 614 q 451 578 419 588 q 508 569 483 568 q 577 592 539 571 q 651 648 615 614 q 712 722 688 682 q 740 801 736 763 q 740 822 742 811 q 738 843 739 832 q 736 847 736 846 q 731 896 731 871 q 754 942 732 921 l 760 943 q 805 912 793 938 q 817 856 817 886 q 817 801 818 825 q 817 794 817 797 q 782 684 811 731 q 713 603 753 638 q 633 540 672 569 l 692 499 l 693 499 q 766 444 731 472 q 828 380 801 417 q 867 294 856 343 q 867 176 879 244 m 199 200 q 233 101 199 142 q 324 40 268 61 q 447 15 381 18 q 577 26 513 11 q 694 72 642 40 q 773 153 746 104 q 790 267 800 201 q 758 340 785 301 q 690 413 731 379 q 603 465 650 446 q 514 476 557 483 l 510 476 q 506 477 507 478 q 506 476 506 476 q 276 347 356 417 q 199 200 197 276 z "},"9":{"ha":972,"x_min":114,"x_max":850,"o":"m 626 -86 l 619 -85 q 592 -37 593 -69 q 593 28 590 -4 q 594 43 594 39 q 601 85 597 64 q 610 128 606 107 q 621 181 617 157 q 621 219 625 206 q 585 218 599 222 q 558 208 571 214 q 539 201 549 204 q 517 194 529 197 q 328 215 407 181 q 201 317 250 250 q 133 469 153 385 q 124 640 114 554 q 161 766 132 706 q 234 876 190 826 q 330 958 278 926 q 438 997 382 990 q 615 969 535 1008 q 725 857 694 931 q 741 766 743 814 q 721 676 739 718 q 673 608 703 635 q 606 581 643 582 l 599 586 q 601 640 592 618 q 625 682 611 663 q 626 685 625 683 q 653 733 642 707 q 657 801 665 758 q 612 879 649 849 q 522 919 575 910 q 413 910 469 929 q 299 835 346 888 q 228 713 253 782 q 201 571 203 644 q 224 433 200 497 q 299 324 247 368 q 429 271 350 281 q 547 280 500 263 q 624 333 594 297 q 670 416 653 368 q 701 515 688 464 q 712 556 707 535 q 722 594 717 576 q 741 660 732 624 q 767 731 750 697 q 817 781 783 764 l 825 779 q 849 725 847 757 q 841 658 850 693 q 819 589 832 622 q 807 551 814 568 q 788 490 797 519 q 767 431 778 460 q 719 284 742 358 q 685 115 696 210 q 683 88 683 104 q 682 57 682 72 q 678 -1 682 29 q 664 -53 675 -31 q 626 -86 653 -76 z "},"あ":{"ha":1389,"x_min":217,"x_max":1165,"o":"m 774 -43 q 724 -18 756 -36 q 803 11 760 6 q 878 61 810 18 q 939 133 925 92 q 986 154 967 139 l 986 179 q 1008 190 1001 178 q 1019 214 1015 201 q 1022 222 1021 219 q 1032 210 1028 224 q 1036 201 1033 201 q 1042 238 1038 203 q 1056 267 1044 257 q 1036 271 1046 265 q 1043 278 1043 274 q 1035 285 1043 283 q 1046 335 1046 311 q 999 434 1046 393 q 883 475 951 475 q 808 389 839 447 q 779 272 778 331 q 811 176 782 213 q 776 99 813 128 q 692 69 739 69 q 607 117 628 69 q 556 99 582 100 q 528 94 540 97 q 506 88 515 90 q 461 58 496 78 q 428 54 444 57 q 394 49 411 51 q 339 24 351 43 l 268 74 q 217 150 225 104 q 331 350 240 268 q 408 407 360 376 q 522 474 456 438 q 518 490 518 481 q 536 542 518 504 q 525 578 525 556 q 533 635 525 596 q 541 671 539 656 q 543 696 543 686 q 538 726 543 715 q 490 703 518 729 q 449 678 464 681 q 406 681 429 676 q 357 700 382 686 l 278 746 q 278 753 279 749 q 275 761 278 757 q 274 767 274 765 q 276 775 274 769 q 346 800 304 782 q 443 844 388 818 q 574 897 544 896 l 601 989 q 636 1069 618 1042 q 700 1029 681 1069 q 715 938 714 1000 q 808 946 764 946 q 966 917 900 946 q 1053 832 1032 888 q 800 626 1000 669 q 749 635 783 635 q 654 581 661 635 q 646 576 654 578 q 633 567 632 572 q 640 565 633 558 q 649 569 646 568 q 651 571 651 571 q 654 563 657 571 q 633 533 657 546 q 670 534 647 532 q 725 539 693 536 q 829 543 792 546 q 899 537 869 540 q 946 529 928 533 q 1035 481 1007 514 l 1054 481 q 1114 422 1083 432 q 1165 256 1165 344 q 1133 164 1165 199 q 1135 160 1133 160 q 1140 163 1136 160 q 1147 165 1144 165 q 1153 164 1151 165 l 1089 89 q 1013 38 1053 44 q 947 7 990 17 q 900 -12 904 -3 q 875 -19 893 -12 q 846 -26 857 -26 q 828 -22 836 -26 q 835 -33 821 -29 q 806 -33 829 -35 q 774 -43 788 -33 m 674 654 q 936 861 871 731 q 917 863 926 863 q 899 864 908 864 q 794 843 847 864 l 701 806 q 682 718 675 764 q 674 654 668 697 m 374 150 q 471 175 424 150 q 547 244 542 211 q 547 271 550 254 q 539 310 544 288 q 518 365 526 358 l 410 279 q 339 156 354 225 q 374 150 351 150 m 689 147 q 744 201 721 160 q 767 283 767 242 q 763 313 767 300 q 725 269 746 294 q 678 213 704 244 q 669 186 669 200 q 689 147 669 167 m 631 322 q 733 464 715 385 q 640 425 667 444 q 626 397 626 415 q 635 367 626 386 q 621 361 622 371 q 631 322 636 356 z "},"ぁ":{"ha":1389,"x_min":217,"x_max":1165,"o":"m 774 -43 q 724 -18 756 -36 q 803 11 760 6 q 878 61 810 18 q 939 133 925 92 q 986 154 967 139 l 986 179 q 1008 190 1001 178 q 1019 214 1015 201 q 1022 222 1021 219 q 1032 210 1028 224 q 1036 201 1033 201 q 1042 238 1038 203 q 1056 267 1044 257 q 1036 271 1046 265 q 1043 278 1043 274 q 1035 285 1043 283 q 1046 335 1046 311 q 999 434 1046 393 q 883 475 951 475 q 808 389 839 447 q 779 272 778 331 q 811 176 782 213 q 776 99 813 128 q 692 69 739 69 q 607 117 628 69 q 556 99 582 100 q 528 94 540 97 q 506 88 515 90 q 461 58 496 78 q 428 54 444 57 q 394 49 411 51 q 339 24 351 43 l 268 74 q 217 150 225 104 q 331 350 240 268 q 408 407 360 376 q 522 474 456 438 q 518 490 518 481 q 536 542 518 504 q 525 578 525 556 q 533 635 525 596 q 541 671 539 656 q 543 696 543 686 q 538 726 543 715 q 490 703 518 729 q 449 678 464 681 q 406 681 429 676 q 357 700 382 686 l 278 746 q 278 753 279 749 q 275 761 278 757 q 274 767 274 765 q 276 775 274 769 q 346 800 304 782 q 443 844 388 818 q 574 897 544 896 l 601 989 q 636 1069 618 1042 q 700 1029 681 1069 q 715 938 714 1000 q 808 946 764 946 q 966 917 900 946 q 1053 832 1032 888 q 800 626 1000 669 q 749 635 783 635 q 654 581 661 635 q 646 576 654 578 q 633 567 632 572 q 640 565 633 558 q 649 569 646 568 q 651 571 651 571 q 654 563 657 571 q 633 533 657 546 q 670 534 647 532 q 725 539 693 536 q 829 543 792 546 q 899 537 869 540 q 946 529 928 533 q 1035 481 1007 514 l 1054 481 q 1114 422 1083 432 q 1165 256 1165 344 q 1133 164 1165 199 q 1135 160 1133 160 q 1140 163 1136 160 q 1147 165 1144 165 q 1153 164 1151 165 l 1089 89 q 1013 38 1053 44 q 947 7 990 17 q 900 -12 904 -3 q 875 -19 893 -12 q 846 -26 857 -26 q 828 -22 836 -26 q 835 -33 821 -29 q 806 -33 829 -35 q 774 -43 788 -33 m 674 654 q 936 861 871 731 q 917 863 926 863 q 899 864 908 864 q 794 843 847 864 l 701 806 q 682 718 675 764 q 674 654 668 697 m 374 150 q 471 175 424 150 q 547 244 542 211 q 547 271 550 254 q 539 310 544 288 q 518 365 526 358 l 410 279 q 339 156 354 225 q 374 150 351 150 m 689 147 q 744 201 721 160 q 767 283 767 242 q 763 313 767 300 q 725 269 746 294 q 678 213 704 244 q 669 186 669 200 q 689 147 669 167 m 631 322 q 733 464 715 385 q 640 425 667 444 q 626 397 626 415 q 635 367 626 386 q 621 361 622 371 q 631 322 636 356 z "},"い":{"ha":1389,"x_min":131,"x_max":1290,"o":"m 1021 81 q 904 110 974 108 q 944 149 932 147 q 1117 303 1028 193 q 1103 306 1108 306 q 1084 303 1097 306 q 1049 294 1071 300 q 1008 286 1026 289 q 975 283 990 283 l 924 321 q 886 372 892 344 q 927 468 904 408 q 979 608 950 528 q 1011 813 1011 733 q 993 914 1011 876 q 1000 927 999 918 q 1008 938 1001 936 q 1063 913 1040 924 q 1096 894 1085 901 q 1150 825 1139 865 q 1154 792 1154 808 q 1151 756 1154 775 q 1139 713 1147 736 l 1111 636 q 1108 606 1110 624 q 1101 567 1106 589 q 1072 518 1099 557 q 1060 468 1056 492 q 1051 463 1057 465 q 1042 452 1046 457 q 1040 439 1038 447 q 1036 421 1031 433 q 1025 417 1031 415 q 1013 421 1015 421 q 1028 411 1011 411 q 999 392 1017 407 q 1022 392 1007 392 q 1056 393 1036 392 q 1091 394 1075 394 q 1117 394 1107 394 q 1290 307 1276 394 q 1186 167 1263 226 q 1036 96 1115 111 q 1029 89 1033 96 q 1021 81 1025 79 m 250 238 q 185 269 211 231 q 176 274 181 271 q 165 279 171 276 q 131 403 131 319 q 151 486 131 460 q 210 444 188 475 q 231 414 221 429 q 250 383 240 399 q 429 571 324 436 q 496 536 468 564 l 542 481 q 646 597 582 518 q 706 669 681 640 q 749 717 732 699 q 715 673 731 694 q 686 631 700 651 q 613 472 621 532 l 618 446 q 613 421 621 435 q 619 383 619 397 q 563 331 619 331 q 472 367 513 331 q 429 454 431 406 q 425 533 432 482 q 356 439 372 511 l 326 313 q 250 238 303 247 z "},"ぃ":{"ha":1389,"x_min":131,"x_max":1290,"o":"m 1021 81 q 904 110 974 108 q 944 149 932 147 q 1117 303 1028 193 q 1103 306 1108 306 q 1084 303 1097 306 q 1049 294 1071 300 q 1008 286 1026 289 q 975 283 990 283 l 924 321 q 886 372 892 344 q 927 468 904 408 q 979 608 950 528 q 1011 813 1011 733 q 993 914 1011 876 q 1000 927 999 918 q 1008 938 1001 936 q 1063 913 1040 924 q 1096 894 1085 901 q 1150 825 1139 865 q 1154 792 1154 808 q 1151 756 1154 775 q 1139 713 1147 736 l 1111 636 q 1108 606 1110 624 q 1101 567 1106 589 q 1072 518 1099 557 q 1060 468 1056 492 q 1051 463 1057 465 q 1042 452 1046 457 q 1040 439 1038 447 q 1036 421 1031 433 q 1025 417 1031 415 q 1013 421 1015 421 q 1028 411 1011 411 q 999 392 1017 407 q 1022 392 1007 392 q 1056 393 1036 392 q 1091 394 1075 394 q 1117 394 1107 394 q 1290 307 1276 394 q 1186 167 1263 226 q 1036 96 1115 111 q 1029 89 1033 96 q 1021 81 1025 79 m 250 238 q 185 269 211 231 q 176 274 181 271 q 165 279 171 276 q 131 403 131 319 q 151 486 131 460 q 210 444 188 475 q 231 414 221 429 q 250 383 240 399 q 429 571 324 436 q 496 536 468 564 l 542 481 q 646 597 582 518 q 706 669 681 640 q 749 717 732 699 q 715 673 731 694 q 686 631 700 651 q 613 472 621 532 l 618 446 q 613 421 621 435 q 619 383 619 397 q 563 331 619 331 q 472 367 513 331 q 429 454 431 406 q 425 533 432 482 q 356 439 372 511 l 326 313 q 250 238 303 247 z "},"う":{"ha":1389,"x_min":151,"x_max":1210,"o":"m 761 -104 q 711 -97 747 -108 q 682 -85 694 -92 q 660 -74 669 -79 q 590 4 636 -57 q 514 88 543 65 q 480 103 500 93 q 433 129 460 114 q 425 181 425 157 q 451 249 425 219 q 529 293 476 278 q 611 315 569 306 q 694 336 653 325 q 694 449 697 372 q 674 439 689 447 q 636 415 660 431 q 602 400 618 404 q 574 397 586 396 q 526 440 543 401 q 514 517 513 474 l 772 644 q 910 718 849 682 q 1018 785 971 754 q 533 686 774 797 l 443 631 q 389 608 417 614 q 338 603 361 601 q 226 653 282 610 q 151 738 178 693 q 204 732 172 732 q 266 740 231 733 q 346 760 301 746 l 503 810 q 705 857 610 843 q 883 871 800 871 q 976 867 929 871 q 1204 763 1157 851 q 1203 749 1201 756 q 1207 736 1206 742 q 1210 728 1210 729 q 1204 713 1210 719 q 1083 672 1161 694 q 892 624 1006 650 q 901 630 892 629 q 913 635 911 631 q 765 599 817 640 q 871 506 856 564 q 814 439 825 458 q 796 340 790 394 q 843 346 817 346 q 903 338 872 346 q 967 315 935 331 q 1046 226 1046 278 q 992 160 1046 189 q 956 165 982 160 q 911 169 929 169 q 857 160 882 169 q 856 165 856 161 q 869 190 856 172 q 882 217 882 207 q 876 232 882 226 q 807 232 857 243 q 809 161 808 206 q 810 56 810 117 q 761 -104 810 -92 m 574 886 q 572 894 572 889 q 594 929 572 908 q 613 944 604 936 q 629 960 621 953 l 574 1007 q 544 1058 542 1035 q 599 1067 572 1064 q 650 1069 625 1069 q 842 950 818 1069 q 744 928 818 926 q 632 924 651 931 q 574 886 597 915 m 679 61 q 688 132 685 94 q 690 211 690 169 q 618 194 640 201 q 558 164 578 182 q 581 133 567 149 q 613 106 594 118 q 679 61 617 101 z "},"ぅ":{"ha":1389,"x_min":151,"x_max":1210,"o":"m 761 -104 q 711 -97 747 -108 q 682 -85 694 -92 q 660 -74 669 -79 q 590 4 636 -57 q 514 88 543 65 q 480 103 500 93 q 433 129 460 114 q 425 181 425 157 q 451 249 425 219 q 529 293 476 278 q 611 315 569 306 q 694 336 653 325 q 694 449 697 372 q 674 439 689 447 q 636 415 660 431 q 602 400 618 404 q 574 397 586 396 q 526 440 543 401 q 514 517 513 474 l 772 644 q 910 718 849 682 q 1018 785 971 754 q 533 686 774 797 l 443 631 q 389 608 417 614 q 338 603 361 601 q 226 653 282 610 q 151 738 178 693 q 204 732 172 732 q 266 740 231 733 q 346 760 301 746 l 503 810 q 705 857 610 843 q 883 871 800 871 q 976 867 929 871 q 1204 763 1157 851 q 1203 749 1201 756 q 1207 736 1206 742 q 1210 728 1210 729 q 1204 713 1210 719 q 1083 672 1161 694 q 892 624 1006 650 q 901 630 892 629 q 913 635 911 631 q 765 599 817 640 q 871 506 856 564 q 814 439 825 458 q 796 340 790 394 q 843 346 817 346 q 903 338 872 346 q 967 315 935 331 q 1046 226 1046 278 q 992 160 1046 189 q 956 165 982 160 q 911 169 929 169 q 857 160 882 169 q 856 165 856 161 q 869 190 856 172 q 882 217 882 207 q 876 232 882 226 q 807 232 857 243 q 809 161 808 206 q 810 56 810 117 q 761 -104 810 -92 m 574 886 q 572 894 572 889 q 594 929 572 908 q 613 944 604 936 q 629 960 621 953 l 574 1007 q 544 1058 542 1035 q 599 1067 572 1064 q 650 1069 625 1069 q 842 950 818 1069 q 744 928 818 926 q 632 924 651 931 q 574 886 597 915 m 679 61 q 688 132 685 94 q 690 211 690 169 q 618 194 640 201 q 558 164 578 182 q 581 133 567 149 q 613 106 594 118 q 679 61 617 101 z "},"え":{"ha":1389,"x_min":342,"x_max":1040,"o":"m 828 -75 q 824 -60 817 -72 q 700 -64 793 -82 q 644 -17 706 -36 q 883 89 758 0 q 867 94 876 94 q 847 90 858 94 q 833 85 836 85 q 631 140 700 78 q 564 333 563 201 q 485 353 515 335 q 457 401 454 371 q 465 413 458 410 q 483 424 476 414 l 513 476 q 553 510 532 513 q 581 568 560 561 q 590 568 585 569 q 631 644 618 601 q 508 624 571 624 q 342 722 367 624 q 472 734 407 724 q 601 767 536 744 q 687 799 636 778 q 803 851 738 821 q 899 778 899 808 q 874 742 899 760 q 817 678 850 724 q 783 632 797 650 q 761 607 768 614 q 742 603 753 607 q 710 561 728 592 q 681 517 693 529 q 668 511 678 514 q 658 501 658 508 q 660 492 658 496 q 650 492 657 489 q 643 493 646 493 q 639 493 640 493 q 635 488 635 492 q 640 479 640 483 q 626 463 640 474 q 610 449 613 453 q 604 419 622 433 q 688 335 664 397 q 701 278 697 313 q 707 200 706 244 q 843 185 756 204 q 919 165 889 175 q 965 149 950 156 q 1040 56 1032 118 q 997 22 1029 39 q 958 -7 964 7 q 953 -3 956 -7 q 940 3 946 4 l 950 -7 q 881 -35 915 -8 q 828 -75 828 -75 m 686 914 q 714 947 700 932 q 742 971 728 961 q 640 1072 660 1018 q 682 1070 656 1071 q 744 1071 708 1069 q 849 1064 808 1072 q 929 975 924 1047 q 824 951 894 951 q 756 961 781 951 q 728 940 746 951 q 686 914 711 929 z "},"ぇ":{"ha":1389,"x_min":342,"x_max":1040,"o":"m 828 -75 q 824 -60 817 -72 q 700 -64 793 -82 q 644 -17 706 -36 q 883 89 758 0 q 867 94 876 94 q 847 90 858 94 q 833 85 836 85 q 631 140 700 78 q 564 333 563 201 q 485 353 515 335 q 457 401 454 371 q 465 413 458 410 q 483 424 476 414 l 513 476 q 553 510 532 513 q 581 568 560 561 q 590 568 585 569 q 631 644 618 601 q 508 624 571 624 q 342 722 367 624 q 472 734 407 724 q 601 767 536 744 q 687 799 636 778 q 803 851 738 821 q 899 778 899 808 q 874 742 899 760 q 817 678 850 724 q 783 632 797 650 q 761 607 768 614 q 742 603 753 607 q 710 561 728 592 q 681 517 693 529 q 668 511 678 514 q 658 501 658 508 q 660 492 658 496 q 650 492 657 489 q 643 493 646 493 q 639 493 640 493 q 635 488 635 492 q 640 479 640 483 q 626 463 640 474 q 610 449 613 453 q 604 419 622 433 q 688 335 664 397 q 701 278 697 313 q 707 200 706 244 q 843 185 756 204 q 919 165 889 175 q 965 149 950 156 q 1040 56 1032 118 q 997 22 1029 39 q 958 -7 964 7 q 953 -3 956 -7 q 940 3 946 4 l 950 -7 q 881 -35 915 -8 q 828 -75 828 -75 m 686 914 q 714 947 700 932 q 742 971 728 961 q 640 1072 660 1018 q 682 1070 656 1071 q 744 1071 708 1069 q 849 1064 808 1072 q 929 975 924 1047 q 824 951 894 951 q 756 961 781 951 q 728 940 746 951 q 686 914 711 929 z "},"お":{"ha":1389,"x_min":163,"x_max":1213,"o":"m 513 -78 q 454 -50 482 -78 q 413 15 426 -22 q 426 55 421 32 q 431 108 431 78 l 431 199 q 386 160 407 194 q 342 122 365 126 q 276 61 326 74 q 264 78 271 69 q 250 93 257 86 q 235 133 233 115 q 243 156 236 140 q 264 194 250 171 q 284 226 274 210 q 304 260 294 243 q 351 338 319 288 q 426 457 382 388 q 422 522 429 482 l 314 481 q 258 506 279 496 q 231 519 238 517 q 163 571 178 547 q 303 617 226 582 l 431 674 q 434 699 433 681 q 436 747 435 718 q 450 819 436 800 q 443 867 443 843 q 445 901 443 881 q 453 947 447 921 q 461 993 458 975 q 464 1021 464 1011 q 488 1050 475 1028 q 592 918 589 988 q 571 836 592 901 q 553 739 550 775 q 566 728 554 738 q 601 701 578 719 q 643 656 633 679 q 603 615 633 633 q 553 583 561 592 q 539 494 528 536 q 572 524 554 506 q 610 567 589 543 l 682 649 q 698 665 688 656 q 722 688 708 674 q 654 601 714 661 q 596 503 599 547 q 558 439 574 476 q 536 351 542 401 l 519 203 q 535 196 526 197 q 539 175 543 190 q 531 188 533 178 q 539 151 521 174 q 532 94 532 126 q 553 -61 532 46 q 513 -78 535 -78 m 1068 113 q 1014 126 1040 113 l 1006 146 q 981 158 994 150 q 949 175 967 165 l 907 236 q 872 297 885 269 q 858 347 858 324 q 864 372 858 363 q 883 386 871 372 q 1000 288 946 363 q 1108 233 1075 257 q 1179 142 1163 199 q 1158 137 1171 140 q 1126 126 1144 133 q 1068 113 1093 113 m 1006 583 q 1001 588 1001 583 q 1010 603 1001 593 q 997 596 1006 603 q 990 591 994 593 q 982 589 986 589 q 1006 617 975 613 q 1025 658 1007 635 q 1043 701 1043 681 q 954 729 1032 708 q 888 786 901 744 q 983 813 918 813 q 1199 753 1110 811 q 1201 737 1199 746 q 1206 718 1203 728 q 1210 700 1208 708 q 1213 685 1213 692 q 1207 656 1213 668 q 1094 628 1179 633 q 1006 583 1021 621 z "},"ぉ":{"ha":1389,"x_min":163,"x_max":1213,"o":"m 513 -78 q 454 -50 482 -78 q 413 15 426 -22 q 426 55 421 32 q 431 108 431 78 l 431 199 q 386 160 407 194 q 342 122 365 126 q 276 61 326 74 q 264 78 271 69 q 250 93 257 86 q 235 133 233 115 q 243 156 236 140 q 264 194 250 171 q 284 226 274 210 q 304 260 294 243 q 351 338 319 288 q 426 457 382 388 q 422 522 429 482 l 314 481 q 258 506 279 496 q 231 519 238 517 q 163 571 178 547 q 303 617 226 582 l 431 674 q 434 699 433 681 q 436 747 435 718 q 450 819 436 800 q 443 867 443 843 q 445 901 443 881 q 453 947 447 921 q 461 993 458 975 q 464 1021 464 1011 q 488 1050 475 1028 q 592 918 589 988 q 571 836 592 901 q 553 739 550 775 q 566 728 554 738 q 601 701 578 719 q 643 656 633 679 q 603 615 633 633 q 553 583 561 592 q 539 494 528 536 q 572 524 554 506 q 610 567 589 543 l 682 649 q 698 665 688 656 q 722 688 708 674 q 654 601 714 661 q 596 503 599 547 q 558 439 574 476 q 536 351 542 401 l 519 203 q 535 196 526 197 q 539 175 543 190 q 531 188 533 178 q 539 151 521 174 q 532 94 532 126 q 553 -61 532 46 q 513 -78 535 -78 m 1068 113 q 1014 126 1040 113 l 1006 146 q 981 158 994 150 q 949 175 967 165 l 907 236 q 872 297 885 269 q 858 347 858 324 q 864 372 858 363 q 883 386 871 372 q 1000 288 946 363 q 1108 233 1075 257 q 1179 142 1163 199 q 1158 137 1171 140 q 1126 126 1144 133 q 1068 113 1093 113 m 1006 583 q 1001 588 1001 583 q 1010 603 1001 593 q 997 596 1006 603 q 990 591 994 593 q 982 589 986 589 q 1006 617 975 613 q 1025 658 1007 635 q 1043 701 1043 681 q 954 729 1032 708 q 888 786 901 744 q 983 813 918 813 q 1199 753 1110 811 q 1201 737 1199 746 q 1206 718 1203 728 q 1210 700 1208 708 q 1213 685 1213 692 q 1207 656 1213 668 q 1094 628 1179 633 q 1006 583 1021 621 z "},"か":{"ha":1389,"x_min":75,"x_max":1297,"o":"m 479 53 q 472 53 476 53 q 464 54 468 53 q 449 81 457 68 q 432 106 440 93 q 411 175 415 138 q 399 239 410 193 q 391 273 393 258 q 389 296 389 288 q 396 321 389 304 q 442 229 408 286 q 474 225 447 229 q 510 229 496 221 q 571 361 547 249 q 592 561 592 460 q 592 587 592 575 q 590 610 592 599 q 536 708 582 701 q 499 693 522 710 q 464 676 478 676 q 321 215 379 506 q 325 179 325 206 q 313 174 319 174 q 299 179 304 174 q 290 175 294 175 q 279 179 289 175 q 263 185 272 182 q 244 189 253 189 q 244 233 233 225 q 229 299 229 261 q 285 489 229 374 q 283 503 283 493 q 290 538 283 514 q 307 601 296 563 q 258 565 288 599 q 214 529 226 532 q 165 560 200 536 q 75 624 131 583 q 113 634 93 626 q 153 656 132 642 q 190 681 171 668 q 226 704 208 693 q 285 733 250 715 q 365 775 321 751 q 377 819 368 792 q 400 885 386 846 q 429 1000 424 954 q 497 850 497 949 q 496 826 497 839 q 492 803 494 814 q 685 717 581 786 q 710 518 710 625 q 613 139 710 283 q 599 139 610 136 q 568 76 581 115 q 524 64 553 75 q 479 53 496 53 m 1043 288 q 1007 292 1036 300 l 1024 310 q 1047 322 1033 319 q 1040 326 1046 326 q 1028 321 1039 326 q 1010 313 1019 317 q 997 310 1001 308 q 1000 303 999 308 q 1003 292 1001 299 q 957 292 985 303 q 953 299 957 294 q 949 310 946 304 q 979 322 963 308 q 967 336 972 325 q 886 310 949 322 l 1064 424 q 1135 503 1115 457 q 1150 600 1156 549 q 1092 588 1122 601 q 1025 547 1061 574 q 971 507 1004 538 q 971 467 974 494 q 951 440 968 460 q 936 408 936 421 q 939 394 936 403 q 904 379 924 379 q 860 397 881 379 q 836 435 840 415 q 831 439 835 435 q 821 446 826 442 q 810 449 815 450 q 803 485 803 467 q 808 517 803 497 q 817 559 813 538 q 821 592 821 581 q 792 658 821 628 q 854 638 825 661 q 899 583 883 615 q 1140 658 1022 657 q 1235 636 1197 660 q 1260 607 1246 631 q 1289 583 1271 590 q 1297 533 1297 558 q 1274 444 1297 494 l 1231 372 q 1201 357 1221 376 q 1171 338 1182 338 q 1158 340 1167 338 q 1150 318 1158 333 q 1108 310 1132 321 q 1067 297 1082 297 q 1051 300 1063 297 q 1043 288 1047 299 m 997 328 q 1007 348 999 342 q 1015 354 1015 354 q 1007 365 1015 365 q 979 350 999 365 q 997 328 981 342 z "},"ゕ":{"ha":1389,"x_min":75,"x_max":1297,"o":"m 479 53 q 472 53 476 53 q 464 54 468 53 q 449 81 457 68 q 432 106 440 93 q 411 175 415 138 q 399 239 410 193 q 391 273 393 258 q 389 296 389 288 q 396 321 389 304 q 442 229 408 286 q 474 225 447 229 q 510 229 496 221 q 571 361 547 249 q 592 561 592 460 q 592 587 592 575 q 590 610 592 599 q 536 708 582 701 q 499 693 522 710 q 464 676 478 676 q 321 215 379 506 q 325 179 325 206 q 313 174 319 174 q 299 179 304 174 q 290 175 294 175 q 279 179 289 175 q 263 185 272 182 q 244 189 253 189 q 244 233 233 225 q 229 299 229 261 q 285 489 229 374 q 283 503 283 493 q 290 538 283 514 q 307 601 296 563 q 258 565 288 599 q 214 529 226 532 q 165 560 200 536 q 75 624 131 583 q 113 634 93 626 q 153 656 132 642 q 190 681 171 668 q 226 704 208 693 q 285 733 250 715 q 365 775 321 751 q 377 819 368 792 q 400 885 386 846 q 429 1000 424 954 q 497 850 497 949 q 496 826 497 839 q 492 803 494 814 q 685 717 581 786 q 710 518 710 625 q 613 139 710 283 q 599 139 610 136 q 568 76 581 115 q 524 64 553 75 q 479 53 496 53 m 1043 288 q 1007 292 1036 300 l 1024 310 q 1047 322 1033 319 q 1040 326 1046 326 q 1028 321 1039 326 q 1010 313 1019 317 q 997 310 1001 308 q 1000 303 999 308 q 1003 292 1001 299 q 957 292 985 303 q 953 299 957 294 q 949 310 946 304 q 979 322 963 308 q 967 336 972 325 q 886 310 949 322 l 1064 424 q 1135 503 1115 457 q 1150 600 1156 549 q 1092 588 1122 601 q 1025 547 1061 574 q 971 507 1004 538 q 971 467 974 494 q 951 440 968 460 q 936 408 936 421 q 939 394 936 403 q 904 379 924 379 q 860 397 881 379 q 836 435 840 415 q 831 439 835 435 q 821 446 826 442 q 810 449 815 450 q 803 485 803 467 q 808 517 803 497 q 817 559 813 538 q 821 592 821 581 q 792 658 821 628 q 854 638 825 661 q 899 583 883 615 q 1140 658 1022 657 q 1235 636 1197 660 q 1260 607 1246 631 q 1289 583 1271 590 q 1297 533 1297 558 q 1274 444 1297 494 l 1231 372 q 1201 357 1221 376 q 1171 338 1182 338 q 1158 340 1167 338 q 1150 318 1158 333 q 1108 310 1132 321 q 1067 297 1082 297 q 1051 300 1063 297 q 1043 288 1047 299 m 997 328 q 1007 348 999 342 q 1015 354 1015 354 q 1007 365 1015 365 q 979 350 999 365 q 997 328 981 342 z "},"が":{"ha":1389,"x_min":75,"x_max":1297,"o":"m 479 53 q 472 53 476 53 q 464 54 468 53 q 449 81 457 68 q 432 106 440 93 q 411 175 415 138 q 399 239 410 193 q 391 273 393 258 q 389 296 389 288 q 396 321 389 304 q 442 229 408 286 q 474 225 447 229 q 510 229 496 221 q 571 361 547 249 q 592 561 592 460 q 592 587 592 575 q 590 610 592 599 q 536 708 582 701 q 499 693 522 710 q 464 676 478 676 q 321 215 379 506 q 325 179 325 206 q 313 174 319 174 q 299 179 304 174 q 290 175 294 175 q 279 179 289 175 q 263 185 272 182 q 244 189 253 189 q 244 233 233 225 q 229 299 229 261 q 285 489 229 374 q 283 503 283 493 q 290 538 283 514 q 307 601 296 563 q 258 565 288 599 q 214 529 226 532 q 165 560 200 536 q 75 624 131 583 q 113 634 93 626 q 153 656 132 642 q 190 681 171 668 q 226 704 208 693 q 285 733 250 715 q 365 775 321 751 q 377 819 368 792 q 400 885 386 846 q 429 1000 424 954 q 497 850 497 949 q 496 826 497 839 q 492 803 494 814 q 685 717 581 786 q 710 518 710 625 q 613 139 710 283 q 599 139 610 136 q 568 76 581 115 q 524 64 553 75 q 479 53 496 53 m 1043 288 q 1007 292 1036 300 l 1024 310 q 1047 322 1033 319 q 1040 326 1046 326 q 1028 321 1039 326 q 1010 313 1019 317 q 997 310 1001 308 q 1000 303 999 308 q 1003 292 1001 299 q 957 292 985 303 q 953 299 957 294 q 949 310 946 304 q 979 322 963 308 q 967 336 972 325 q 886 310 949 322 l 1064 424 q 1135 503 1115 457 q 1150 600 1156 549 q 1092 588 1122 601 q 1025 547 1061 574 q 971 507 1004 538 q 971 467 974 494 q 951 440 968 460 q 936 408 936 421 q 939 394 936 403 q 904 379 924 379 q 860 397 881 379 q 836 435 840 415 q 831 439 835 435 q 821 446 826 442 q 810 449 815 450 q 803 485 803 467 q 808 517 803 497 q 817 559 813 538 q 821 592 821 581 q 792 658 821 628 q 854 638 825 661 q 899 583 883 615 q 1140 658 1022 657 q 1235 636 1197 660 q 1260 607 1246 631 q 1289 583 1271 590 q 1297 533 1297 558 q 1274 444 1297 494 l 1231 372 q 1201 357 1221 376 q 1171 338 1182 338 q 1158 340 1167 338 q 1150 318 1158 333 q 1108 310 1132 321 q 1067 297 1082 297 q 1051 300 1063 297 q 1043 288 1047 299 m 1021 725 q 966 788 990 749 q 932 856 942 828 q 1019 855 978 868 q 1088 810 1060 842 q 1124 733 1117 778 q 1071 706 1097 706 q 1021 725 1044 707 m 1285 813 q 1224 790 1251 785 q 1172 817 1196 794 q 1124 876 1146 842 q 1085 931 1103 910 q 1166 930 1121 938 q 1246 894 1211 922 q 1285 813 1281 867 m 997 328 q 1007 348 999 342 q 1015 354 1015 354 q 1007 365 1015 365 q 979 350 999 365 q 997 328 981 342 z "},"き":{"ha":1389,"x_min":251,"x_max":1204,"o":"m 1150 -118 q 1093 -78 1135 -114 q 1044 -24 1061 -49 q 1003 49 1026 1 l 963 135 q 871 297 924 199 q 749 525 818 394 q 671 499 711 515 q 588 461 631 483 q 617 400 617 428 q 607 367 617 381 q 628 375 615 369 q 656 388 640 381 q 726 408 700 408 q 738 408 732 408 q 749 406 743 407 q 807 368 772 400 q 853 317 844 336 q 856 201 875 267 q 760 56 829 113 q 724 -4 758 31 q 697 -35 706 -22 q 685 -58 688 -49 q 649 -64 671 -60 q 596 -78 626 -68 q 565 -64 586 -64 q 532 -72 549 -64 q 626 31 551 -39 l 707 181 q 741 267 732 228 q 744 342 750 307 q 619 258 672 317 q 538 140 586 224 q 454 17 483 53 q 344 150 367 81 q 528 425 486 307 q 493 412 517 424 q 433 381 469 400 q 324 346 369 346 q 312 346 318 346 q 300 347 306 346 q 272 390 297 360 q 251 436 251 415 q 256 456 251 446 q 315 481 271 471 q 360 511 338 485 q 404 558 401 557 q 424 569 413 563 q 449 585 435 575 q 478 609 460 594 q 521 646 496 624 l 597 714 q 634 751 622 736 q 647 772 646 767 q 645 779 647 774 q 640 796 643 785 q 613 881 629 831 q 576 999 596 932 q 567 1036 569 1022 q 564 1051 564 1050 q 572 1078 564 1065 q 686 999 646 1072 l 740 860 l 799 917 q 826 949 815 932 q 844 985 838 967 q 830 999 843 996 q 804 1004 817 1001 q 826 1018 806 1014 q 849 1033 847 1024 q 892 1026 871 1032 q 936 1004 914 1019 l 1011 954 q 1015 932 1013 944 q 1022 904 1017 919 q 936 851 972 876 q 878 807 900 826 l 918 760 q 951 727 935 742 q 982 703 967 713 l 1047 679 q 1092 636 1092 663 q 1075 594 1092 619 q 1021 590 1049 594 q 961 579 993 586 l 858 554 q 1000 265 918 410 q 1185 -24 1082 121 q 1188 -46 1185 -33 q 1197 -69 1192 -58 q 1202 -83 1200 -76 q 1204 -93 1204 -89 q 1200 -112 1204 -101 q 1150 -118 1176 -125 m 463 674 q 304 881 304 726 q 304 895 304 888 q 306 910 304 903 q 418 851 358 893 q 467 877 438 863 q 538 910 497 892 q 514 865 538 901 q 492 808 492 833 q 499 782 492 796 q 494 758 494 772 q 496 745 494 753 q 499 729 497 738 q 501 713 500 721 q 503 699 503 704 q 496 700 500 700 q 479 690 488 700 q 463 674 467 676 m 817 650 q 878 663 842 650 q 933 678 914 676 q 853 792 918 735 q 785 738 829 778 q 799 698 792 719 q 817 650 807 676 m 582 579 q 615 584 597 581 q 651 594 632 588 l 704 614 q 685 668 704 644 q 582 579 613 625 z "},"ぎ":{"ha":1389,"x_min":235,"x_max":1360,"o":"m 1133 -118 q 1076 -78 1118 -114 q 1027 -24 1044 -49 q 986 49 1010 1 l 946 135 q 854 297 907 199 q 732 525 801 394 q 654 499 694 515 q 571 461 614 483 q 600 400 600 428 q 590 367 600 381 q 611 375 599 369 q 639 388 624 381 q 710 408 683 408 q 721 408 715 408 q 732 406 726 407 q 790 368 756 400 q 836 317 828 336 q 839 201 858 267 q 743 56 813 113 q 707 -4 742 31 q 680 -35 689 -22 q 668 -58 671 -49 q 632 -64 654 -60 q 579 -78 610 -68 q 549 -64 569 -64 q 515 -72 532 -64 q 610 31 535 -39 l 690 181 q 724 267 715 228 q 728 342 733 307 q 603 258 656 317 q 521 140 569 224 q 438 17 467 53 q 328 150 350 81 q 511 425 469 307 q 476 412 500 424 q 417 381 453 400 q 307 346 353 346 q 295 346 301 346 q 283 347 289 346 q 256 390 281 360 q 235 436 235 415 q 239 456 235 446 q 299 481 254 471 q 343 511 321 485 q 388 558 385 557 q 407 569 396 563 q 432 585 418 575 q 461 609 443 594 q 504 646 479 624 l 581 714 q 617 751 606 736 q 631 772 629 767 q 628 779 631 774 q 624 796 626 785 q 596 881 613 831 q 560 999 579 932 q 550 1036 553 1022 q 547 1051 547 1050 q 556 1078 547 1065 q 669 999 629 1072 l 724 860 l 782 917 q 810 949 799 932 q 828 985 821 967 q 813 999 826 996 q 788 1004 800 1001 q 810 1018 789 1014 q 832 1033 831 1024 q 876 1026 854 1032 q 919 1004 897 1019 l 994 954 q 998 932 996 944 q 1006 904 1000 919 q 919 851 956 876 q 861 807 883 826 l 901 760 q 934 727 918 742 q 965 703 950 713 l 1031 679 q 1075 636 1075 663 q 1058 594 1075 619 q 1004 590 1032 594 q 944 579 976 586 l 842 554 q 983 265 901 410 q 1168 -24 1065 121 q 1172 -46 1168 -33 q 1181 -69 1175 -58 q 1185 -83 1183 -76 q 1188 -93 1188 -89 q 1183 -112 1188 -101 q 1133 -118 1160 -125 m 446 674 q 288 881 288 726 q 288 895 288 888 q 289 910 288 903 q 401 851 342 893 q 451 877 421 863 q 521 910 481 892 q 497 865 521 901 q 475 808 475 833 q 482 782 475 796 q 478 758 478 772 q 479 745 478 753 q 482 729 481 738 q 485 713 483 721 q 486 699 486 704 q 479 700 483 700 q 463 690 471 700 q 446 674 450 676 m 1096 719 q 1041 783 1065 743 q 1007 850 1017 822 q 1094 849 1053 863 q 1163 804 1135 836 q 1199 728 1192 772 q 1146 701 1172 700 q 1096 719 1119 701 m 1360 807 q 1299 784 1326 779 q 1247 811 1271 789 q 1199 870 1221 836 q 1160 925 1178 904 q 1241 924 1196 932 q 1321 889 1286 917 q 1360 807 1356 861 m 800 650 q 861 663 825 650 q 917 678 897 676 q 836 792 901 735 q 768 738 813 778 q 783 698 775 719 q 800 650 790 676 m 565 579 q 598 584 581 581 q 635 594 615 588 l 688 614 q 668 668 688 644 q 565 579 596 625 z "},"く":{"ha":1389,"x_min":317,"x_max":1040,"o":"m 967 -76 q 843 -29 911 -76 q 816 -16 832 -24 q 781 1 800 -8 l 785 11 q 724 47 767 29 q 611 88 681 65 q 530 114 578 99 q 418 146 482 129 q 387 151 400 151 q 364 146 374 150 q 319 263 317 196 q 414 310 371 271 q 489 369 468 358 q 492 379 493 372 q 494 388 492 386 q 525 392 519 388 q 524 399 526 397 q 518 403 521 401 q 517 404 517 404 l 521 411 l 575 481 q 624 557 611 525 q 639 621 639 596 q 606 710 639 650 q 665 862 628 788 q 758 1006 703 936 l 806 1065 q 879 1094 835 1094 q 906 1000 906 1047 q 829 842 906 929 q 756 752 782 789 q 722 696 729 715 q 708 688 724 690 q 718 640 704 667 q 731 614 726 625 q 736 597 735 603 q 708 488 742 547 q 601 360 675 428 q 554 297 581 324 q 489 257 528 269 q 476 239 489 242 q 517 218 492 228 q 576 199 542 208 q 661 177 632 185 q 696 168 690 169 q 896 78 810 129 q 1040 -39 982 26 q 1017 -51 1035 -51 q 996 -74 997 -54 q 981 -76 989 -75 q 967 -76 974 -76 z "},"ぐ":{"ha":1389,"x_min":289,"x_max":1257,"o":"m 939 -76 q 815 -29 883 -76 q 788 -16 804 -24 q 753 1 772 -8 l 757 11 q 696 47 739 29 q 583 88 653 65 q 502 114 550 99 q 390 146 454 129 q 359 151 372 151 q 336 146 346 150 q 292 263 289 196 q 386 310 343 271 q 461 369 440 358 q 464 379 465 372 q 467 388 464 386 q 497 392 492 388 q 496 399 499 397 q 490 403 493 401 q 489 404 489 404 l 493 411 l 547 481 q 596 557 583 525 q 611 621 611 596 q 578 710 611 650 q 638 862 600 788 q 731 1006 675 936 l 778 1065 q 851 1094 807 1094 q 878 1000 878 1047 q 801 842 878 926 q 728 752 754 789 q 694 696 701 715 q 681 688 696 690 q 690 640 676 667 q 703 614 699 625 q 708 597 707 603 q 681 488 714 547 q 574 360 647 428 q 526 297 553 324 q 461 257 500 269 q 449 239 461 242 q 489 218 464 228 q 549 199 514 208 q 633 177 604 185 q 668 168 663 169 q 868 78 782 129 q 1013 -39 954 26 q 989 -51 1007 -51 q 968 -74 969 -54 q 953 -76 961 -75 q 939 -76 946 -76 m 993 639 q 938 702 963 663 q 904 769 914 742 q 991 769 950 782 q 1060 724 1032 756 q 1096 647 1089 692 q 1043 620 1069 619 q 993 639 1017 621 m 1257 726 q 1196 703 1224 699 q 1144 731 1168 708 q 1097 790 1118 756 q 1057 844 1075 824 q 1138 844 1093 851 q 1218 808 1183 836 q 1257 726 1253 781 z "},"け":{"ha":1389,"x_min":138,"x_max":1228,"o":"m 889 -89 q 882 -75 886 -83 q 874 -54 878 -67 q 889 118 869 4 q 906 260 900 185 q 913 421 913 336 q 911 515 913 461 q 907 638 910 569 q 551 421 653 567 q 447 174 461 293 q 447 136 446 169 q 449 127 449 132 q 449 117 449 122 q 439 60 451 82 q 407 56 421 56 q 314 206 314 56 q 318 290 314 239 q 323 342 321 322 q 325 367 325 361 q 196 397 249 365 q 138 481 143 428 q 168 475 150 475 q 276 506 201 475 q 390 535 353 536 q 468 489 436 533 q 460 479 461 485 q 468 456 456 469 q 899 738 629 647 q 882 832 888 793 q 876 893 876 871 q 963 1033 876 1010 q 999 969 986 1018 q 1014 922 1007 942 q 1026 893 1021 903 q 1046 870 1033 883 q 1076 842 1058 857 q 1131 786 1115 810 q 1155 781 1142 786 q 1181 761 1168 775 l 1224 717 q 1228 703 1228 711 q 1222 687 1228 696 q 1214 672 1215 678 q 1172 667 1196 668 q 1115 665 1147 665 q 1056 665 1081 667 q 1018 663 1031 664 q 1015 663 1015 663 q 1017 608 1015 642 q 1022 528 1018 575 q 1028 447 1025 482 q 1031 389 1031 413 q 1026 306 1031 344 q 1011 233 1021 267 q 1018 221 1018 226 q 1015 210 1018 218 q 1013 193 1013 201 q 1015 178 1013 189 q 983 83 997 153 q 943 -29 967 8 q 919 -60 942 -40 q 889 -89 894 -82 m 392 788 q 379 790 388 788 q 399 840 378 808 q 354 860 396 858 q 301 924 340 896 q 314 925 301 928 q 325 924 321 924 q 331 924 329 924 q 458 974 343 925 q 592 919 503 976 q 596 856 600 886 l 544 832 q 490 818 515 818 q 458 826 478 818 q 425 806 446 825 q 392 788 407 788 m 996 756 q 1042 767 1032 753 q 992 864 1036 807 q 996 756 990 829 z "},"げ":{"ha":1389,"x_min":96,"x_max":1378,"o":"m 847 -122 q 840 -108 844 -117 q 832 -87 836 -100 q 847 85 828 -29 q 865 227 858 151 q 871 388 871 303 q 869 482 871 428 q 865 604 868 536 q 510 388 611 533 q 406 140 419 260 q 406 103 404 136 q 407 94 407 99 q 407 83 407 89 q 397 26 410 49 q 365 22 379 22 q 272 172 272 22 q 276 257 272 206 q 281 308 279 289 q 283 333 283 328 q 154 363 207 332 q 96 447 101 394 q 126 442 108 442 q 235 472 160 442 q 349 501 311 503 q 426 456 394 500 q 418 446 419 451 q 426 422 414 436 q 857 704 588 614 q 840 799 846 760 q 835 860 835 838 q 921 1000 835 976 q 957 936 944 985 q 972 889 965 908 q 985 860 979 869 q 1004 837 992 850 q 1035 808 1017 824 q 1089 753 1074 776 q 1113 747 1100 753 q 1139 728 1126 742 l 1182 683 q 1186 669 1186 678 q 1180 653 1186 663 q 1172 639 1174 644 q 1130 633 1154 635 q 1074 632 1106 632 q 1014 632 1039 633 q 976 629 989 631 q 974 629 974 629 q 975 575 974 608 q 981 494 976 542 q 986 414 983 449 q 989 356 989 379 q 984 272 989 311 q 969 200 979 233 q 976 188 976 193 q 974 176 976 185 q 971 160 971 168 q 974 144 971 156 q 942 50 956 119 q 901 -62 925 -25 q 878 -93 900 -74 q 847 -122 853 -115 m 350 754 q 338 757 346 754 q 357 807 336 775 q 313 826 354 825 q 260 890 299 863 q 272 892 260 894 q 283 890 279 890 q 289 890 288 890 q 417 940 301 892 q 550 886 461 943 q 554 822 558 853 l 503 799 q 449 785 474 785 q 417 793 436 785 q 383 772 404 792 q 350 754 365 754 m 1114 903 q 1059 966 1083 926 q 1025 1033 1035 1006 q 1112 1033 1071 1046 q 1181 988 1153 1019 q 1217 911 1210 956 q 1164 884 1190 883 q 1114 903 1138 885 m 1378 990 q 1317 967 1344 963 q 1265 994 1289 972 q 1217 1053 1239 1019 q 1178 1108 1196 1088 q 1259 1108 1214 1115 q 1339 1072 1304 1100 q 1378 990 1374 1044 m 954 722 q 1000 733 990 719 q 950 831 994 774 q 954 722 949 796 z "},"ゖ":{"ha":1389,"x_min":138,"x_max":1228,"o":"m 889 -89 q 882 -75 886 -83 q 874 -54 878 -67 q 889 118 869 4 q 906 260 900 185 q 913 421 913 336 q 911 515 913 461 q 907 638 910 569 q 551 421 653 567 q 447 174 461 293 q 447 136 446 169 q 449 127 449 132 q 449 117 449 122 q 439 60 451 82 q 407 56 421 56 q 314 206 314 56 q 318 290 314 239 q 323 342 321 322 q 325 367 325 361 q 196 397 249 365 q 138 481 143 428 q 168 475 150 475 q 276 506 201 475 q 390 535 353 536 q 468 489 436 533 q 460 479 461 485 q 468 456 456 469 q 899 738 629 647 q 882 832 888 793 q 876 893 876 871 q 963 1033 876 1010 q 999 969 986 1018 q 1014 922 1007 942 q 1026 893 1021 903 q 1046 870 1033 883 q 1076 842 1058 857 q 1131 786 1115 810 q 1155 781 1142 786 q 1181 761 1168 775 l 1224 717 q 1228 703 1228 711 q 1222 687 1228 696 q 1214 672 1215 678 q 1172 667 1196 668 q 1115 665 1147 665 q 1056 665 1081 667 q 1018 663 1031 664 q 1015 663 1015 663 q 1017 608 1015 642 q 1022 528 1018 575 q 1028 447 1025 482 q 1031 389 1031 413 q 1026 306 1031 344 q 1011 233 1021 267 q 1018 221 1018 226 q 1015 210 1018 218 q 1013 193 1013 201 q 1015 178 1013 189 q 983 83 997 153 q 943 -29 967 8 q 919 -60 942 -40 q 889 -89 894 -82 m 392 788 q 379 790 388 788 q 399 840 378 808 q 354 860 396 858 q 301 924 340 896 q 314 925 301 928 q 325 924 321 924 q 331 924 329 924 q 458 974 343 925 q 592 919 503 976 q 596 856 600 886 l 544 832 q 490 818 515 818 q 458 826 478 818 q 425 806 446 825 q 392 788 407 788 m 996 756 q 1042 767 1032 753 q 992 864 1036 807 q 996 756 990 829 z "},"こ":{"ha":1389,"x_min":247,"x_max":1199,"o":"m 754 313 q 688 336 711 306 q 665 365 675 351 q 643 393 654 379 q 594 388 621 392 q 535 374 567 383 q 597 419 547 390 q 665 468 650 451 l 661 628 q 569 608 614 608 q 365 703 467 607 q 498 728 425 715 q 657 754 571 740 l 657 899 q 693 1028 657 992 l 749 967 q 775 931 764 949 q 793 896 786 914 q 778 778 776 793 q 808 791 792 779 q 835 806 825 803 l 974 776 q 1053 679 1058 747 q 920 678 986 682 q 789 660 854 674 q 782 594 785 638 q 778 485 779 550 q 771 388 776 431 q 754 313 765 344 m 953 96 q 929 101 951 110 l 958 136 q 996 167 976 158 q 1015 231 1015 199 q 967 332 1015 283 q 997 344 975 344 q 1044 333 1017 343 q 1103 304 1071 324 q 1179 242 1165 268 q 1199 167 1199 210 q 1174 101 1199 121 q 1156 100 1164 100 q 1138 100 1147 100 q 1106 101 1124 100 q 1069 106 1089 103 l 996 115 q 953 96 972 107 m 454 -12 q 329 31 388 -18 q 306 57 326 33 q 247 125 286 81 q 247 155 247 140 q 249 183 247 169 q 275 214 251 207 q 299 201 286 208 q 325 182 311 193 q 354 157 343 167 q 369 144 365 147 q 447 201 404 172 q 543 256 490 229 q 507 219 544 247 q 454 190 469 194 q 440 153 458 178 q 456 86 439 129 q 474 25 474 46 q 454 -12 474 3 z "},"ご":{"ha":1389,"x_min":222,"x_max":1299,"o":"m 729 301 q 663 325 686 294 q 640 354 650 340 q 618 382 629 368 q 569 376 596 381 q 510 363 542 372 q 572 408 522 379 q 640 457 625 440 l 636 617 q 544 597 589 597 q 340 692 442 596 q 473 717 400 704 q 632 743 546 729 l 632 888 q 668 1017 632 981 l 724 956 q 750 920 739 938 q 768 885 761 903 q 753 767 751 782 q 783 780 767 768 q 810 794 800 792 l 949 765 q 1028 668 1033 736 q 895 667 961 671 q 764 649 829 663 q 757 583 760 626 q 753 474 754 539 q 746 376 751 419 q 729 301 740 333 m 928 85 q 904 90 926 99 l 933 125 q 971 156 951 147 q 990 219 990 188 q 942 321 990 272 q 972 333 950 333 q 1019 322 992 332 q 1078 293 1046 313 q 1154 231 1140 257 q 1174 156 1174 199 q 1149 90 1174 110 q 1131 89 1139 89 q 1113 89 1122 89 q 1081 90 1099 89 q 1044 94 1064 92 l 971 104 q 928 85 947 96 m 429 -24 q 304 19 363 -29 q 281 46 301 22 q 222 114 261 69 q 222 144 222 129 q 224 172 222 158 q 250 203 226 196 q 274 190 261 197 q 300 171 286 182 q 329 146 318 156 q 344 133 340 136 q 422 190 379 161 q 518 244 465 218 q 482 208 519 236 q 429 179 444 183 q 415 142 433 167 q 431 75 414 118 q 449 14 449 35 q 429 -24 449 -8 m 1035 808 q 980 872 1004 832 q 946 939 956 911 q 1033 938 992 951 q 1102 893 1074 925 q 1138 817 1131 861 q 1085 790 1111 789 q 1035 808 1058 790 m 1299 896 q 1238 873 1265 868 q 1186 900 1210 878 q 1138 959 1160 925 q 1099 1014 1117 993 q 1180 1013 1135 1021 q 1260 978 1225 1006 q 1299 896 1294 950 z "},"さ":{"ha":1389,"x_min":165,"x_max":1176,"o":"m 640 351 q 667 387 651 369 q 701 422 682 404 q 588 624 589 511 q 564 643 588 647 l 460 599 q 395 577 424 583 q 344 572 367 571 l 289 586 q 252 597 267 592 q 231 606 238 603 q 212 622 228 607 q 165 663 196 636 q 387 718 283 696 q 579 751 490 740 q 586 832 583 792 q 594 911 589 872 q 622 1000 601 971 q 668 1029 642 1029 q 729 1006 693 1029 q 717 965 722 992 q 710 900 713 939 q 697 781 704 813 q 904 793 781 793 q 863 846 904 811 q 908 824 881 846 q 956 799 938 800 q 981 798 965 797 q 1011 800 996 799 q 1030 802 1021 801 q 1044 803 1039 803 q 1119 778 1076 799 q 1176 724 1176 750 q 1126 683 1174 683 q 1058 692 1107 683 q 997 700 1013 700 q 869 695 944 703 q 697 672 794 688 q 688 600 688 638 q 701 535 688 561 q 807 545 767 542 q 864 549 847 549 q 968 500 968 549 q 946 442 968 476 q 924 435 940 440 q 881 419 908 429 q 824 407 846 407 q 806 408 811 407 q 640 351 751 382 m 783 -62 q 672 -33 718 -65 q 651 -13 663 -26 q 624 18 639 0 q 588 83 589 61 q 594 129 586 96 q 603 178 606 161 q 576 240 601 207 q 560 263 568 251 q 542 286 551 275 q 589 297 564 297 q 697 256 643 297 q 749 158 757 213 q 724 119 744 138 q 703 83 703 101 q 703 77 703 81 q 706 69 704 74 l 788 32 q 838 -37 833 11 q 783 -62 828 -60 z "},"ざ":{"ha":1389,"x_min":157,"x_max":1304,"o":"m 632 335 q 658 370 643 353 q 693 406 674 388 q 579 607 581 494 q 556 626 579 631 l 451 582 q 387 560 415 567 q 336 556 358 554 l 281 569 q 244 581 258 575 q 222 589 229 586 q 203 605 219 590 q 157 646 188 619 q 378 701 275 679 q 571 735 482 724 q 578 815 575 775 q 586 894 581 856 q 613 983 593 954 q 660 1013 633 1013 q 721 989 685 1013 q 709 949 714 975 q 701 883 704 922 q 689 764 696 796 q 896 776 772 776 q 854 829 896 794 q 900 807 872 829 q 947 782 929 783 q 972 781 957 781 q 1003 783 988 782 q 1022 785 1013 785 q 1036 786 1031 786 q 1111 761 1068 782 q 1168 707 1168 733 q 1118 667 1165 667 q 1050 675 1099 667 q 989 683 1004 683 q 861 678 936 686 q 689 656 786 671 q 679 583 679 621 q 693 518 679 544 q 799 528 758 525 q 856 532 839 532 q 960 483 960 532 q 938 425 960 460 q 916 418 932 424 q 872 403 900 413 q 815 390 838 390 q 797 392 803 390 q 632 335 743 365 m 775 -79 q 664 -50 710 -82 q 642 -30 654 -43 q 615 1 631 -17 q 579 67 581 44 q 586 113 578 79 q 594 161 597 144 q 568 224 593 190 q 551 247 560 235 q 533 269 543 258 q 581 281 556 281 q 689 239 635 281 q 740 142 749 196 q 715 103 736 121 q 694 67 694 85 q 695 60 694 64 q 697 53 696 57 l 779 15 q 829 -54 825 -6 q 775 -79 819 -76 m 1040 858 q 985 922 1010 882 q 951 989 961 961 q 1038 988 997 1001 q 1108 943 1079 975 q 1143 867 1136 911 q 1090 840 1117 839 q 1040 858 1064 840 m 1304 946 q 1243 923 1271 918 q 1192 950 1215 928 q 1144 1009 1165 975 q 1104 1064 1122 1043 q 1185 1063 1140 1071 q 1265 1028 1231 1056 q 1304 946 1300 1000 z "},"し":{"ha":1389,"x_min":508,"x_max":1106,"o":"m 876 -37 q 675 33 757 -37 q 575 222 593 103 q 572 298 572 246 q 574 428 571 350 q 556 621 578 563 q 546 640 553 628 q 528 668 539 653 q 508 710 511 690 q 535 747 522 725 q 563 796 549 768 l 611 889 q 565 951 601 910 q 522 1017 532 989 q 606 999 564 1007 q 689 982 647 990 q 792 869 792 949 q 792 859 792 864 q 790 847 792 854 q 713 839 743 839 q 626 867 658 839 q 542 725 565 814 q 618 681 560 708 q 662 656 643 669 q 692 631 681 643 q 700 493 699 576 q 701 381 701 421 q 701 329 701 340 q 701 306 701 328 q 699 242 700 285 q 707 165 696 193 q 765 94 722 122 q 881 56 808 65 l 1106 28 q 1044 6 1094 18 q 983 -24 999 -7 q 930 -34 957 -31 q 876 -37 903 -37 z "},"じ":{"ha":1389,"x_min":464,"x_max":1251,"o":"m 832 -40 q 631 30 713 -40 q 531 219 549 100 q 527 295 528 243 q 529 425 526 347 q 511 618 533 560 q 501 638 508 625 q 483 665 494 650 q 464 707 467 688 q 491 744 478 722 q 518 793 504 765 l 567 886 q 521 949 557 907 q 478 1014 488 986 q 561 996 519 1004 q 644 979 603 988 q 747 867 747 946 q 747 856 747 861 q 746 844 747 851 q 668 836 699 836 q 582 864 614 836 q 497 722 521 811 q 574 678 515 706 q 617 653 599 667 q 647 628 636 640 q 656 490 654 574 q 657 378 657 418 q 657 326 657 338 q 656 303 657 325 q 654 239 656 282 q 663 163 651 190 q 721 91 678 119 q 836 53 764 63 l 1061 25 q 1000 3 1050 15 q 939 -26 954 -10 q 885 -37 913 -33 q 832 -40 858 -40 m 988 661 q 933 724 957 685 q 899 792 908 764 q 985 791 944 804 q 1055 746 1026 778 q 1090 669 1083 714 q 1038 642 1064 642 q 988 661 1011 643 m 1251 749 q 1190 726 1218 721 q 1139 753 1163 731 q 1091 812 1113 778 q 1051 867 1069 846 q 1133 866 1088 874 q 1213 831 1178 858 q 1251 749 1247 803 z "},"す":{"ha":1389,"x_min":143,"x_max":1233,"o":"m 835 19 q 710 67 747 19 q 647 94 681 69 q 592 121 610 122 q 587 127 588 121 q 586 140 586 133 q 586 151 586 146 q 583 158 586 156 l 483 236 q 421 339 421 285 q 432 390 421 361 q 519 413 467 413 q 639 386 581 413 q 725 327 699 361 q 751 257 751 293 q 692 167 751 200 q 742 151 711 151 q 797 163 767 151 q 826 265 817 211 q 833 378 836 318 q 826 483 832 418 q 815 638 821 549 q 760 633 793 636 q 683 624 728 631 q 547 580 624 604 q 376 528 471 556 q 349 522 363 524 q 322 521 335 521 q 221 556 268 521 q 190 584 210 565 q 143 633 171 603 q 244 651 160 636 q 479 697 328 667 q 667 727 582 717 q 819 738 751 738 l 824 875 q 830 944 825 913 q 842 1003 835 976 q 847 1004 842 1003 q 861 1008 851 1006 q 876 1005 867 1010 q 894 994 885 1000 q 911 984 903 989 q 925 979 919 979 q 960 899 963 947 q 947 824 960 876 q 935 742 935 772 l 979 742 q 1009 746 994 742 q 1035 756 1024 750 l 1150 718 q 1213 686 1193 704 q 1233 649 1233 668 q 1214 610 1233 632 q 1166 617 1199 611 q 1085 633 1133 624 q 943 647 1008 651 q 926 551 926 593 q 939 492 926 517 q 935 463 936 478 q 933 432 933 447 q 938 364 933 408 q 942 324 940 342 q 943 296 943 307 q 939 249 943 272 q 947 210 947 239 q 915 43 947 160 q 835 19 888 19 m 618 193 q 642 258 646 225 q 524 304 615 301 q 618 193 539 225 z "},"ず":{"ha":1389,"x_min":129,"x_max":1368,"o":"m 821 14 q 696 61 733 14 q 633 89 667 64 q 578 115 596 117 q 573 122 574 115 q 572 135 572 128 q 572 145 572 140 q 569 153 572 150 l 469 231 q 407 333 407 279 q 418 385 407 356 q 506 407 453 407 q 625 381 567 407 q 711 322 685 356 q 738 251 738 288 q 678 161 738 194 q 728 146 697 146 q 783 157 753 146 q 813 259 803 206 q 819 372 822 313 q 813 478 818 413 q 801 632 807 543 q 747 628 779 631 q 669 618 714 625 q 533 574 610 599 q 363 522 457 550 q 335 517 349 518 q 308 515 321 515 q 207 550 254 515 q 176 578 196 560 q 129 628 157 597 q 230 646 146 631 q 465 692 314 661 q 653 722 568 711 q 806 732 738 732 l 810 869 q 816 939 811 907 q 828 997 821 971 q 833 999 828 997 q 847 1003 838 1000 q 862 999 853 1004 q 881 989 871 994 q 897 978 889 983 q 911 974 906 974 q 946 893 949 942 q 933 818 946 871 q 921 736 921 767 l 965 736 q 995 740 981 736 q 1021 750 1010 744 l 1136 713 q 1199 681 1179 699 q 1219 643 1219 663 q 1200 604 1219 626 q 1152 612 1185 606 q 1071 628 1119 618 q 929 642 994 646 q 913 546 913 588 q 925 486 913 511 q 921 457 922 472 q 919 426 919 442 q 924 358 919 403 q 928 319 926 336 q 929 290 929 301 q 925 243 929 267 q 933 204 933 233 q 901 38 933 154 q 821 14 874 14 m 1104 828 q 1049 891 1074 851 q 1015 958 1025 931 q 1102 958 1061 971 q 1172 913 1143 944 q 1207 836 1200 881 q 1154 809 1181 808 q 1104 828 1128 810 m 1368 915 q 1307 892 1335 888 q 1256 919 1279 897 q 1208 978 1229 944 q 1168 1033 1186 1013 q 1249 1033 1204 1040 q 1329 997 1294 1025 q 1368 915 1364 969 m 604 188 q 628 253 632 219 q 510 299 601 296 q 604 188 525 219 z "},"せ":{"ha":1389,"x_min":279,"x_max":1131,"o":"m 653 7 q 468 40 539 7 q 445 109 457 74 q 431 186 433 144 q 499 226 463 201 q 575 283 535 250 q 660 350 626 324 q 711 388 694 376 q 669 488 696 428 q 604 624 642 547 q 492 607 549 607 q 350 661 390 607 q 316 669 331 658 q 288 692 301 679 q 279 699 282 696 q 341 717 301 710 q 440 731 381 725 q 576 760 550 739 l 531 886 q 511 954 517 922 q 506 1014 506 986 q 519 1017 514 1011 q 528 1025 525 1022 q 529 1028 529 1028 q 588 996 561 1022 q 632 921 615 969 l 683 769 q 788 799 717 781 q 765 824 778 808 q 736 860 753 839 q 792 831 742 860 q 822 835 807 833 q 850 836 836 836 q 1010 742 965 836 q 718 646 908 715 q 745 563 728 613 q 788 444 763 513 q 821 464 790 446 q 908 517 851 482 q 1036 563 986 563 q 1126 515 1089 563 q 1131 503 1131 510 q 1124 485 1131 496 q 1117 468 1118 474 q 1051 447 1085 457 q 986 425 1018 436 q 872 365 914 400 q 878 323 874 343 q 896 285 883 303 l 938 224 q 892 190 919 190 q 764 299 846 190 q 738 292 754 296 q 699 285 722 289 q 703 269 703 281 q 696 264 700 268 q 685 258 690 261 q 669 257 679 254 q 658 236 668 243 q 638 224 647 229 q 611 185 635 221 q 576 153 593 158 q 571 131 581 142 q 624 119 594 124 q 690 115 654 115 q 872 143 793 115 q 963 113 929 135 q 1022 63 979 103 q 1017 49 1017 58 q 1014 35 1017 39 q 972 28 1001 38 q 935 18 950 22 q 910 13 919 14 q 897 15 906 11 q 890 17 892 17 q 841 15 871 17 q 771 11 811 14 q 653 7 692 7 z "},"ぜ":{"ha":1389,"x_min":265,"x_max":1279,"o":"m 639 -4 q 454 29 525 -4 q 431 98 443 63 q 417 175 419 133 q 485 215 449 190 q 561 272 521 239 q 647 339 613 313 q 697 376 681 365 q 655 476 682 417 q 590 613 628 536 q 478 596 535 596 q 336 650 376 596 q 302 658 317 647 q 274 681 288 668 q 265 688 268 685 q 327 706 288 699 q 426 719 367 714 q 563 749 536 728 l 517 875 q 497 943 503 911 q 492 1003 492 975 q 506 1006 500 1000 q 514 1014 511 1011 q 515 1017 515 1017 q 574 985 547 1011 q 618 910 601 958 l 669 758 q 774 788 703 769 q 751 813 764 797 q 722 849 739 828 q 778 819 728 849 q 808 824 793 822 q 836 825 822 825 q 996 731 951 825 q 704 635 894 704 q 731 551 714 601 q 774 433 749 501 q 807 453 776 435 q 894 506 838 471 q 1022 551 972 551 q 1113 504 1075 551 q 1117 492 1117 499 q 1110 474 1117 485 q 1103 457 1104 463 q 1038 435 1071 446 q 972 414 1004 425 q 858 354 900 389 q 865 312 860 332 q 882 274 869 292 l 924 213 q 878 179 906 179 q 750 288 832 179 q 724 281 740 285 q 685 274 708 278 q 689 258 689 269 q 682 253 686 257 q 671 247 676 250 q 656 246 665 243 q 644 225 654 232 q 624 213 633 218 q 597 174 621 210 q 563 142 579 147 q 557 119 567 131 q 610 108 581 113 q 676 104 640 104 q 858 132 779 104 q 949 101 915 124 q 1008 51 965 92 q 1003 38 1003 47 q 1000 24 1003 28 q 958 17 988 26 q 921 7 936 11 q 896 1 906 3 q 883 4 892 0 q 876 6 878 6 q 827 4 857 6 q 757 0 797 3 q 639 -4 678 -4 m 1015 844 q 960 908 985 868 q 926 975 936 947 q 1013 974 972 988 q 1083 929 1054 961 q 1118 853 1111 897 q 1065 826 1092 825 q 1015 844 1039 826 m 1279 932 q 1218 909 1246 904 q 1167 936 1190 914 q 1119 995 1140 961 q 1079 1050 1097 1029 q 1160 1049 1115 1057 q 1240 1014 1206 1042 q 1279 932 1275 986 z "},"そ":{"ha":1389,"x_min":361,"x_max":1017,"o":"m 622 -89 q 839 154 771 3 q 879 368 879 246 q 863 469 879 435 q 794 519 838 519 q 674 467 751 519 q 600 419 626 436 q 567 400 574 403 q 527 394 551 399 q 471 381 503 390 q 410 465 404 421 q 449 510 413 489 l 506 540 q 525 569 508 547 q 571 625 542 590 q 658 728 606 665 q 778 875 710 790 q 788 901 781 886 q 806 931 794 915 q 835 983 828 964 q 604 856 664 972 q 583 799 603 854 q 551 747 571 765 q 510 743 529 743 q 439 761 468 743 q 368 997 361 813 q 443 954 408 990 q 506 899 486 907 q 518 856 500 868 q 661 939 543 865 q 819 1001 744 992 q 886 1032 838 1033 q 950 1012 921 1031 q 985 960 979 993 q 933 850 992 918 q 901 816 925 840 q 835 753 876 792 q 781 701 817 735 q 674 597 744 667 q 774 613 728 613 q 960 518 894 613 q 1014 306 1017 435 q 993 160 1013 235 q 858 -40 958 25 q 622 -89 758 -106 z "},"ぞ":{"ha":1389,"x_min":339,"x_max":1310,"o":"m 600 -94 q 817 149 749 -3 q 857 363 857 240 q 840 464 857 429 q 772 514 815 514 q 651 461 729 514 q 578 414 604 431 q 544 394 551 397 q 505 389 529 393 q 449 375 481 385 q 388 460 382 415 q 426 504 390 483 l 483 535 q 503 563 486 542 q 549 619 519 585 q 635 722 583 660 q 756 869 688 785 q 765 895 758 881 q 783 925 772 910 q 813 978 806 958 q 582 850 642 967 q 561 793 581 849 q 529 742 549 760 q 488 738 507 738 q 417 756 446 738 q 346 992 339 807 q 421 949 386 985 q 483 893 464 901 q 496 850 478 863 q 639 933 521 860 q 797 996 722 986 q 864 1026 815 1028 q 928 1006 899 1025 q 963 954 957 988 q 911 844 969 913 q 878 810 903 835 q 813 747 854 786 q 758 695 794 729 q 651 592 722 661 q 751 607 706 607 q 938 513 872 607 q 992 300 994 429 q 971 154 990 229 q 836 -46 936 19 q 600 -94 736 -111 m 1046 631 q 991 694 1015 654 q 957 761 967 733 q 1044 760 1003 774 q 1113 715 1085 747 q 1149 639 1142 683 q 1096 612 1122 611 q 1046 631 1069 613 m 1310 718 q 1249 695 1276 690 q 1197 722 1221 700 q 1149 781 1171 747 q 1110 836 1128 815 q 1191 835 1146 843 q 1271 800 1236 828 q 1310 718 1306 772 z "},"た":{"ha":1389,"x_min":311,"x_max":1104,"o":"m 783 -71 q 749 -64 769 -69 q 701 -47 729 -58 q 655 -31 675 -36 q 621 -24 635 -25 q 568 -42 596 -24 q 563 56 582 13 q 471 33 513 33 q 406 56 429 33 q 382 51 393 51 q 331 75 351 51 q 311 132 311 99 q 333 189 311 165 q 383 224 351 208 q 463 246 415 240 l 611 265 q 646 321 631 281 q 676 383 665 368 q 753 414 703 413 q 776 332 776 364 q 744 261 776 293 q 815 231 790 242 q 840 218 839 219 q 890 154 892 189 q 955 265 928 197 q 982 396 982 332 q 960 492 982 451 q 858 515 908 515 q 543 365 701 519 q 540 347 544 357 q 533 329 536 338 q 529 319 529 322 q 511 313 521 318 q 490 300 501 307 q 456 276 467 281 q 381 356 431 292 q 407 410 388 371 q 458 514 426 450 q 529 679 506 608 q 439 767 436 697 q 448 794 440 778 q 472 833 456 811 q 501 869 486 853 q 529 903 515 886 q 599 985 557 936 q 694 1099 640 1033 q 774 982 740 1082 q 690 886 739 944 q 578 747 642 828 q 635 651 632 735 q 611 546 635 593 q 822 583 714 583 q 1101 408 1056 583 q 1094 276 1104 339 q 1061 156 1085 213 q 925 -22 1015 39 q 851 -44 886 -32 q 783 -71 815 -56 m 665 17 q 711 26 671 22 q 744 42 742 28 q 753 42 749 43 q 760 39 757 40 q 769 36 767 36 q 818 78 781 54 q 861 125 851 100 q 848 124 854 124 q 835 124 842 124 q 802 128 819 124 q 765 138 785 132 l 690 164 q 654 78 654 140 q 665 17 654 46 m 396 114 q 488 125 444 110 q 544 167 531 140 q 528 169 536 168 q 510 169 519 169 q 396 114 421 169 z "},"だ":{"ha":1389,"x_min":311,"x_max":1243,"o":"m 783 -71 q 749 -64 769 -69 q 701 -47 729 -58 q 655 -31 675 -36 q 621 -24 635 -25 q 568 -42 596 -24 q 563 56 582 13 q 471 33 513 33 q 406 56 429 33 q 382 51 393 51 q 331 75 351 51 q 311 132 311 99 q 333 189 311 165 q 383 224 351 208 q 463 246 415 240 l 611 265 q 646 321 631 281 q 676 383 665 368 q 753 414 703 413 q 776 332 776 364 q 744 261 776 293 q 815 231 790 242 q 840 218 839 219 q 890 154 892 189 q 955 265 928 197 q 982 396 982 332 q 960 492 982 451 q 858 515 908 515 q 543 365 701 519 q 540 347 544 357 q 533 329 536 338 q 529 319 529 322 q 511 313 521 318 q 490 300 501 307 q 456 276 467 281 q 381 356 431 292 q 407 410 388 371 q 458 514 426 450 q 529 679 506 608 q 439 767 436 697 q 448 794 440 778 q 472 833 456 811 q 501 869 486 853 q 529 903 515 886 q 599 985 557 936 q 694 1099 640 1033 q 774 982 740 1082 q 690 886 739 944 q 578 747 642 828 q 635 651 632 735 q 611 546 635 593 q 822 583 714 583 q 1101 408 1056 583 q 1094 276 1104 339 q 1061 156 1085 213 q 925 -22 1015 39 q 851 -44 886 -32 q 783 -71 815 -56 m 665 17 q 711 26 671 22 q 744 42 742 28 q 753 42 749 43 q 760 39 757 40 q 769 36 767 36 q 818 78 781 54 q 861 125 851 100 q 848 124 854 124 q 835 124 842 124 q 802 128 819 124 q 765 138 785 132 l 690 164 q 654 78 654 140 q 665 17 654 46 m 979 728 q 924 791 949 751 q 890 858 900 831 q 977 858 936 871 q 1047 813 1018 844 q 1082 736 1075 781 q 1029 709 1056 708 q 979 728 1003 710 m 1243 815 q 1182 792 1210 788 q 1131 819 1154 797 q 1083 878 1104 844 q 1043 933 1061 913 q 1124 933 1079 940 q 1204 897 1169 925 q 1243 815 1239 869 m 396 114 q 488 125 444 110 q 544 167 531 140 q 528 169 536 168 q 510 169 519 169 q 396 114 421 169 z "},"ち":{"ha":1389,"x_min":357,"x_max":1147,"o":"m 843 -29 q 774 -18 822 -29 q 704 -7 725 -7 q 661 -14 685 -7 l 729 19 q 827 69 786 47 q 890 106 868 90 q 1017 226 975 158 q 908 261 972 261 q 721 201 825 261 q 642 149 678 176 q 579 89 607 121 q 543 81 561 81 q 497 94 524 81 q 450 114 460 113 q 421 163 439 138 q 437 213 424 178 q 472 300 450 247 q 502 383 492 347 q 511 446 513 419 q 464 540 508 506 q 479 638 460 583 l 513 726 l 433 751 q 384 776 403 761 q 357 806 365 790 q 472 835 383 828 q 589 860 563 843 l 656 965 q 733 1061 692 1022 q 742 1064 739 1064 q 772 1040 746 1064 q 774 1027 774 1035 q 775 1013 775 1019 q 743 893 775 946 q 786 899 764 889 q 784 910 786 904 q 779 921 782 915 q 774 929 776 925 q 772 938 772 933 q 841 926 813 932 q 885 914 869 921 q 954 844 939 893 q 858 800 926 817 q 776 771 789 785 q 765 774 771 774 q 726 761 758 774 q 686 756 703 751 q 575 575 660 725 q 631 401 635 499 q 604 276 628 344 q 876 336 714 336 q 1138 236 1071 336 q 1147 176 1138 194 q 1099 75 1131 144 q 1017 27 1047 44 q 975 4 986 10 q 843 -29 906 -28 z "},"ぢ":{"ha":1389,"x_min":343,"x_max":1240,"o":"m 829 -29 q 760 -18 808 -29 q 690 -7 711 -7 q 647 -14 671 -7 l 715 19 q 813 69 772 47 q 876 106 854 90 q 1003 226 961 158 q 894 261 958 261 q 707 201 811 261 q 628 149 664 176 q 565 89 593 121 q 529 81 547 81 q 483 94 510 81 q 436 114 446 113 q 407 163 425 138 q 423 213 410 178 q 458 300 436 247 q 488 383 478 347 q 497 446 499 419 q 450 540 494 506 q 465 638 446 583 l 499 726 l 419 751 q 370 776 389 761 q 343 806 351 790 q 458 835 369 828 q 575 860 549 843 l 642 965 q 719 1061 678 1022 q 728 1064 725 1064 q 758 1040 732 1064 q 760 1027 760 1035 q 761 1013 761 1019 q 729 893 761 946 q 772 899 750 889 q 770 910 772 904 q 765 921 768 915 q 760 929 763 925 q 758 938 758 933 q 827 926 799 932 q 871 914 856 921 q 940 844 925 893 q 844 800 913 817 q 763 771 775 785 q 751 774 757 774 q 713 761 744 774 q 672 756 689 751 q 561 575 646 725 q 617 401 621 499 q 590 276 614 344 q 863 336 700 336 q 1124 236 1057 336 q 1133 176 1124 194 q 1085 75 1117 144 q 1003 27 1033 44 q 961 4 972 10 q 829 -29 892 -28 m 976 586 q 922 649 946 610 q 888 717 897 689 q 974 716 933 729 q 1044 671 1015 703 q 1079 594 1072 639 q 1026 567 1053 567 q 976 586 1000 568 m 1240 674 q 1179 651 1207 646 q 1128 678 1151 656 q 1080 737 1101 703 q 1040 792 1058 771 q 1122 791 1076 799 q 1201 756 1167 783 q 1240 674 1236 728 z "},"つ":{"ha":1389,"x_min":140,"x_max":1228,"o":"m 906 115 q 883 117 892 117 q 867 118 874 117 q 833 138 839 125 q 819 131 829 139 q 807 124 810 124 l 815 142 q 842 156 821 149 q 835 158 842 161 l 824 154 l 819 164 q 842 178 836 168 q 1089 504 1046 350 q 1097 556 1097 533 q 1057 621 1097 606 q 936 617 1018 636 l 779 532 q 668 500 707 494 q 542 607 604 508 q 408 550 492 619 q 383 537 397 544 q 350 518 368 529 q 260 406 319 494 q 192 447 213 400 q 143 514 167 503 q 146 525 140 518 q 149 531 149 529 q 147 536 149 535 q 221 604 182 553 q 253 651 239 628 q 278 697 268 674 q 292 699 285 700 q 332 635 317 693 q 511 689 418 689 q 650 621 607 689 q 731 651 690 636 q 811 681 771 667 q 994 721 924 721 q 1133 679 1074 721 q 1194 622 1163 660 q 1228 506 1228 585 q 1224 468 1228 485 q 1204 433 1221 457 q 1185 396 1189 408 q 1177 367 1181 382 q 1160 347 1174 353 q 1163 335 1163 339 q 1153 319 1163 331 q 1142 303 1147 313 q 1138 285 1136 294 l 1129 293 q 1103 260 1132 278 q 1079 226 1075 240 q 976 160 1004 192 q 961 157 965 161 q 960 151 960 154 q 964 146 960 149 q 935 133 957 139 q 906 115 914 128 z "},"っ":{"ha":1389,"x_min":140,"x_max":1228,"o":"m 906 115 q 883 117 892 117 q 867 118 874 117 q 833 138 839 125 q 819 131 829 139 q 807 124 810 124 l 815 142 q 842 156 821 149 q 835 158 842 161 l 824 154 l 819 164 q 842 178 836 168 q 1089 504 1046 350 q 1097 556 1097 533 q 1057 621 1097 606 q 936 617 1018 636 l 779 532 q 668 500 707 494 q 542 607 604 508 q 408 550 492 619 q 383 537 397 544 q 350 518 368 529 q 260 406 319 494 q 192 447 213 400 q 143 514 167 503 q 146 525 140 518 q 149 531 149 529 q 147 536 149 535 q 221 604 182 553 q 253 651 239 628 q 278 697 268 674 q 292 699 285 700 q 332 635 317 693 q 511 689 418 689 q 650 621 607 689 q 731 651 690 636 q 811 681 771 667 q 994 721 924 721 q 1133 679 1074 721 q 1194 622 1163 660 q 1228 506 1228 585 q 1224 468 1228 485 q 1204 433 1221 457 q 1185 396 1189 408 q 1177 367 1181 382 q 1160 347 1174 353 q 1163 335 1163 339 q 1153 319 1163 331 q 1142 303 1147 313 q 1138 285 1136 294 l 1129 293 q 1103 260 1132 278 q 1079 226 1075 240 q 976 160 1004 192 q 961 157 965 161 q 960 151 960 154 q 964 146 960 149 q 935 133 957 139 q 906 115 914 128 z "},"づ":{"ha":1389,"x_min":140,"x_max":1271,"o":"m 906 115 q 883 117 892 117 q 867 118 874 117 q 833 138 839 125 q 819 131 829 139 q 807 124 810 124 l 815 142 q 842 156 821 149 q 835 158 842 161 l 824 154 l 819 164 q 842 178 836 168 q 1089 504 1046 350 q 1097 556 1097 533 q 1057 621 1097 606 q 936 617 1018 636 l 779 532 q 668 500 707 494 q 542 607 604 508 q 408 550 492 619 q 383 537 397 544 q 350 518 368 529 q 260 406 319 494 q 192 447 213 400 q 143 514 167 503 q 146 525 140 518 q 149 531 149 529 q 147 536 149 535 q 221 604 182 553 q 253 651 239 628 q 278 697 268 674 q 292 699 285 700 q 332 635 317 693 q 511 689 418 689 q 650 621 607 689 q 731 651 690 636 q 811 681 771 667 q 994 721 924 721 q 1133 679 1074 721 q 1194 622 1163 660 q 1228 506 1228 585 q 1224 468 1228 485 q 1204 433 1221 457 q 1185 396 1189 408 q 1177 367 1181 382 q 1160 347 1174 353 q 1163 335 1163 339 q 1153 319 1163 331 q 1142 303 1147 313 q 1138 285 1136 294 l 1129 293 q 1103 260 1132 278 q 1079 226 1075 240 q 976 160 1004 192 q 961 157 965 161 q 960 151 960 154 q 964 146 960 149 q 935 133 957 139 q 906 115 914 128 m 1007 817 q 952 880 976 840 q 918 947 928 919 q 1005 947 964 960 q 1074 901 1046 933 q 1110 825 1103 869 q 1057 798 1083 797 q 1007 817 1031 799 m 1271 904 q 1210 881 1238 876 q 1158 908 1182 886 q 1110 967 1132 933 q 1071 1022 1089 1001 q 1152 1022 1107 1029 q 1232 986 1197 1014 q 1271 904 1267 958 z "},"て":{"ha":1389,"x_min":236,"x_max":1139,"o":"m 889 0 q 718 65 785 15 q 647 218 636 128 q 676 300 649 239 q 694 386 700 353 q 667 444 693 406 q 639 501 643 483 q 637 515 638 508 q 636 529 636 522 q 676 642 636 581 l 740 739 q 579 710 686 742 q 421 683 475 679 q 381 692 403 685 q 336 713 360 700 q 283 740 304 731 q 253 753 263 750 q 251 762 253 757 q 246 771 249 767 q 239 783 242 778 q 239 794 236 789 q 626 844 428 810 q 1033 933 825 879 q 1053 923 1039 931 q 1090 904 1067 915 q 1139 868 1128 886 q 1128 838 1139 853 q 1117 813 1118 824 q 838 706 939 785 q 772 632 803 679 q 733 531 733 576 q 734 521 733 525 q 736 511 735 517 q 769 465 740 493 q 810 414 801 433 q 819 364 819 393 q 815 323 819 346 q 800 269 810 300 q 772 176 776 197 q 795 164 775 174 q 851 136 815 154 q 921 85 901 114 q 929 61 929 75 q 915 31 929 47 q 889 0 901 14 z "},"で":{"ha":1389,"x_min":214,"x_max":1292,"o":"m 867 0 q 696 65 763 15 q 625 218 614 128 q 654 300 626 239 q 672 386 678 353 q 644 444 671 406 q 617 501 621 483 q 615 515 615 508 q 614 529 614 522 q 654 642 614 581 l 718 739 q 557 710 664 742 q 399 683 453 679 q 359 692 381 685 q 314 713 338 700 q 261 740 282 731 q 231 753 240 750 q 228 762 231 757 q 224 771 226 767 q 217 783 219 778 q 217 794 214 789 q 604 844 406 810 q 1011 933 803 879 q 1031 923 1017 931 q 1068 904 1044 915 q 1117 868 1106 886 q 1106 838 1117 853 q 1094 813 1096 824 q 815 706 917 785 q 750 632 781 679 q 711 531 711 576 q 712 521 711 525 q 714 511 713 517 q 747 465 718 493 q 788 414 779 433 q 797 364 797 393 q 792 323 797 346 q 778 269 788 300 q 750 176 754 197 q 773 164 753 174 q 829 136 793 154 q 899 85 879 114 q 907 61 907 75 q 893 31 907 47 q 867 0 879 14 m 1028 485 q 973 548 997 508 q 939 615 949 588 q 1026 615 985 628 q 1095 569 1067 601 q 1131 493 1124 538 q 1078 466 1104 465 q 1028 485 1051 467 m 1292 572 q 1231 549 1258 544 q 1179 576 1203 554 q 1131 635 1153 601 q 1092 690 1110 669 q 1173 690 1128 697 q 1253 654 1218 682 q 1292 572 1288 626 z "},"と":{"ha":1389,"x_min":163,"x_max":1261,"o":"m 772 433 q 694 471 719 433 q 656 581 664 518 q 719 600 678 600 q 760 590 746 600 q 1103 835 1004 697 q 1021 851 1068 851 q 896 807 944 851 q 860 685 842 757 q 822 672 839 672 q 764 715 794 672 q 710 774 729 765 q 715 796 715 781 q 712 831 715 806 q 708 871 708 856 q 708 883 708 878 q 710 894 708 889 q 736 900 722 900 q 815 844 774 900 q 1081 917 940 918 q 1224 858 1182 915 q 1258 785 1258 811 q 1201 707 1261 740 q 1140 669 1163 683 q 1114 650 1118 656 q 1079 654 1101 656 q 1072 636 1074 653 q 974 590 1033 618 q 833 525 914 563 q 851 499 836 514 q 868 467 867 483 q 772 433 829 433 m 506 301 q 494 319 497 306 q 481 336 492 333 q 478 332 478 336 q 478 325 479 326 q 467 322 475 321 l 417 408 q 399 460 403 432 q 396 521 394 489 q 421 521 407 519 q 431 576 428 547 q 431 636 433 606 q 368 557 408 622 q 297 475 329 494 l 297 446 q 288 436 296 439 q 276 446 281 433 q 272 426 275 446 q 213 476 242 436 q 163 535 178 525 l 197 644 q 267 721 222 701 q 326 644 321 692 q 381 676 350 653 q 431 714 421 708 l 443 892 q 451 985 446 943 q 467 1063 457 1028 q 565 875 565 1017 q 561 814 565 847 l 664 865 q 556 774 625 822 l 549 708 q 542 673 547 690 q 531 640 538 656 q 526 510 540 547 q 532 501 525 506 q 536 496 536 497 q 531 451 531 475 q 535 415 531 436 q 546 365 539 393 q 543 364 546 365 q 531 359 539 364 q 526 342 524 354 q 522 336 525 336 q 519 338 522 336 q 513 341 517 339 q 506 342 508 343 q 506 301 515 324 m 839 -68 q 821 -67 832 -69 q 819 -67 819 -67 q 726 -1 775 -51 q 671 93 676 49 q 681 165 667 119 q 692 208 688 189 q 694 238 696 226 q 631 342 633 301 q 642 344 636 343 q 654 344 649 344 q 738 319 694 344 q 804 257 781 293 q 806 246 806 251 q 806 233 806 240 q 803 208 806 225 q 799 164 801 190 q 794 72 793 113 q 875 38 826 64 q 924 14 903 24 q 960 -1 946 4 q 939 -7 956 -6 q 944 -26 939 -17 q 953 -24 950 -24 q 967 -38 963 -24 q 969 -61 972 -53 q 944 -67 953 -47 q 819 -43 876 -75 q 817 -47 817 -46 q 827 -56 817 -51 q 844 -57 838 -60 q 839 -68 849 -67 z "},"ど":{"ha":1389,"x_min":163,"x_max":1318,"o":"m 772 411 q 694 449 719 411 q 656 558 664 496 q 719 578 678 578 q 760 568 746 578 q 1103 813 1004 675 q 1021 829 1068 829 q 896 785 944 829 q 860 663 842 735 q 822 650 839 650 q 764 693 794 650 q 710 751 729 743 q 715 774 715 758 q 712 808 715 783 q 708 849 708 833 q 708 861 708 856 q 710 872 708 867 q 736 878 722 878 q 815 822 774 878 q 1081 894 940 896 q 1224 836 1182 893 q 1258 763 1258 789 q 1201 685 1261 718 q 1140 647 1163 661 q 1114 628 1118 633 q 1079 632 1101 633 q 1072 614 1074 631 q 974 568 1033 596 q 833 503 914 540 q 851 476 836 492 q 868 444 867 461 q 772 411 829 411 m 506 279 q 494 297 497 283 q 481 314 492 311 q 478 310 478 314 q 478 303 479 304 q 467 300 475 299 l 417 386 q 399 438 403 410 q 396 499 394 467 q 421 499 407 497 q 431 554 428 525 q 431 614 433 583 q 368 535 408 600 q 297 453 329 472 l 297 424 q 288 414 296 417 q 276 424 281 411 q 272 404 275 424 q 213 454 242 414 q 163 513 178 503 l 197 622 q 267 699 222 679 q 326 622 321 669 q 381 654 350 631 q 431 692 421 686 l 443 869 q 451 963 446 919 q 467 1040 457 1006 q 565 853 565 994 q 561 792 565 825 l 664 843 q 556 751 625 800 l 549 686 q 542 651 547 668 q 531 618 538 633 q 526 488 540 525 q 532 479 525 483 q 536 474 536 475 q 531 429 531 453 q 535 392 531 414 q 546 343 539 371 q 543 342 546 343 q 531 337 539 342 q 526 319 524 332 q 522 314 525 314 q 519 315 522 314 q 513 319 517 317 q 506 319 508 321 q 506 279 515 301 m 839 -90 q 821 -89 832 -92 q 819 -89 819 -89 q 726 -24 775 -74 q 671 71 676 26 q 681 143 667 97 q 692 185 688 167 q 694 215 696 204 q 631 319 633 279 q 642 322 636 321 q 654 322 649 322 q 738 297 694 322 q 804 235 781 271 q 806 224 806 229 q 806 211 806 218 q 803 185 806 203 q 799 142 801 168 q 794 50 793 90 q 875 15 826 42 q 924 -8 903 1 q 960 -24 946 -18 q 939 -29 956 -28 q 944 -49 939 -39 q 953 -46 950 -46 q 967 -60 963 -46 q 969 -83 972 -75 q 944 -89 953 -69 q 819 -65 876 -97 q 817 -69 817 -68 q 827 -78 817 -74 q 844 -79 838 -82 q 839 -90 849 -89 m 1010 964 q 955 1027 979 988 q 921 1094 931 1067 q 1008 1094 967 1107 q 1077 1049 1049 1081 q 1113 972 1106 1017 q 1060 945 1086 944 q 1010 964 1033 946 m 1318 1018 q 1257 995 1285 990 q 1206 1022 1229 1000 q 1158 1081 1179 1047 q 1118 1136 1136 1115 q 1199 1135 1154 1143 q 1279 1100 1244 1128 q 1318 1018 1314 1072 z "},"な":{"ha":1389,"x_min":242,"x_max":1225,"o":"m 585 -3 q 540 1 564 -3 q 483 24 518 6 q 429 42 451 42 q 409 28 421 39 q 389 14 397 17 q 242 172 242 51 q 250 225 242 199 q 282 221 267 218 q 301 204 286 224 q 331 185 315 188 q 411 219 360 181 q 488 261 463 258 q 489 257 489 260 q 475 242 489 251 q 461 225 461 233 q 481 182 458 204 q 501 149 504 160 q 494 132 500 140 q 476 113 488 124 l 438 76 q 532 46 478 46 q 700 124 625 46 q 776 297 776 201 q 776 314 776 306 q 774 332 775 322 q 615 401 725 401 q 576 399 597 401 q 532 394 556 397 q 482 507 482 428 q 506 654 482 549 q 477 649 492 651 q 447 647 463 647 q 268 744 336 647 q 409 763 338 751 q 554 789 481 774 l 604 904 q 675 1031 643 992 q 747 1018 693 1032 q 765 919 763 999 q 783 847 765 871 q 878 825 828 847 q 938 758 938 799 q 922 722 938 742 q 781 708 851 715 q 653 678 711 701 q 590 521 601 599 q 626 507 604 508 q 663 503 663 503 q 833 399 765 476 q 901 226 903 319 q 860 94 900 160 q 824 70 846 85 q 774 36 801 56 q 739 32 761 38 q 725 22 739 29 q 714 17 719 19 q 707 10 708 14 q 683 8 697 10 q 649 3 668 6 q 613 -1 629 0 q 585 -3 597 -3 m 1172 126 q 1067 239 1110 158 q 1011 339 1031 304 q 989 378 992 374 q 1006 384 993 383 q 1021 390 1018 385 q 1225 168 1225 319 q 1224 151 1225 160 q 1222 135 1224 143 q 1201 126 1218 125 q 1172 126 1181 131 m 703 815 q 746 829 731 814 q 729 861 746 860 q 717 844 724 856 q 703 815 710 833 z "},"に":{"ha":1389,"x_min":442,"x_max":1029,"o":"m 735 29 q 669 41 707 36 q 583 49 631 46 q 551 70 569 60 q 514 88 533 81 l 469 153 q 442 224 442 193 q 465 279 442 253 q 574 296 531 290 q 636 301 617 301 q 739 289 688 301 q 763 417 754 350 q 769 556 771 483 q 761 694 768 621 q 739 849 754 768 q 592 671 629 771 q 566 656 579 668 q 543 642 553 643 q 488 669 524 638 q 446 721 453 700 q 442 756 442 736 q 447 806 442 778 q 461 868 451 833 q 478 917 469 896 q 494 951 488 938 q 526 910 525 914 q 543 853 543 883 q 578 871 554 856 q 639 913 601 886 q 749 947 699 954 q 822 897 782 943 q 863 814 860 856 q 865 774 863 804 q 874 692 868 743 q 882 607 879 644 q 885 543 885 569 q 872 451 885 483 q 881 431 879 446 q 881 413 882 424 q 878 396 879 403 q 878 393 878 393 q 876 326 879 361 q 867 254 874 292 q 906 229 879 242 q 951 208 928 219 q 996 171 975 197 l 1029 128 q 1025 119 1029 124 q 1015 108 1021 114 q 1005 99 1010 104 q 1000 88 1000 93 q 832 157 910 79 q 735 29 815 83 m 642 136 q 710 192 704 135 q 644 200 667 200 q 583 167 594 200 q 642 136 601 139 z "},"ぬ":{"ha":1389,"x_min":149,"x_max":1269,"o":"m 986 29 q 890 58 936 29 q 867 53 881 57 q 836 44 854 50 q 829 53 836 47 q 821 64 825 58 q 817 76 817 69 q 918 90 835 99 q 953 106 924 93 q 1035 142 982 119 q 1135 211 1108 174 q 1106 215 1121 214 q 1076 217 1092 217 q 829 136 939 217 q 829 136 829 136 q 829 136 829 136 q 824 138 829 136 q 811 142 817 140 q 697 72 785 121 q 664 64 683 64 q 564 97 633 64 q 457 128 496 131 q 439 122 450 128 q 419 117 428 117 q 407 118 411 117 q 188 49 288 49 q 174 49 181 49 q 161 50 168 49 q 149 88 149 69 q 163 128 149 106 l 185 164 q 261 188 221 164 l 332 229 q 408 262 363 243 q 513 303 453 281 q 697 376 639 350 q 667 386 690 382 q 636 396 643 390 q 629 438 629 419 q 660 510 629 481 q 646 504 654 510 q 638 498 642 500 q 626 497 633 496 q 701 571 646 544 q 815 596 753 597 q 946 551 897 593 q 978 599 958 571 q 1024 663 997 626 q 1028 713 1028 690 q 883 853 1028 853 q 715 806 824 853 q 701 751 713 779 q 672 692 690 724 q 622 585 632 617 q 600 581 614 579 l 596 547 q 572 529 590 535 q 581 525 575 524 q 539 442 554 500 q 550 438 549 443 q 579 460 565 444 q 597 480 590 474 q 604 488 603 486 q 613 469 603 483 q 614 468 614 468 q 588 404 606 460 q 543 367 578 369 q 510 377 529 367 q 479 388 492 388 q 478 388 479 388 q 465 385 474 388 q 431 368 456 383 q 388 358 413 356 q 374 340 386 353 q 364 343 368 343 q 333 333 354 343 q 309 324 319 328 q 292 319 299 321 q 239 325 261 314 q 232 322 233 325 q 235 314 233 324 q 226 313 232 311 q 190 418 190 365 q 369 682 193 535 q 371 697 371 689 q 371 715 371 706 q 367 793 371 739 q 363 875 363 850 q 396 972 364 944 q 420 924 407 949 q 444 876 433 900 q 464 820 458 847 q 469 768 469 793 q 539 813 501 792 q 618 857 576 835 q 628 896 625 869 q 633 961 632 922 q 656 1060 635 1035 q 722 933 722 989 q 722 922 722 928 q 719 908 721 915 l 808 925 q 908 931 867 935 q 1115 815 1019 919 q 1120 777 1118 796 q 1135 746 1122 758 l 1107 603 q 1079 564 1093 590 q 1051 497 1065 538 q 1038 492 1043 497 q 1028 486 1032 486 q 1019 488 1024 486 q 1019 453 1015 475 q 1024 414 1024 424 q 983 399 1007 415 q 950 382 961 385 q 917 396 944 396 q 876 376 879 396 q 668 314 779 353 q 433 219 557 275 l 454 219 q 483 213 467 219 q 519 197 500 207 q 555 183 539 188 q 581 178 571 179 q 722 226 626 175 q 871 275 821 279 q 881 284 876 275 q 890 294 885 293 q 901 292 894 293 q 918 289 908 290 q 940 300 919 297 q 950 307 947 300 q 986 309 969 308 q 1018 310 1003 310 q 1269 193 1222 310 q 1264 172 1264 189 l 1264 149 q 1258 136 1261 139 q 1218 117 1251 133 q 1124 71 1185 101 q 986 29 1043 29 m 286 376 q 424 479 351 388 q 408 520 418 497 q 388 571 399 543 q 286 376 290 494 m 483 543 q 502 563 494 544 q 525 585 510 581 q 556 664 521 611 q 588 743 590 718 q 481 646 500 696 q 483 543 464 600 m 733 446 q 863 488 815 440 q 814 494 835 494 q 733 446 740 494 z "},"ね":{"ha":1389,"x_min":99,"x_max":1324,"o":"m 486 -37 q 385 71 426 -37 q 404 114 404 86 q 385 178 404 151 q 400 253 408 206 q 346 156 381 231 q 282 60 314 86 q 203 169 199 111 q 222 210 203 188 l 253 243 q 286 295 268 264 q 326 367 304 326 l 389 483 q 344 469 382 483 q 282 457 306 457 q 224 463 251 457 q 171 479 196 469 q 99 543 115 504 q 289 589 193 547 q 369 627 329 608 q 449 665 410 646 q 522 647 486 647 q 565 711 546 664 q 569 703 569 710 q 557 676 569 693 q 575 692 571 676 q 583 708 579 708 q 590 706 585 708 q 588 728 597 722 q 615 763 599 742 q 650 813 631 783 q 638 802 644 807 q 624 793 632 797 q 661 824 640 829 q 660 833 660 828 q 677 860 660 844 q 700 888 694 875 q 696 897 696 892 q 750 969 696 913 q 808 1056 804 1025 q 931 985 921 1056 q 896 917 910 960 q 856 853 881 876 q 857 846 858 849 q 856 844 857 844 q 842 843 850 842 q 863 833 844 832 q 833 804 853 828 q 803 779 817 781 q 817 769 803 771 q 763 686 782 751 q 891 735 828 706 q 1014 808 954 765 q 1044 795 1029 801 q 1072 782 1058 789 q 1117 740 1106 767 q 1074 690 1103 728 q 1005 626 1026 669 q 985 514 983 582 q 986 427 986 478 q 989 311 986 376 q 1004 297 994 310 q 1008 244 1008 283 q 1004 199 1008 207 q 989 199 990 204 q 1001 158 1001 181 q 985 90 1001 135 q 997 65 997 85 q 981 1 997 43 q 949 -8 971 -8 q 833 42 879 -8 q 783 125 815 63 q 733 185 761 174 q 678 143 717 143 q 621 169 647 143 q 606 192 615 179 q 582 224 596 206 q 561 274 561 244 q 576 332 561 297 q 593 336 588 336 q 636 292 611 336 l 692 338 q 754 375 725 365 q 738 338 746 361 q 719 282 729 314 q 768 185 718 225 q 872 135 797 164 q 886 144 874 136 q 890 379 892 228 q 886 640 886 638 q 792 571 858 614 q 690 547 733 540 q 636 604 636 558 q 640 635 636 618 q 651 674 643 651 l 679 744 q 690 765 689 747 q 718 825 692 778 q 744 883 742 869 l 632 758 q 583 678 597 719 q 565 597 568 638 q 535 514 547 558 q 517 418 522 469 l 497 224 q 506 201 503 219 q 513 178 508 182 q 497 169 511 169 q 507 126 503 150 q 513 71 511 101 q 517 12 515 36 q 522 -28 519 -12 q 486 -37 504 -37 m 360 833 q 358 839 358 836 q 357 844 357 842 q 385 892 357 853 q 366 904 381 894 q 325 928 351 914 q 278 976 289 949 q 305 982 288 979 q 349 988 322 985 q 429 1000 404 994 q 464 1019 440 1008 q 474 1022 469 1021 q 485 1022 479 1022 q 565 997 526 1022 q 604 942 604 975 q 601 926 604 938 l 519 897 q 463 885 490 888 q 410 883 436 882 l 360 833 m 1300 178 q 1250 185 1278 196 q 1181 253 1207 203 q 1160 305 1171 279 q 1138 357 1149 331 q 1129 369 1136 360 q 1111 396 1122 379 q 1099 435 1094 417 q 1246 381 1175 435 q 1324 249 1324 324 q 1300 178 1324 213 z "},"の":{"ha":1389,"x_min":276,"x_max":1092,"o":"m 782 11 q 701 65 758 35 q 701 83 686 81 q 743 93 721 86 q 792 110 765 100 q 796 106 796 108 q 789 101 796 104 q 782 96 782 99 q 824 122 801 97 q 840 145 832 133 q 858 168 849 157 q 974 346 974 238 q 955 418 974 383 q 893 479 936 453 l 751 567 q 783 726 744 636 q 816 815 806 778 q 828 876 826 853 q 726 840 794 875 q 625 794 651 801 q 682 731 667 756 q 706 633 707 688 l 669 589 q 643 535 650 563 q 630 531 636 535 q 621 526 624 526 q 599 479 613 513 q 563 392 585 446 q 536 365 554 368 q 513 292 539 336 q 486 226 489 247 l 469 226 q 474 215 474 222 q 463 188 474 208 q 453 157 453 168 q 453 151 453 154 q 456 146 454 149 q 438 107 443 140 q 424 56 431 67 q 401 59 408 58 q 393 60 393 60 q 358 121 382 75 q 321 172 339 158 q 325 281 332 251 q 345 272 335 281 q 361 263 356 264 q 499 514 431 357 q 585 709 556 642 q 617 782 614 776 q 576 765 606 779 q 500 726 547 751 q 371 685 419 685 q 276 738 314 685 q 299 758 281 747 q 321 782 318 769 q 435 831 378 806 q 549 881 492 857 q 677 926 618 910 q 788 947 736 942 q 835 951 818 950 q 858 953 853 953 q 957 917 914 953 q 960 894 958 907 q 967 867 963 882 q 897 720 926 785 q 850 611 868 656 l 1003 506 q 1088 347 1079 442 q 1088 347 1088 347 q 1088 347 1088 347 q 1085 336 1086 350 q 1092 325 1085 328 q 1083 284 1088 307 q 1074 231 1079 261 q 1060 231 1071 233 q 1062 221 1061 225 q 1063 213 1063 217 q 1044 174 1063 192 q 1026 150 1026 157 q 1029 142 1026 147 q 1014 128 1024 142 q 993 114 1004 115 q 993 111 993 113 q 1001 106 994 107 l 942 58 q 886 33 911 33 l 847 19 q 782 11 818 14 z "},"は":{"ha":1389,"x_min":239,"x_max":1221,"o":"m 1178 -19 q 1092 8 1133 -15 q 1029 63 1069 24 q 994 97 1010 82 q 964 121 978 111 q 733 7 858 8 q 618 38 672 6 q 569 82 603 54 q 538 94 554 88 q 517 115 522 101 q 510 183 518 147 q 522 192 515 182 q 531 199 528 199 q 546 160 536 183 q 569 107 556 138 q 638 93 599 93 q 757 124 696 93 q 847 188 814 151 q 772 231 801 215 q 731 253 743 247 q 601 285 660 285 q 557 281 581 285 q 569 314 551 292 q 692 333 624 333 q 921 281 822 333 q 947 323 935 290 q 958 388 958 356 q 944 435 958 421 q 881 408 915 439 q 826 382 849 379 q 793 413 808 383 q 764 460 774 450 q 799 593 788 538 q 808 681 810 649 q 699 575 751 658 q 608 449 635 471 q 519 567 519 474 q 522 589 519 575 q 531 622 525 603 q 488 483 501 586 q 478 394 482 450 q 472 261 475 339 q 460 179 469 231 q 447 103 450 128 l 447 47 q 422 10 447 24 q 388 1 406 1 q 276 67 342 1 q 239 444 239 269 q 243 560 239 506 q 268 686 254 603 q 268 739 267 704 q 288 784 278 757 q 313 846 299 811 q 321 994 325 896 q 457 822 457 915 q 433 758 457 789 q 410 751 425 756 q 375 744 396 747 q 326 729 339 738 q 333 697 328 718 q 350 644 339 676 q 364 556 368 593 q 356 524 363 540 q 340 490 350 508 q 322 463 331 476 q 306 435 314 449 q 342 203 307 311 q 377 287 356 231 q 428 428 399 343 q 487 610 463 528 q 525 758 511 693 q 540 760 532 760 q 557 761 549 761 q 663 700 642 761 q 738 743 696 711 q 777 772 760 761 q 808 788 794 782 q 817 983 815 819 q 818 1028 817 1007 q 822 1068 819 1049 q 901 1039 847 1056 q 950 986 921 1003 q 946 974 946 981 q 960 951 946 971 q 962 940 961 946 q 963 929 963 935 q 961 918 963 925 q 957 901 960 911 q 951 870 954 888 q 950 840 949 853 q 1050 849 1011 849 q 1178 811 1140 849 q 1175 799 1175 803 q 1182 783 1175 793 q 1190 774 1188 778 q 1193 768 1192 769 q 1149 681 1194 725 q 1115 653 1139 671 q 1054 607 1092 635 q 925 553 979 553 q 910 553 918 553 q 896 556 903 554 q 949 521 908 529 q 1013 497 997 513 q 1067 360 1067 450 q 1038 228 1067 294 q 1065 200 1047 217 q 1111 161 1083 183 q 1188 92 1168 117 q 1218 0 1221 49 q 1178 -19 1213 0 m 925 651 q 1013 690 988 672 q 1061 768 1053 719 q 1035 775 1050 775 q 988 767 1019 775 q 946 757 947 758 q 922 675 922 713 q 923 663 922 669 q 925 651 924 657 z "},"ば":{"ha":1389,"x_min":225,"x_max":1349,"o":"m 1164 -31 q 1078 -3 1119 -26 q 1015 51 1056 13 q 980 85 996 71 q 950 110 964 100 q 719 -4 844 -3 q 604 26 658 -6 q 556 71 589 43 q 524 83 540 76 q 503 104 508 90 q 496 172 504 136 q 508 181 501 171 q 517 188 514 188 q 532 149 522 172 q 556 96 542 126 q 624 82 585 82 q 743 113 682 82 q 833 176 800 140 q 758 220 788 204 q 717 242 729 236 q 588 274 646 274 q 543 269 567 274 q 556 303 538 281 q 678 322 610 322 q 907 269 808 322 q 933 312 921 279 q 944 376 944 344 q 931 424 944 410 q 867 397 901 428 q 813 371 835 368 q 779 401 794 372 q 750 449 760 439 q 785 582 774 526 q 794 669 796 638 q 685 564 738 647 q 594 438 621 460 q 506 556 506 463 q 508 578 506 564 q 517 611 511 592 q 474 472 488 575 q 465 383 468 439 q 458 250 461 328 q 446 168 456 219 q 433 92 436 117 l 433 36 q 408 -1 433 13 q 374 -10 392 -10 q 263 56 328 -10 q 225 433 225 258 q 229 549 225 494 q 254 675 240 592 q 254 728 253 693 q 274 773 264 746 q 299 835 285 800 q 307 983 311 885 q 443 811 443 904 q 419 747 443 778 q 397 740 411 744 q 361 733 382 736 q 313 718 325 726 q 319 686 314 707 q 336 633 325 665 q 350 544 354 582 q 342 513 349 529 q 326 479 336 497 q 308 451 317 465 q 292 424 300 438 q 328 192 293 300 q 363 276 342 219 q 414 417 385 332 q 473 599 449 517 q 511 747 497 682 q 526 749 518 749 q 543 750 535 750 q 649 689 628 750 q 724 732 682 700 q 763 760 746 750 q 794 776 781 771 q 803 972 801 808 q 804 1017 803 996 q 808 1057 806 1038 q 888 1028 833 1044 q 936 975 907 992 q 932 963 932 969 q 946 940 932 960 q 948 929 947 935 q 949 918 949 924 q 947 907 949 914 q 943 890 946 900 q 938 859 940 876 q 936 829 935 842 q 1036 838 997 838 q 1164 800 1126 838 q 1161 788 1161 792 q 1168 772 1161 782 q 1176 763 1174 767 q 1179 757 1178 758 q 1135 669 1181 714 q 1101 642 1125 660 q 1040 596 1078 624 q 911 542 965 542 q 897 542 904 542 q 882 544 889 543 q 935 510 894 518 q 999 486 983 501 q 1053 349 1053 439 q 1024 217 1053 283 q 1051 189 1033 206 q 1097 150 1069 172 q 1174 81 1154 106 q 1204 -11 1207 38 q 1164 -31 1199 -11 m 1085 904 q 1030 967 1054 928 q 996 1035 1006 1007 q 1083 1034 1042 1047 q 1152 989 1124 1021 q 1188 913 1181 957 q 1135 885 1161 885 q 1085 904 1108 886 m 1349 992 q 1288 969 1315 964 q 1236 996 1260 974 q 1188 1055 1210 1021 q 1149 1110 1167 1089 q 1230 1109 1185 1117 q 1310 1074 1275 1101 q 1349 992 1344 1046 m 911 640 q 999 679 974 661 q 1047 757 1039 708 q 1021 764 1036 764 q 974 756 1006 764 q 932 746 933 747 q 908 664 908 701 q 909 652 908 658 q 911 640 910 646 z "},"ぱ":{"ha":1389,"x_min":239,"x_max":1356,"o":"m 1178 -19 q 1092 8 1133 -15 q 1029 63 1069 24 q 994 97 1010 82 q 964 121 978 111 q 733 7 858 8 q 618 38 672 6 q 569 82 603 54 q 538 94 554 88 q 517 115 522 101 q 510 183 518 147 q 522 192 515 182 q 531 199 528 199 q 546 160 536 183 q 569 107 556 138 q 638 93 599 93 q 757 124 696 93 q 847 188 814 151 q 772 231 801 215 q 731 253 743 247 q 601 285 660 285 q 557 281 581 285 q 569 314 551 292 q 692 333 624 333 q 921 281 822 333 q 947 323 935 290 q 958 388 958 356 q 944 435 958 421 q 881 408 915 439 q 826 382 849 379 q 793 413 808 383 q 764 460 774 450 q 799 593 788 538 q 808 681 810 649 q 699 575 751 658 q 608 449 635 471 q 519 567 519 474 q 522 589 519 575 q 531 622 525 603 q 488 483 501 586 q 478 394 482 450 q 472 261 475 339 q 460 179 469 231 q 447 103 450 128 l 447 47 q 422 10 447 24 q 388 1 406 1 q 276 67 342 1 q 239 444 239 269 q 243 560 239 506 q 268 686 254 603 q 268 739 267 704 q 288 784 278 757 q 313 846 299 811 q 321 994 325 896 q 457 822 457 915 q 433 758 457 789 q 410 751 425 756 q 375 744 396 747 q 326 729 339 738 q 333 697 328 718 q 350 644 339 676 q 364 556 368 593 q 356 524 363 540 q 340 490 350 508 q 322 463 331 476 q 306 435 314 449 q 342 203 307 311 q 377 287 356 231 q 428 428 399 343 q 487 610 463 528 q 525 758 511 693 q 540 760 532 760 q 557 761 549 761 q 663 700 642 761 q 738 743 696 711 q 777 772 760 761 q 808 788 794 782 q 817 983 815 819 q 818 1028 817 1007 q 822 1068 819 1049 q 901 1039 847 1056 q 950 986 921 1003 q 946 974 946 981 q 960 951 946 971 q 962 940 961 946 q 963 929 963 935 q 961 918 963 925 q 957 901 960 911 q 951 870 954 888 q 950 840 949 853 q 1050 849 1011 849 q 1178 811 1140 849 q 1175 799 1175 803 q 1182 783 1175 793 q 1190 774 1188 778 q 1193 768 1192 769 q 1149 681 1194 725 q 1115 653 1139 671 q 1054 607 1092 635 q 925 553 979 553 q 910 553 918 553 q 896 556 903 554 q 949 521 908 529 q 1013 497 997 513 q 1067 360 1067 450 q 1038 228 1067 294 q 1065 200 1047 217 q 1111 161 1083 183 q 1188 92 1168 117 q 1218 0 1221 49 q 1178 -19 1213 0 m 1233 857 q 1131 909 1172 874 q 1092 1004 1089 944 q 1139 1083 1103 1058 q 1217 1108 1175 1108 q 1288 1088 1254 1108 q 1338 1030 1321 1068 q 1343 938 1356 992 q 1331 916 1339 922 q 1315 889 1322 910 q 1269 885 1294 897 q 1233 857 1244 872 m 925 651 q 1013 690 988 672 q 1061 768 1053 719 q 1035 775 1050 775 q 988 767 1019 775 q 946 757 947 758 q 922 675 922 713 q 923 663 922 669 q 925 651 924 657 m 1250 950 q 1266 975 1261 958 q 1260 1014 1271 992 q 1230 1026 1246 1025 q 1203 1021 1214 1028 q 1185 999 1192 1015 q 1185 960 1179 983 q 1217 941 1199 942 q 1250 950 1236 940 z "},"ひ":{"ha":1389,"x_min":271,"x_max":1189,"o":"m 407 18 q 344 47 389 10 q 290 119 300 88 q 278 217 278 160 q 279 262 278 232 q 281 306 281 292 q 271 381 281 353 q 299 667 282 550 q 329 853 315 785 l 340 906 q 368 935 347 925 q 422 824 419 917 q 508 843 449 822 q 487 863 499 853 q 474 886 475 872 l 603 865 q 706 785 688 851 q 506 722 610 722 q 464 724 485 722 q 422 732 443 726 q 375 331 375 526 q 377 244 375 290 q 382 149 379 199 q 435 208 399 165 q 526 321 471 251 q 672 471 613 428 q 735 539 675 517 q 733 547 735 546 q 729 544 732 547 q 724 542 726 542 q 721 543 722 542 q 732 556 724 546 q 753 581 740 565 q 792 611 772 604 q 803 703 797 657 q 815 796 808 749 q 842 914 826 865 q 875 993 857 963 q 982 910 925 983 q 1092 828 1039 839 q 1111 800 1094 815 q 1131 769 1128 785 q 1127 758 1126 765 q 1125 746 1128 750 q 1018 660 1090 707 q 943 611 971 629 q 908 588 915 593 q 906 556 908 578 q 901 500 904 535 q 897 445 899 469 q 896 401 896 421 q 918 274 896 319 q 1013 264 936 264 q 1131 256 1100 261 q 1189 199 1189 242 q 1180 160 1189 181 q 1129 111 1171 140 q 1094 91 1111 100 q 1063 75 1078 82 q 1022 63 1044 68 q 974 56 1000 58 q 899 47 906 50 q 892 42 892 46 q 889 38 892 38 q 882 46 882 42 q 894 57 882 51 q 886 61 893 61 q 850 38 874 61 q 903 101 857 65 q 952 142 935 128 q 971 158 969 157 q 835 253 883 179 q 790 414 790 322 q 790 433 790 424 q 792 451 790 442 q 772 437 781 451 q 750 422 763 422 q 704 353 743 394 q 629 289 667 313 q 579 213 621 260 q 522 133 533 156 q 517 129 521 133 q 510 124 514 126 q 499 124 506 121 q 456 68 489 97 q 407 18 417 33 m 918 711 q 986 779 976 746 q 932 872 972 810 q 915 743 915 775 q 916 726 915 733 q 918 711 917 718 z "},"び":{"ha":1389,"x_min":251,"x_max":1354,"o":"m 388 -4 q 325 25 369 -12 q 271 97 281 65 q 258 194 258 138 q 260 240 258 210 q 261 283 261 269 q 251 358 261 331 q 279 645 263 528 q 310 831 296 763 l 321 883 q 349 913 328 903 q 403 801 400 894 q 489 821 429 800 q 467 840 479 831 q 454 864 456 850 l 583 843 q 686 763 668 829 q 486 700 590 700 q 444 702 465 700 q 403 710 424 704 q 356 308 356 504 q 358 222 356 268 q 363 126 360 176 q 415 186 379 143 q 507 299 451 229 q 653 449 593 406 q 715 517 656 494 q 714 525 715 524 q 710 522 713 525 q 704 519 707 519 q 701 521 703 519 q 713 533 704 524 q 733 558 721 543 q 772 589 753 582 q 783 681 778 635 q 796 774 789 726 q 822 892 807 843 q 856 971 838 940 q 963 888 906 961 q 1072 806 1019 817 q 1092 778 1075 793 q 1111 747 1108 763 q 1108 735 1107 743 q 1106 724 1108 728 q 999 638 1071 685 q 924 589 951 607 q 889 565 896 571 q 887 534 889 556 q 882 478 885 513 q 878 423 879 447 q 876 379 876 399 q 899 251 876 297 q 993 242 917 242 q 1111 233 1081 239 q 1169 176 1169 219 q 1160 138 1169 158 q 1110 89 1151 118 q 1075 69 1092 78 q 1043 53 1058 60 q 1003 41 1025 46 q 954 33 981 36 q 879 25 886 28 q 872 19 872 24 q 869 15 872 15 q 863 24 863 19 q 875 35 863 29 q 867 39 874 39 q 831 15 854 39 q 883 79 838 43 q 933 120 915 106 q 951 136 950 135 q 815 231 864 157 q 771 392 771 300 q 771 410 771 401 q 772 429 771 419 q 752 415 761 429 q 731 400 743 400 q 685 331 724 372 q 610 267 647 290 q 560 190 601 238 q 503 111 514 133 q 497 107 501 111 q 490 101 494 104 q 479 101 486 99 q 436 46 469 75 q 388 -4 397 11 m 1090 893 q 1035 956 1060 917 q 1001 1024 1011 996 q 1088 1023 1047 1036 q 1158 978 1129 1010 q 1193 901 1186 946 q 1140 874 1167 874 q 1090 893 1114 875 m 1354 981 q 1293 958 1321 953 q 1242 985 1265 963 q 1194 1044 1215 1010 q 1154 1099 1172 1078 q 1235 1098 1190 1106 q 1315 1063 1281 1090 q 1354 981 1350 1035 m 899 689 q 967 757 957 724 q 913 850 953 788 q 896 721 896 753 q 897 703 896 711 q 899 689 897 696 z "},"ぴ":{"ha":1389,"x_min":260,"x_max":1308,"o":"m 396 1 q 333 31 378 -7 q 279 103 289 71 q 267 200 267 143 q 268 245 267 215 q 269 289 269 275 q 260 364 269 336 q 288 651 271 533 q 318 836 304 768 l 329 889 q 357 918 336 908 q 411 807 408 900 q 497 826 438 806 q 476 846 488 836 q 463 869 464 856 l 592 849 q 694 768 676 835 q 494 706 599 706 q 453 708 474 706 q 411 715 432 710 q 364 314 364 510 q 366 228 364 274 q 371 132 368 182 q 424 192 388 149 q 515 304 460 235 q 661 454 601 411 q 724 522 664 500 q 722 531 724 529 q 718 528 721 531 q 713 525 715 525 q 710 526 711 525 q 721 539 713 529 q 742 564 729 549 q 781 594 761 588 q 792 686 786 640 q 804 779 797 732 q 831 897 815 849 q 864 976 846 946 q 971 893 914 967 q 1081 811 1028 822 q 1100 783 1083 799 q 1119 753 1117 768 q 1116 741 1115 749 q 1114 729 1117 733 q 1007 643 1079 690 q 932 594 960 613 q 897 571 904 576 q 895 540 897 561 q 890 483 893 518 q 886 428 888 453 q 885 385 885 404 q 907 257 885 303 q 1001 247 925 247 q 1119 239 1089 244 q 1178 182 1178 225 q 1169 144 1178 164 q 1118 94 1160 124 q 1083 74 1100 83 q 1051 58 1067 65 q 1011 47 1033 51 q 963 39 989 42 q 888 31 894 33 q 881 25 881 29 q 878 21 881 21 q 871 29 871 25 q 883 40 871 35 q 875 44 882 44 q 839 21 863 44 q 892 85 846 49 q 941 126 924 111 q 960 142 958 140 q 824 236 872 163 q 779 397 779 306 q 779 416 779 407 q 781 435 779 425 q 760 420 769 435 q 739 406 751 406 q 693 336 732 378 q 618 272 656 296 q 568 196 610 243 q 511 117 522 139 q 506 113 510 117 q 499 107 503 110 q 488 107 494 104 q 444 51 478 81 q 396 1 406 17 m 1186 838 q 1083 890 1125 854 q 1044 985 1042 925 q 1092 1064 1056 1039 q 1169 1089 1128 1089 q 1240 1069 1207 1089 q 1291 1010 1274 1049 q 1296 918 1308 972 q 1283 897 1292 903 q 1268 869 1275 890 q 1222 865 1247 878 q 1186 838 1197 853 m 907 694 q 975 763 965 729 q 921 856 961 793 q 904 726 904 758 q 905 709 904 717 q 907 694 906 701 m 1203 931 q 1219 956 1214 939 q 1213 994 1224 972 q 1183 1007 1199 1006 q 1156 1001 1167 1008 q 1138 980 1144 996 q 1138 940 1132 964 q 1170 922 1151 922 q 1203 931 1189 921 z "},"ふ":{"ha":1389,"x_min":231,"x_max":1232,"o":"m 654 -18 q 546 47 578 -18 q 522 196 521 99 q 524 239 522 211 q 528 310 525 267 q 531 367 531 343 q 529 407 531 392 q 481 361 506 385 q 449 308 457 338 q 461 318 454 322 q 449 301 456 313 q 435 272 442 290 q 422 271 429 275 q 413 268 417 268 q 379 218 404 242 q 315 190 349 190 q 308 190 313 190 q 300 192 304 190 q 303 200 299 194 q 304 206 304 204 q 292 203 293 208 l 292 196 q 274 209 279 199 q 256 219 268 219 q 233 260 235 233 q 275 319 231 296 q 336 367 328 350 q 336 349 346 367 q 444 458 389 396 q 551 599 499 519 l 735 874 q 724 878 735 881 l 708 878 q 649 858 678 868 q 589 838 619 847 q 522 821 553 826 q 465 814 492 815 q 296 886 360 811 q 508 945 393 921 q 757 985 624 969 q 801 989 782 974 q 837 967 815 979 q 888 936 858 954 q 892 868 900 893 q 829 775 863 839 q 794 709 807 732 q 779 681 782 686 q 763 660 771 671 q 747 639 754 650 q 726 586 728 611 q 690 550 690 575 q 674 540 685 546 q 650 528 664 535 q 641 418 644 481 q 636 278 638 356 q 659 299 646 282 q 686 318 672 315 q 659 260 668 294 q 654 181 650 225 l 661 108 q 665 67 664 86 q 667 35 667 49 q 663 -14 667 10 q 660 -14 661 -15 q 658 -10 658 -14 q 663 -6 658 -7 q 658 0 663 3 l 653 -4 l 650 0 q 646 -3 646 -1 q 651 -8 646 -3 q 654 -18 657 -12 m 950 115 q 999 167 981 147 q 1022 193 1017 186 q 1065 286 1065 249 q 1031 340 1065 322 q 994 358 1017 347 q 936 379 971 368 q 842 421 869 401 q 924 460 843 460 q 940 459 932 460 q 954 457 947 458 q 978 444 964 451 q 1013 429 993 438 l 1063 421 q 1232 232 1221 364 q 1214 196 1219 218 l 1188 201 q 1139 161 1186 174 q 1078 145 1099 151 q 1057 139 1057 139 q 1042 144 1053 144 q 950 115 1013 144 z "},"ぶ":{"ha":1389,"x_min":231,"x_max":1313,"o":"m 654 -18 q 546 47 578 -18 q 522 196 521 99 q 524 239 522 211 q 528 310 525 267 q 531 367 531 343 q 529 407 531 392 q 481 361 506 385 q 449 308 457 338 q 461 318 454 322 q 449 301 456 313 q 435 272 442 290 q 422 271 429 275 q 413 268 417 268 q 379 218 404 242 q 315 190 349 190 q 308 190 313 190 q 300 192 304 190 q 303 200 299 194 q 304 206 304 204 q 292 203 293 208 l 292 196 q 274 209 279 199 q 256 219 268 219 q 233 260 235 233 q 275 319 231 296 q 336 367 328 350 q 336 349 346 367 q 444 458 389 396 q 551 599 499 519 l 735 874 q 724 878 735 881 l 708 878 q 649 858 678 868 q 589 838 619 847 q 522 821 553 826 q 465 814 492 815 q 296 886 360 811 q 508 945 393 921 q 757 985 624 969 q 801 989 782 974 q 837 967 815 979 q 888 936 858 954 q 892 868 900 893 q 829 775 863 839 q 794 709 807 732 q 779 681 782 686 q 763 660 771 671 q 747 639 754 650 q 726 586 728 611 q 690 550 690 575 q 674 540 685 546 q 650 528 664 535 q 641 418 644 481 q 636 278 638 356 q 659 299 646 282 q 686 318 672 315 q 659 260 668 294 q 654 181 650 225 l 661 108 q 665 67 664 86 q 667 35 667 49 q 663 -14 667 10 q 660 -14 661 -15 q 658 -10 658 -14 q 663 -6 658 -7 q 658 0 663 3 l 653 -4 l 650 0 q 646 -3 646 -1 q 651 -8 646 -3 q 654 -18 657 -12 m 950 115 q 999 167 981 147 q 1022 193 1017 186 q 1065 286 1065 249 q 1031 340 1065 322 q 994 358 1017 347 q 936 379 971 368 q 842 421 869 401 q 924 460 843 460 q 940 459 932 460 q 954 457 947 458 q 978 444 964 451 q 1013 429 993 438 l 1063 421 q 1232 232 1221 364 q 1214 196 1219 218 l 1188 201 q 1139 161 1186 174 q 1078 145 1099 151 q 1057 139 1057 139 q 1042 144 1053 144 q 950 115 1013 144 m 1049 849 q 994 912 1018 872 q 960 979 969 951 q 1047 978 1006 992 q 1116 933 1088 965 q 1151 857 1144 901 q 1099 830 1125 829 q 1049 849 1072 831 m 1313 936 q 1251 913 1279 908 q 1200 940 1224 918 q 1152 999 1174 965 q 1113 1054 1131 1033 q 1194 1053 1149 1061 q 1274 1018 1239 1046 q 1313 936 1308 990 z "},"ぷ":{"ha":1389,"x_min":225,"x_max":1244,"o":"m 649 -29 q 540 36 572 -29 q 517 185 515 88 q 518 228 517 200 q 522 299 519 256 q 525 356 525 332 q 524 396 525 381 q 476 350 500 374 q 443 297 451 326 q 456 307 449 311 q 443 290 450 301 q 429 261 436 279 q 417 260 424 264 q 407 257 411 257 q 374 207 399 231 q 310 179 343 179 q 303 179 307 179 q 294 181 299 179 q 297 189 293 183 q 299 194 299 193 q 286 192 288 197 l 286 185 q 268 198 274 188 q 250 208 263 208 q 228 249 229 222 q 269 308 225 285 q 331 356 322 339 q 331 338 340 356 q 438 447 383 385 q 546 588 493 508 l 729 863 q 718 867 729 869 l 703 867 q 643 847 672 857 q 583 826 614 836 q 517 810 547 815 q 460 803 486 804 q 290 875 354 800 q 503 934 388 910 q 751 974 618 958 q 796 978 776 963 q 831 956 810 968 q 882 925 853 943 q 886 857 894 882 q 824 764 857 828 q 789 698 801 721 q 774 669 776 675 q 757 649 765 660 q 742 628 749 639 q 721 575 722 600 q 685 539 685 564 q 669 529 679 535 q 644 517 658 524 q 635 407 639 469 q 631 267 632 344 q 653 288 640 271 q 681 307 667 304 q 653 249 663 283 q 649 169 644 214 l 656 97 q 660 56 658 75 q 661 24 661 38 q 657 -25 661 -1 q 654 -25 656 -26 q 653 -21 653 -25 q 657 -17 653 -18 q 653 -11 657 -8 l 647 -15 l 644 -11 q 640 -14 640 -12 q 646 -19 640 -14 q 649 -29 651 -24 m 944 104 q 993 156 975 136 q 1017 182 1011 175 q 1060 275 1060 238 q 1025 329 1060 311 q 988 347 1011 336 q 931 368 965 357 q 836 410 864 390 q 918 449 838 449 q 934 448 926 449 q 949 446 942 447 q 973 433 958 440 q 1007 418 988 426 l 1057 410 q 1226 221 1215 353 q 1208 185 1214 207 l 1182 190 q 1133 150 1181 163 q 1072 134 1093 140 q 1051 128 1051 128 q 1036 133 1047 133 q 944 104 1007 133 m 1122 804 q 1019 856 1061 821 q 981 951 978 892 q 1028 1031 992 1006 q 1106 1056 1064 1056 q 1176 1035 1143 1056 q 1227 977 1210 1015 q 1232 885 1244 939 q 1219 863 1228 869 q 1204 836 1211 857 q 1158 832 1183 844 q 1122 804 1133 819 m 1139 897 q 1155 922 1150 906 q 1149 961 1160 939 q 1119 974 1135 972 q 1092 968 1103 975 q 1074 947 1081 963 q 1074 907 1068 931 q 1106 888 1088 889 q 1139 897 1125 888 z "},"へ":{"ha":1389,"x_min":204,"x_max":1163,"o":"m 824 60 q 772 61 799 60 q 714 65 744 63 q 951 190 883 143 q 1006 240 1008 231 q 957 258 1006 242 q 854 306 885 283 q 796 393 804 339 q 794 413 794 403 q 793 435 793 424 q 821 590 793 490 q 858 742 853 706 q 750 725 821 744 q 683 709 710 715 q 643 701 656 703 q 639 683 640 701 q 583 666 619 681 q 490 626 546 651 q 333 590 401 583 q 204 679 272 597 q 394 738 265 694 q 593 796 521 781 q 867 836 806 840 q 1001 738 982 829 l 974 633 q 951 585 965 604 q 921 554 938 565 q 917 497 924 539 q 908 429 908 450 q 909 414 908 421 q 911 401 910 407 q 1011 359 978 374 q 1044 344 1044 344 q 1110 305 1085 328 q 1149 258 1135 282 q 1163 214 1163 236 q 1135 153 1163 172 q 1074 128 1125 144 q 1019 93 1033 113 l 1010 97 q 824 60 958 60 z "},"べ":{"ha":1389,"x_min":190,"x_max":1296,"o":"m 810 46 q 758 47 785 46 q 700 51 731 49 q 938 176 869 129 q 992 226 994 217 q 943 244 992 228 q 840 292 871 269 q 782 379 790 325 q 780 399 781 389 q 779 421 779 410 q 807 576 779 476 q 844 728 839 692 q 736 711 807 731 q 669 695 696 701 q 629 688 642 689 q 625 669 626 688 q 569 652 606 667 q 476 613 532 638 q 319 576 388 569 q 190 665 258 583 q 381 724 251 681 q 579 782 507 767 q 853 822 792 826 q 988 724 968 815 l 960 619 q 938 571 951 590 q 907 540 924 551 q 903 483 910 525 q 894 415 894 436 q 895 400 894 407 q 897 388 896 393 q 997 345 964 360 q 1031 331 1031 331 q 1096 291 1071 314 q 1135 244 1121 268 q 1149 200 1149 222 q 1121 139 1149 158 q 1060 114 1111 131 q 1006 79 1019 99 l 996 83 q 810 46 944 46 m 1032 829 q 977 892 1001 853 q 943 960 953 932 q 1030 959 989 972 q 1099 914 1071 946 q 1135 838 1128 882 q 1082 810 1108 810 q 1032 829 1056 811 m 1296 917 q 1235 894 1263 889 q 1183 921 1207 899 q 1135 980 1157 946 q 1096 1035 1114 1014 q 1177 1034 1132 1042 q 1257 999 1222 1026 q 1296 917 1292 971 z "},"ぺ":{"ha":1389,"x_min":204,"x_max":1275,"o":"m 824 60 q 772 61 799 60 q 714 65 744 63 q 951 190 883 143 q 1006 240 1008 231 q 957 258 1006 242 q 854 306 885 283 q 796 393 804 339 q 794 413 794 403 q 793 435 793 424 q 821 590 793 490 q 858 742 853 706 q 750 725 821 744 q 683 709 710 715 q 643 701 656 703 q 639 683 640 701 q 583 666 619 681 q 490 626 546 651 q 333 590 401 583 q 204 679 272 597 q 394 738 265 694 q 593 796 521 781 q 867 836 806 840 q 1001 738 982 829 l 974 633 q 951 585 965 604 q 921 554 938 565 q 917 497 924 539 q 908 429 908 450 q 909 414 908 421 q 911 401 910 407 q 1011 359 978 374 q 1044 344 1044 344 q 1110 305 1085 328 q 1149 258 1135 282 q 1163 214 1163 236 q 1135 153 1163 172 q 1074 128 1125 144 q 1019 93 1033 113 l 1010 97 q 824 60 958 60 m 1153 776 q 1050 828 1092 793 q 1011 924 1008 864 q 1058 1003 1022 978 q 1136 1028 1094 1028 q 1207 1008 1174 1028 q 1258 949 1240 988 q 1263 857 1275 911 q 1250 835 1258 842 q 1235 808 1242 829 q 1189 804 1214 817 q 1153 776 1164 792 m 1169 869 q 1185 894 1181 878 q 1179 933 1190 911 q 1149 946 1165 944 q 1122 940 1133 947 q 1105 919 1111 935 q 1104 879 1099 903 q 1137 860 1118 861 q 1169 869 1156 860 z "},"ほ":{"ha":1389,"x_min":288,"x_max":1153,"o":"m 918 33 q 899 47 914 46 q 875 57 883 47 q 881 71 868 64 q 838 71 875 72 q 833 100 832 83 q 822 100 826 99 q 811 104 817 101 q 796 108 801 108 q 800 142 794 125 q 773 156 783 143 q 768 185 763 169 q 763 186 767 188 q 761 186 763 186 q 753 185 756 183 l 697 283 q 673 340 681 313 q 664 392 665 368 q 617 433 640 424 q 615 447 615 440 q 615 458 615 453 q 661 592 615 528 q 700 637 676 611 q 758 693 724 663 q 721 642 760 676 q 668 589 674 599 q 701 617 676 585 q 761 672 713 624 q 833 711 800 708 q 946 654 872 713 q 941 574 943 606 q 936 529 939 543 q 890 419 924 460 q 965 415 924 403 q 963 673 968 554 q 942 890 957 792 q 819 815 872 868 q 810 817 814 817 q 800 817 806 817 q 760 813 792 817 q 734 809 746 810 q 711 810 722 808 q 532 581 606 738 q 481 452 506 525 q 433 288 457 379 q 440 267 440 278 q 428 214 440 254 q 415 150 415 175 q 419 122 415 135 q 386 100 404 115 q 322 137 353 104 q 288 207 290 169 q 289 219 288 213 q 293 233 290 226 q 296 245 294 240 q 297 254 297 250 q 299 278 299 265 q 299 306 299 292 q 298 337 299 318 q 296 382 297 356 q 294 427 294 408 q 294 458 294 446 q 315 599 294 547 q 308 606 315 601 q 301 617 299 610 l 321 790 q 372 942 333 896 q 438 824 433 864 q 433 785 439 811 q 427 758 429 769 q 424 739 425 746 q 419 655 422 735 q 410 419 417 575 q 467 524 438 472 q 525 626 496 575 q 592 735 560 686 q 654 819 624 783 q 657 840 653 829 q 665 860 661 851 q 668 867 668 865 q 747 913 715 894 q 797 939 779 931 q 940 976 879 976 q 955 976 947 976 q 969 975 963 976 q 986 969 975 969 q 1003 965 997 969 q 1024 921 1004 949 q 1050 876 1046 890 q 1064 757 1064 833 l 1064 636 l 1072 554 q 1076 472 1076 504 q 1076 445 1076 458 q 1074 419 1075 432 q 1153 354 1107 400 q 1060 297 1122 300 q 1053 281 1051 293 q 1044 264 1054 268 q 1047 250 1046 258 q 1047 231 1047 242 q 1028 117 1047 171 q 956 33 1003 47 q 944 38 950 38 q 938 36 943 38 q 928 32 933 33 q 918 33 922 31 m 886 124 q 918 138 908 111 q 908 151 896 142 q 920 158 913 154 q 938 169 928 163 q 940 199 938 182 q 944 236 942 215 q 952 282 950 264 q 956 307 954 300 q 776 419 825 322 l 818 524 q 835 576 831 556 q 838 608 839 597 q 692 433 733 532 q 829 169 742 260 l 829 161 q 843 142 838 164 q 886 124 850 144 z "},"ぼ":{"ha":1389,"x_min":276,"x_max":1338,"o":"m 907 0 q 888 13 903 13 q 864 24 872 14 q 869 38 857 31 q 826 38 864 39 q 822 67 821 50 q 810 67 815 65 q 800 71 806 68 q 785 75 790 75 q 789 108 783 92 q 762 123 772 110 q 757 151 751 136 q 751 153 756 154 q 750 153 751 153 q 742 151 744 150 l 686 250 q 662 307 669 279 q 653 358 654 335 q 606 400 629 390 q 604 413 604 407 q 604 425 604 419 q 650 558 604 494 q 689 603 665 578 q 747 660 713 629 q 710 608 749 643 q 657 556 663 565 q 690 583 665 551 q 750 639 701 590 q 822 678 789 675 q 935 621 861 679 q 930 541 932 572 q 925 496 928 510 q 879 386 913 426 q 954 382 913 369 q 951 640 957 521 q 931 857 946 758 q 808 782 861 835 q 799 783 803 783 q 789 783 794 783 q 749 779 781 783 q 723 776 735 776 q 700 776 711 775 q 521 547 594 704 q 470 419 494 492 q 422 254 446 346 q 429 233 429 244 q 417 181 429 221 q 404 117 404 142 q 408 89 404 101 q 375 67 393 82 q 310 103 342 71 q 276 174 279 136 q 278 186 276 179 q 282 200 279 193 q 285 212 283 207 q 286 221 286 217 q 288 245 288 232 q 288 272 288 258 q 287 303 288 285 q 285 349 286 322 q 283 394 283 375 q 283 425 283 413 q 304 565 283 514 q 297 572 304 568 q 290 583 288 576 l 310 757 q 361 908 322 863 q 426 790 422 831 q 422 751 428 778 q 416 724 418 736 q 413 706 414 713 q 408 622 411 701 q 399 386 406 542 q 456 490 426 439 q 514 593 485 542 q 581 701 549 653 q 643 786 613 750 q 646 807 642 796 q 654 826 650 818 q 657 833 657 832 q 736 879 704 861 q 786 906 768 897 q 929 943 868 943 q 944 943 936 943 q 958 942 951 943 q 975 936 964 936 q 992 932 986 936 q 1013 888 993 915 q 1039 843 1035 857 q 1053 724 1053 800 l 1053 603 l 1061 521 q 1065 439 1065 471 q 1065 412 1065 425 q 1063 386 1064 399 q 1142 321 1096 367 q 1049 264 1111 267 q 1042 247 1040 260 q 1033 231 1043 235 q 1035 217 1035 225 q 1036 197 1036 208 q 1017 83 1036 138 q 944 0 992 14 q 933 4 939 4 q 926 3 932 4 q 917 -1 922 0 q 907 0 911 -3 m 875 90 q 907 104 897 78 q 897 118 885 108 q 909 125 901 121 q 926 136 917 129 q 928 165 926 149 q 933 203 931 182 q 941 249 939 231 q 944 274 943 267 q 765 386 814 289 l 807 490 q 824 543 819 522 q 826 575 828 564 q 681 400 722 499 q 818 136 731 226 l 818 128 q 832 108 826 131 q 875 90 839 111 m 1074 926 q 1019 990 1043 950 q 985 1057 994 1029 q 1072 1056 1031 1069 q 1141 1011 1113 1043 q 1176 935 1169 979 q 1124 908 1150 907 q 1074 926 1097 908 m 1338 1014 q 1276 991 1304 986 q 1225 1018 1249 996 q 1177 1077 1199 1043 q 1138 1132 1156 1111 q 1219 1131 1174 1139 q 1299 1096 1264 1124 q 1338 1014 1333 1068 z "},"ぽ":{"ha":1389,"x_min":265,"x_max":1333,"o":"m 896 22 q 876 35 892 35 q 853 46 861 36 q 858 60 846 53 q 815 60 853 61 q 811 89 810 72 q 799 89 804 88 q 789 93 794 90 q 774 97 779 97 q 778 131 772 114 q 751 145 761 132 q 746 174 740 158 q 740 175 744 176 q 739 175 740 175 q 731 174 733 172 l 675 272 q 651 329 658 301 q 642 381 643 357 q 594 422 618 413 q 593 435 593 429 q 593 447 593 442 q 639 581 593 517 q 678 626 654 600 q 736 682 701 651 q 699 631 738 665 q 646 578 651 588 q 679 606 654 574 q 739 661 690 613 q 811 700 778 697 q 924 643 850 701 q 919 563 921 594 q 914 518 917 532 q 868 408 901 449 q 943 404 901 392 q 940 662 946 543 q 919 879 935 781 q 797 804 850 857 q 788 806 792 806 q 778 806 783 806 q 738 801 769 806 q 712 798 724 799 q 689 799 700 797 q 510 569 583 726 q 459 441 483 514 q 411 276 435 368 q 418 256 418 267 q 406 203 418 243 q 393 139 393 164 q 397 111 393 124 q 364 89 382 104 q 299 126 331 93 q 265 196 268 158 q 267 208 265 201 q 271 222 268 215 q 274 234 272 229 q 275 243 275 239 q 276 267 276 254 q 276 294 276 281 q 276 326 276 307 q 274 371 275 344 q 272 416 272 397 q 272 447 272 435 q 293 588 272 536 q 286 594 293 590 q 279 606 276 599 l 299 779 q 350 931 311 885 q 415 813 411 853 q 411 774 417 800 q 405 747 407 758 q 401 728 403 735 q 397 644 400 724 q 388 408 394 564 q 444 513 415 461 q 503 615 474 564 q 569 724 538 675 q 632 808 601 772 q 635 829 631 818 q 643 849 639 840 q 646 856 646 854 q 725 901 693 883 q 775 928 757 919 q 918 965 857 965 q 933 965 925 965 q 947 964 940 965 q 964 958 953 958 q 981 954 975 958 q 1001 910 982 938 q 1028 865 1024 879 q 1042 746 1042 822 l 1042 625 l 1050 543 q 1054 461 1054 493 q 1053 434 1054 447 q 1051 408 1053 421 q 1131 343 1085 389 q 1038 286 1100 289 q 1031 269 1029 282 q 1022 253 1032 257 q 1024 239 1024 247 q 1025 219 1025 231 q 1006 106 1025 160 q 933 22 981 36 q 922 26 928 26 q 915 25 921 26 q 906 21 911 22 q 896 22 900 19 m 864 113 q 896 126 886 100 q 886 140 874 131 q 898 147 890 143 q 915 158 906 151 q 917 188 915 171 q 922 225 919 204 q 930 271 928 253 q 933 296 932 289 q 754 408 803 311 l 796 513 q 813 565 808 544 q 815 597 817 586 q 669 422 711 521 q 807 158 719 249 l 807 150 q 821 131 815 153 q 864 113 828 133 m 1211 846 q 1108 898 1150 863 q 1069 993 1067 933 q 1117 1072 1081 1047 q 1194 1097 1153 1097 q 1265 1077 1232 1097 q 1316 1019 1299 1057 q 1321 926 1333 981 q 1308 905 1317 911 q 1293 878 1300 899 q 1247 874 1272 886 q 1211 846 1222 861 m 1228 939 q 1244 964 1239 947 q 1238 1003 1249 981 q 1208 1015 1224 1014 q 1181 1010 1192 1017 q 1163 988 1169 1004 q 1163 949 1157 972 q 1195 930 1176 931 q 1228 939 1214 929 z "},"ま":{"ha":1389,"x_min":228,"x_max":1157,"o":"m 721 -1 q 640 16 682 -1 q 581 54 599 33 q 531 75 560 61 q 501 89 514 83 q 482 97 489 94 q 465 86 476 94 q 438 63 454 78 q 393 40 414 40 q 319 99 354 43 q 283 192 290 146 q 307 196 296 196 q 360 163 329 196 l 510 251 q 463 186 508 232 l 488 163 q 506 131 501 149 q 601 122 567 122 q 685 139 654 122 q 685 365 700 183 q 549 349 563 349 q 425 446 431 349 q 508 551 444 486 q 585 647 569 615 q 622 674 608 663 q 642 690 636 685 q 674 761 676 722 q 615 747 650 756 q 533 726 581 738 q 514 716 526 721 q 486 704 501 711 q 446 697 465 699 q 408 694 426 694 q 228 769 319 694 q 319 795 263 781 q 454 826 376 810 q 585 856 531 842 q 674 883 640 871 q 689 965 681 924 q 718 1028 697 1007 q 797 1053 743 1053 q 801 995 797 1031 q 811 911 804 960 q 851 896 822 896 q 919 911 881 896 l 992 875 q 1046 818 1028 851 q 961 775 1021 792 q 867 742 892 756 q 981 549 918 600 q 939 486 947 497 q 863 458 907 454 q 837 424 863 438 q 788 397 811 410 q 792 267 783 353 q 800 125 800 165 q 792 26 800 71 q 721 -1 768 -1 m 1078 103 q 1040 107 1061 103 q 993 118 1019 111 q 924 139 925 139 q 947 183 924 143 q 972 251 972 224 q 972 258 972 254 q 971 267 972 263 q 951 297 968 281 q 928 324 933 313 q 944 331 932 331 q 961 342 957 332 q 1035 304 1006 321 q 1082 276 1065 288 q 1157 172 1157 225 q 1156 164 1157 168 q 1154 154 1156 160 q 1124 113 1146 122 q 1078 103 1103 103 m 543 450 q 583 453 563 451 q 624 457 604 456 q 685 483 671 464 q 678 535 679 511 q 679 581 676 560 q 649 560 667 578 q 614 549 635 546 q 613 544 614 549 q 611 533 613 540 q 610 524 610 528 q 613 515 611 519 q 607 513 611 514 q 581 493 593 503 q 571 469 568 483 q 543 450 558 467 m 778 507 q 813 521 806 515 q 839 543 831 529 l 797 685 q 774 588 774 664 q 778 507 774 599 z "},"み":{"ha":1389,"x_min":315,"x_max":1010,"o":"m 696 -60 q 724 -27 707 -44 q 765 10 742 -10 q 812 49 793 33 q 839 75 831 65 l 756 56 q 674 48 713 46 q 603 61 635 50 q 589 99 603 78 q 575 133 575 121 q 608 189 578 158 q 651 240 646 226 l 551 211 q 494 200 521 203 q 446 196 468 197 q 391 201 415 194 q 347 218 367 207 q 331 261 346 233 q 319 304 315 289 q 382 349 322 311 q 567 483 525 438 q 563 485 565 485 q 552 482 560 485 q 540 479 544 479 q 531 483 535 479 q 510 547 510 515 q 569 660 508 604 q 692 729 624 707 q 690 744 690 736 q 690 760 690 753 q 708 847 690 807 q 764 918 725 888 l 907 1029 q 589 864 700 1013 q 590 853 590 858 q 590 843 590 849 q 589 817 590 831 q 581 790 588 804 l 567 761 q 424 981 429 789 q 549 904 478 967 q 894 1038 789 1038 q 1006 963 963 1038 q 888 882 978 917 q 764 810 790 844 q 772 765 771 794 q 782 719 772 735 q 806 697 788 710 q 826 671 824 683 q 828 664 828 668 q 828 657 828 660 q 820 622 828 646 q 813 581 813 599 q 746 485 778 563 q 683 389 715 410 q 663 402 674 390 q 643 415 653 414 q 560 371 611 401 q 436 294 508 340 q 654 346 521 294 q 783 390 729 374 q 871 411 838 407 q 903 433 882 421 q 972 404 935 431 q 1008 351 1010 376 q 974 317 1007 329 l 925 308 q 883 296 897 300 q 869 292 869 292 q 863 292 867 292 q 853 294 858 293 q 706 147 774 258 q 774 156 742 153 q 833 158 806 158 q 1010 101 961 158 q 831 -42 997 -6 q 789 -26 813 -26 q 696 -60 749 -26 m 603 514 q 650 556 628 528 q 672 608 672 583 q 672 618 672 614 q 669 626 671 622 q 635 598 647 608 q 621 585 624 588 q 589 528 596 560 q 603 514 599 524 z "},"む":{"ha":1389,"x_min":151,"x_max":1253,"o":"m 743 -10 l 664 21 q 614 35 638 32 q 568 39 590 39 q 631 53 606 53 q 739 79 672 53 q 832 133 808 106 q 747 228 792 153 q 749 241 749 235 q 750 253 750 247 q 745 288 750 268 q 732 332 740 307 q 721 372 724 356 q 719 397 718 388 q 705 396 713 396 q 690 396 697 396 q 550 492 569 396 q 614 592 563 549 q 722 635 665 638 q 796 599 764 632 q 849 671 828 622 l 886 761 q 843 765 864 765 q 711 738 806 765 q 715 685 711 722 q 676 667 701 667 q 604 719 624 667 q 552 713 582 718 q 482 697 522 707 q 481 683 481 693 q 484 651 481 674 q 488 618 488 629 q 478 586 488 597 q 371 671 396 589 q 351 669 361 669 q 331 668 340 668 q 151 733 254 668 q 244 761 179 753 q 349 778 326 772 q 346 822 349 792 q 343 867 343 853 q 371 931 343 915 q 456 801 404 906 q 576 818 497 806 l 572 864 q 570 886 571 876 q 569 903 569 896 q 581 957 569 932 q 647 907 621 947 q 689 832 658 897 q 712 847 700 839 q 736 868 724 856 l 778 908 q 763 875 781 901 l 733 836 q 806 839 761 838 q 913 842 851 840 q 932 935 932 896 q 926 981 932 960 q 963 996 944 996 q 1020 963 996 996 q 1044 896 1044 931 q 1029 850 1044 869 q 1107 840 1076 844 q 1153 831 1138 835 q 1253 774 1221 811 q 1192 744 1247 747 q 1158 747 1178 744 q 1110 756 1138 750 q 1062 764 1082 761 q 1031 767 1042 767 q 1020 767 1025 767 q 1011 765 1015 767 q 974 699 993 739 q 935 604 954 658 q 920 597 929 608 q 911 571 911 585 q 904 568 908 569 q 894 564 900 567 q 894 540 896 554 q 881 531 889 538 q 864 514 874 525 q 848 481 854 499 q 839 440 842 463 l 828 344 q 856 249 856 300 q 856 236 856 243 q 854 222 856 229 q 933 178 865 208 q 989 119 989 153 q 942 58 989 89 q 850 17 900 32 q 743 -10 810 13 m 621 456 q 690 476 658 457 q 733 536 726 499 q 664 515 694 533 q 621 456 625 493 z "},"め":{"ha":1389,"x_min":340,"x_max":1064,"o":"m 894 -25 q 863 -19 881 -22 q 822 -15 844 -17 q 826 -1 826 -12 q 808 -6 818 -6 q 742 25 776 -6 l 728 47 q 694 91 714 65 q 651 151 675 117 q 582 201 617 201 q 575 201 579 201 q 567 200 571 201 q 565 194 567 199 q 556 176 561 185 q 540 168 551 167 l 544 151 q 446 -15 475 74 q 417 -19 432 -19 q 347 88 340 -19 q 358 94 356 86 q 361 108 360 101 q 361 110 361 110 q 378 106 376 113 q 424 168 399 125 q 469 214 443 168 q 491 257 483 238 q 500 290 499 276 q 565 379 532 310 q 611 500 594 438 q 558 467 590 499 q 504 424 528 431 l 486 397 q 490 361 490 388 q 465 354 476 354 q 413 388 436 354 q 392 456 390 422 q 456 544 426 482 q 508 639 492 618 l 508 671 q 450 715 475 679 q 425 786 425 750 q 454 840 425 822 q 477 851 468 835 q 482 881 486 867 q 493 888 482 881 q 504 886 500 892 q 526 926 504 894 q 524 933 524 929 q 551 978 524 943 q 581 1029 581 1014 l 589 1025 q 606 1061 589 1039 q 625 1100 624 1088 l 676 1046 q 706 983 708 1015 q 647 907 704 949 q 575 836 586 860 q 577 831 576 833 q 578 825 578 828 q 553 792 578 804 q 599 765 575 779 q 633 733 622 751 q 621 663 638 694 q 604 629 610 643 q 597 608 599 615 q 639 628 613 618 q 701 653 665 639 q 736 719 715 681 q 786 810 757 758 q 819 760 818 800 q 826 689 821 701 q 906 693 867 696 q 983 679 944 690 q 997 660 982 671 q 1028 649 1011 650 q 1063 578 1063 622 q 1031 486 1063 538 q 969 415 1004 446 q 958 412 964 414 q 944 404 951 410 q 921 388 928 390 q 942 390 922 382 q 925 376 946 376 q 911 383 915 376 q 907 365 908 383 q 889 388 894 367 q 885 381 885 386 q 888 378 885 381 q 896 369 890 375 q 899 357 901 363 q 874 356 885 358 q 854 350 864 353 q 840 345 847 347 q 826 343 833 343 q 836 353 829 353 q 844 357 843 354 q 839 360 842 360 q 829 357 836 360 q 819 354 822 354 q 808 361 815 354 q 794 343 808 356 q 803 343 794 342 q 818 343 814 346 q 774 328 806 331 q 706 378 706 326 q 710 401 706 385 q 644 325 681 386 q 593 249 603 257 q 724 164 707 222 q 746 160 738 165 q 724 156 744 151 q 779 114 757 144 q 822 65 807 76 q 928 86 863 71 q 990 101 964 96 q 1032 110 1017 107 q 1053 92 1046 111 q 1064 61 1061 64 q 1048 44 1060 51 q 1032 17 1036 36 q 986 3 1010 21 q 943 -11 964 -14 q 939 -24 942 -11 q 933 -13 933 -24 q 929 -1 933 -3 q 894 -25 924 -24 m 778 424 q 842 447 803 426 q 881 482 885 469 q 913 524 900 507 q 929 549 925 540 q 951 631 954 589 q 904 639 926 639 q 807 583 849 639 l 746 482 q 760 450 749 464 l 778 424 m 958 422 l 1001 460 q 996 461 1000 461 q 974 447 986 461 q 958 422 961 433 m 861 358 q 867 361 864 358 q 864 364 864 364 q 869 366 864 364 q 875 371 875 368 q 831 371 856 374 q 861 358 851 358 z "},"も":{"ha":1389,"x_min":342,"x_max":1050,"o":"m 900 14 q 726 74 801 13 q 642 250 646 138 q 482 208 560 210 q 342 286 375 206 l 460 438 q 526 517 493 482 q 588 581 558 553 q 532 601 553 593 q 506 611 511 608 q 444 671 464 633 q 710 725 558 674 q 799 663 776 704 l 628 492 q 481 304 529 393 q 656 350 538 299 q 685 443 663 388 q 750 558 714 515 q 865 629 813 629 q 877 628 871 629 q 889 626 883 628 q 904 593 888 613 q 921 558 921 575 q 919 546 921 550 q 951 536 935 547 l 969 518 q 946 465 965 500 q 958 471 951 463 q 969 478 965 478 q 958 452 969 465 q 946 433 946 439 q 901 400 939 431 q 839 375 872 378 q 831 344 847 354 q 822 347 825 347 q 782 322 810 347 q 740 294 754 299 q 744 179 739 206 q 803 111 754 126 q 867 103 831 103 q 892 103 876 103 q 928 106 907 104 q 992 110 972 110 q 1013 109 1003 110 q 1032 107 1022 108 q 1036 94 1035 104 q 1050 79 1038 83 q 1040 51 1050 65 q 1028 31 1029 38 q 992 31 1015 24 q 900 14 949 14 m 593 792 q 615 822 593 801 q 642 858 638 842 q 625 869 638 869 q 610 871 615 871 q 601 872 604 871 q 499 975 569 908 l 600 975 q 663 972 635 975 q 714 963 692 968 q 732 949 718 957 l 815 921 q 860 897 843 911 q 883 868 876 883 q 883 824 894 849 q 872 822 878 822 q 860 821 867 821 q 840 822 854 821 q 804 826 826 824 q 771 829 786 829 q 744 828 756 829 q 724 823 739 826 q 701 819 710 819 q 674 828 689 819 q 635 807 663 815 q 608 798 618 801 q 593 792 597 794 m 757 396 q 825 446 786 411 q 879 518 878 492 q 804 476 849 518 q 757 396 764 436 z "},"や":{"ha":1389,"x_min":139,"x_max":1256,"o":"m 685 69 q 639 93 660 69 q 607 165 618 117 l 578 300 q 553 410 568 347 q 521 553 538 474 q 307 501 419 499 q 139 588 181 503 q 228 602 182 593 q 325 628 274 611 l 496 683 q 473 767 481 731 q 465 831 465 804 q 538 915 465 915 q 551 915 544 915 q 565 913 558 914 l 596 847 q 611 807 607 825 q 615 774 615 789 q 597 725 615 743 q 613 719 603 719 q 635 725 621 719 q 656 732 650 731 q 796 752 732 746 q 913 758 860 758 q 1136 713 1056 758 q 1192 667 1157 701 q 1246 622 1226 633 q 1251 560 1256 592 q 1222 497 1247 528 l 1139 394 q 1107 378 1107 383 q 1108 372 1107 374 q 1054 351 1082 363 q 999 324 1026 339 q 932 307 968 307 q 818 324 908 307 q 785 349 811 343 q 732 361 758 356 q 732 389 728 367 q 646 601 663 453 q 690 532 668 575 q 713 494 703 510 q 729 468 722 478 q 748 445 736 458 q 776 417 760 432 q 863 401 803 401 q 918 404 893 401 q 964 413 943 407 q 1061 489 1011 425 q 1113 604 1113 553 q 1085 658 1113 640 q 997 682 1057 675 q 974 684 986 683 q 947 685 961 685 q 628 606 790 685 l 726 83 q 685 69 704 69 z "},"ゃ":{"ha":1389,"x_min":139,"x_max":1256,"o":"m 685 69 q 639 93 660 69 q 607 165 618 117 l 578 300 q 553 410 568 347 q 521 553 538 474 q 307 501 419 499 q 139 588 181 503 q 228 602 182 593 q 325 628 274 611 l 496 683 q 473 767 481 731 q 465 831 465 804 q 538 915 465 915 q 551 915 544 915 q 565 913 558 914 l 596 847 q 611 807 607 825 q 615 774 615 789 q 597 725 615 743 q 613 719 603 719 q 635 725 621 719 q 656 732 650 731 q 796 752 732 746 q 913 758 860 758 q 1136 713 1056 758 q 1192 667 1157 701 q 1246 622 1226 633 q 1251 560 1256 592 q 1222 497 1247 528 l 1139 394 q 1107 378 1107 383 q 1108 372 1107 374 q 1054 351 1082 363 q 999 324 1026 339 q 932 307 968 307 q 818 324 908 307 q 785 349 811 343 q 732 361 758 356 q 732 389 728 367 q 646 601 663 453 q 690 532 668 575 q 713 494 703 510 q 729 468 722 478 q 748 445 736 458 q 776 417 760 432 q 863 401 803 401 q 918 404 893 401 q 964 413 943 407 q 1061 489 1011 425 q 1113 604 1113 553 q 1085 658 1113 640 q 997 682 1057 675 q 974 684 986 683 q 947 685 961 685 q 628 606 790 685 l 726 83 q 685 69 704 69 z "},"ゆ":{"ha":1389,"x_min":251,"x_max":1183,"o":"m 676 103 q 582 115 651 135 q 581 121 581 115 q 578 133 582 131 q 568 128 576 128 q 550 133 564 128 q 529 138 536 138 q 515 133 522 138 q 483 174 513 151 q 485 183 485 179 q 486 193 486 188 q 483 219 486 201 q 481 247 481 238 q 481 260 481 254 q 483 272 482 267 q 497 281 489 271 q 506 288 501 285 q 515 290 510 292 q 590 372 531 343 q 647 394 618 383 q 704 415 676 404 q 710 515 710 472 q 706 586 711 558 q 501 429 553 521 q 501 429 501 429 q 489 429 501 428 q 475 411 492 406 l 475 389 q 415 268 415 363 q 435 188 415 224 q 424 169 433 179 q 413 151 414 160 q 350 189 379 154 q 292 224 321 224 q 286 322 290 264 q 272 453 282 379 q 251 693 254 608 q 383 506 381 611 q 383 492 383 500 q 381 474 382 485 q 544 598 463 543 q 710 693 626 653 l 710 831 q 700 918 710 882 q 676 976 690 954 q 686 994 669 992 l 782 938 q 829 843 832 899 q 823 833 829 838 q 815 825 817 829 q 807 717 814 817 q 828 719 818 718 q 850 719 839 719 q 1072 650 974 719 q 1169 451 1183 569 q 1143 385 1163 399 l 1143 353 q 1131 339 1139 351 q 1115 326 1122 326 q 1115 317 1114 324 q 1115 304 1118 308 q 1075 268 1094 300 q 1035 236 1057 238 l 1039 228 q 997 197 1031 226 q 954 169 969 172 q 953 160 951 167 q 954 158 953 158 q 954 151 956 153 q 883 135 942 147 q 829 111 849 129 q 808 112 819 113 q 783 110 797 111 q 779 110 781 110 q 733 106 746 106 q 681 115 704 106 l 676 103 m 765 210 q 892 268 836 236 q 1010 369 960 306 q 1067 513 1067 443 q 1057 568 1067 543 q 906 649 1028 649 q 811 631 856 649 q 806 551 810 599 q 797 439 803 503 q 836 426 819 432 q 864 415 853 421 q 924 367 908 394 q 905 356 918 365 q 872 333 892 347 q 844 319 858 324 q 819 313 831 314 q 821 321 821 315 q 785 326 821 331 q 767 290 792 297 q 771 274 771 285 q 767 247 771 265 q 763 221 763 228 q 765 210 763 215 m 588 188 q 694 192 631 174 q 699 246 697 221 q 704 290 701 271 q 588 188 613 264 z "},"ゅ":{"ha":1389,"x_min":251,"x_max":1183,"o":"m 676 103 q 582 115 651 135 q 581 121 581 115 q 578 133 582 131 q 568 128 576 128 q 550 133 564 128 q 529 138 536 138 q 515 133 522 138 q 483 174 513 151 q 485 183 485 179 q 486 193 486 188 q 483 219 486 201 q 481 247 481 238 q 481 260 481 254 q 483 272 482 267 q 497 281 489 271 q 506 288 501 285 q 515 290 510 292 q 590 372 531 343 q 647 394 618 383 q 704 415 676 404 q 710 515 710 472 q 706 586 711 558 q 501 429 553 521 q 501 429 501 429 q 489 429 501 428 q 475 411 492 406 l 475 389 q 415 268 415 363 q 435 188 415 224 q 424 169 433 179 q 413 151 414 160 q 350 189 379 154 q 292 224 321 224 q 286 322 290 264 q 272 453 282 379 q 251 693 254 608 q 383 506 381 611 q 383 492 383 500 q 381 474 382 485 q 544 598 463 543 q 710 693 626 653 l 710 831 q 700 918 710 882 q 676 976 690 954 q 686 994 669 992 l 782 938 q 829 843 832 899 q 823 833 829 838 q 815 825 817 829 q 807 717 814 817 q 828 719 818 718 q 850 719 839 719 q 1072 650 974 719 q 1169 451 1183 569 q 1143 385 1163 399 l 1143 353 q 1131 339 1139 351 q 1115 326 1122 326 q 1115 317 1114 324 q 1115 304 1118 308 q 1075 268 1094 300 q 1035 236 1057 238 l 1039 228 q 997 197 1031 226 q 954 169 969 172 q 953 160 951 167 q 954 158 953 158 q 954 151 956 153 q 883 135 942 147 q 829 111 849 129 q 808 112 819 113 q 783 110 797 111 q 779 110 781 110 q 733 106 746 106 q 681 115 704 106 l 676 103 m 765 210 q 892 268 836 236 q 1010 369 960 306 q 1067 513 1067 443 q 1057 568 1067 543 q 906 649 1028 649 q 811 631 856 649 q 806 551 810 599 q 797 439 803 503 q 836 426 819 432 q 864 415 853 421 q 924 367 908 394 q 905 356 918 365 q 872 333 892 347 q 844 319 858 324 q 819 313 831 314 q 821 321 821 315 q 785 326 821 331 q 767 290 792 297 q 771 274 771 285 q 767 247 771 265 q 763 221 763 228 q 765 210 763 215 m 588 188 q 694 192 631 174 q 699 246 697 221 q 704 290 701 271 q 588 188 613 264 z "},"よ":{"ha":1389,"x_min":410,"x_max":976,"o":"m 560 8 q 511 19 540 8 q 467 73 483 53 q 444 100 450 93 q 410 196 410 149 q 425 257 410 226 q 435 249 428 253 q 578 306 489 306 q 685 263 647 306 q 722 171 725 215 q 713 150 722 161 q 799 218 764 169 q 836 318 835 267 q 775 428 839 388 q 658 465 742 449 q 551 504 579 482 q 493 644 493 550 q 531 835 493 729 q 622 1010 571 942 q 632 1014 629 1014 q 640 1011 635 1014 q 649 1007 644 1008 q 658 1006 654 1006 q 688 929 686 976 q 688 915 688 924 q 686 892 688 906 q 685 870 686 882 q 685 844 685 858 q 815 831 707 831 q 818 849 824 832 q 976 750 963 825 q 945 731 969 742 q 914 710 921 721 q 864 714 900 725 q 658 778 717 724 q 582 575 593 721 q 660 540 600 554 q 739 513 719 528 q 814 487 779 503 q 879 447 849 471 q 954 319 954 392 q 904 204 954 240 q 910 200 904 204 q 914 190 915 196 q 878 132 897 181 l 804 76 q 725 38 760 44 q 650 33 700 40 q 603 18 640 32 q 560 8 579 8 m 564 92 q 610 129 596 96 q 626 194 615 142 q 586 207 613 207 q 493 176 540 207 q 516 145 499 167 q 564 92 533 124 z "},"ょ":{"ha":1389,"x_min":410,"x_max":976,"o":"m 560 8 q 511 19 540 8 q 467 73 483 53 q 444 100 450 93 q 410 196 410 149 q 425 257 410 226 q 435 249 428 253 q 578 306 489 306 q 685 263 647 306 q 722 171 725 215 q 713 150 722 161 q 799 218 764 169 q 836 318 835 267 q 775 428 839 388 q 658 465 742 449 q 551 504 579 482 q 493 644 493 550 q 531 835 493 729 q 622 1010 571 942 q 632 1014 629 1014 q 640 1011 635 1014 q 649 1007 644 1008 q 658 1006 654 1006 q 688 929 686 976 q 688 915 688 924 q 686 892 688 906 q 685 870 686 882 q 685 844 685 858 q 815 831 707 831 q 818 849 824 832 q 976 750 963 825 q 945 731 969 742 q 914 710 921 721 q 864 714 900 725 q 658 778 717 724 q 582 575 593 721 q 660 540 600 554 q 739 513 719 528 q 814 487 779 503 q 879 447 849 471 q 954 319 954 392 q 904 204 954 240 q 910 200 904 204 q 914 190 915 196 q 878 132 897 181 l 804 76 q 725 38 760 44 q 650 33 700 40 q 603 18 640 32 q 560 8 579 8 m 564 92 q 610 129 596 96 q 626 194 615 142 q 586 207 613 207 q 493 176 540 207 q 516 145 499 167 q 564 92 533 124 z "},"ら":{"ha":1389,"x_min":418,"x_max":1118,"o":"m 760 10 q 699 13 732 10 q 626 24 665 17 q 653 47 632 42 q 669 51 661 50 q 686 54 678 53 q 976 271 838 108 q 854 240 921 271 q 819 223 847 238 q 740 182 790 208 q 681 151 701 163 q 657 138 660 140 q 588 83 610 110 q 567 79 578 83 q 547 71 556 75 q 528 64 532 64 q 451 117 475 86 q 419 226 422 154 q 451 408 418 296 q 482 516 471 474 q 494 576 493 558 q 549 631 511 596 q 676 561 617 632 q 721 636 699 572 q 633 779 632 724 q 651 838 633 810 q 622 844 646 840 q 558 856 599 849 q 479 888 499 867 q 593 967 503 928 q 736 1003 681 1003 q 794 986 776 1003 q 810 951 806 976 q 833 917 815 926 q 750 729 788 849 l 815 664 q 844 581 851 628 q 796 496 839 539 q 694 449 749 449 q 663 455 678 449 q 632 496 649 461 q 597 532 618 526 q 544 271 544 407 q 549 221 544 244 q 751 314 551 221 q 972 379 872 369 q 1077 337 1036 371 q 1117 258 1118 303 q 1065 172 1114 214 q 1032 152 1061 169 q 947 103 1003 135 q 853 50 900 76 q 760 10 807 24 z "},"り":{"ha":1389,"x_min":300,"x_max":1079,"o":"m 549 -46 q 917 272 813 79 q 913 292 918 282 l 940 363 q 953 405 950 386 q 957 438 957 424 q 950 476 957 456 q 849 524 929 524 q 724 503 797 524 q 672 485 694 494 q 631 467 649 476 q 631 321 631 407 q 635 121 632 235 q 625 65 635 79 q 607 66 617 64 q 589 69 597 68 q 572 74 576 74 q 518 166 550 110 q 443 296 486 222 q 400 292 421 292 q 300 351 329 292 q 346 406 307 372 q 396 467 385 439 l 386 485 q 406 482 389 488 q 519 669 458 544 q 439 631 478 657 q 376 546 378 590 q 386 499 376 532 q 363 693 347 560 q 444 742 394 713 q 558 808 493 771 q 560 841 560 822 q 560 883 560 860 l 560 915 q 568 1067 560 1013 q 592 1045 579 1056 q 615 1024 604 1035 q 653 971 642 997 q 657 861 665 942 q 682 761 651 794 q 635 564 635 689 q 751 581 701 575 q 831 588 800 588 q 853 588 842 588 q 874 586 864 588 q 1051 508 954 581 q 1079 385 1079 449 q 993 143 1079 257 q 917 83 965 131 q 840 24 867 36 q 824 20 836 21 q 811 10 813 19 q 796 13 803 13 q 758 0 782 13 q 725 -14 735 -12 q 721 -12 724 -12 q 711 -21 722 -12 q 678 -32 700 -29 q 703 -8 678 -22 q 735 14 728 6 q 692 -4 719 17 q 666 -21 675 -15 q 654 -28 657 -26 q 636 -25 646 -25 q 549 -46 606 -25 m 535 231 q 535 425 546 392 l 490 388 q 463 333 463 365 q 469 308 463 322 q 489 279 475 294 l 535 231 z "},"る":{"ha":1389,"x_min":192,"x_max":1099,"o":"m 699 19 q 657 40 685 22 q 614 58 631 58 q 600 56 608 58 q 540 93 574 61 q 505 124 519 113 q 483 140 490 135 q 486 150 486 149 q 481 161 486 156 q 473 168 475 165 q 469 172 471 171 q 610 243 507 246 q 765 176 710 240 q 760 155 765 168 q 756 136 756 142 q 892 238 831 164 q 954 404 958 321 q 858 486 950 488 q 653 422 769 483 q 567 356 613 401 l 506 293 q 439 322 475 289 q 389 356 404 358 q 457 435 397 400 q 532 507 518 471 q 593 542 563 511 q 626 589 626 574 q 772 722 676 642 q 865 802 828 769 q 922 853 903 835 q 888 851 908 854 q 842 838 868 847 q 769 817 786 819 q 672 779 733 776 q 574 796 636 779 q 483 817 503 814 q 467 797 476 810 q 443 768 457 785 q 445 755 444 761 q 446 742 446 749 q 360 665 446 665 q 206 714 279 665 q 199 731 206 722 q 192 744 192 739 q 350 818 240 753 q 445 865 401 849 q 524 883 489 881 l 560 879 q 682 904 596 881 q 815 929 768 928 q 869 928 835 931 q 954 919 903 926 q 1099 846 1099 900 q 1093 825 1099 835 q 1019 783 1069 818 q 949 750 976 753 q 947 743 946 750 q 944 732 949 735 l 868 699 q 819 646 813 674 q 813 640 818 640 q 804 640 808 639 q 792 638 794 640 q 794 627 793 633 q 797 611 796 621 q 733 547 736 558 q 843 560 790 560 q 1043 481 988 560 q 1076 372 1076 435 q 976 140 1076 249 q 699 19 844 38 m 689 118 q 621 151 667 151 q 613 151 617 151 q 604 149 608 150 q 689 118 625 108 z "},"れ":{"ha":1389,"x_min":194,"x_max":1247,"o":"m 531 8 q 436 85 457 -3 q 430 136 432 100 q 426 228 428 172 q 381 151 394 199 l 351 61 q 289 93 313 60 l 253 164 q 285 231 264 192 q 338 318 307 269 q 422 478 399 417 q 338 461 383 461 q 194 518 251 461 q 454 635 297 543 q 460 637 457 636 q 469 638 464 638 q 522 625 492 638 q 561 599 556 611 q 564 586 564 590 q 550 536 564 572 q 538 479 538 501 q 543 451 538 463 q 713 553 622 504 q 907 644 804 601 q 909 791 908 717 q 919 922 910 865 q 931 926 926 922 q 940 935 936 931 q 951 944 947 944 q 992 939 982 949 q 1018 895 1003 925 q 1051 819 1033 865 q 1121 711 1085 742 q 1189 671 1176 707 q 1174 663 1181 671 q 1161 639 1165 643 q 1097 626 1138 633 q 1000 608 1057 619 q 1000 353 990 429 q 1086 179 1013 250 q 1144 133 1104 161 q 1247 65 1185 106 q 963 224 1050 57 q 901 568 892 358 q 806 529 854 553 q 708 474 757 506 q 641 427 682 457 q 543 353 600 397 q 525 228 525 299 q 532 141 525 192 q 553 25 539 90 q 539 17 544 25 q 531 8 533 10 m 400 769 q 417 794 406 779 q 444 828 428 808 q 393 867 429 844 q 362 888 375 878 q 342 904 349 897 l 435 925 q 535 938 497 940 q 633 850 629 935 q 590 836 619 844 q 511 815 560 828 q 400 769 442 796 m 1000 679 q 1017 683 1007 681 q 1040 689 1026 686 q 1024 761 1035 703 q 1000 832 1015 807 l 1004 781 q 1005 726 1007 751 q 1000 679 1003 701 m 1081 742 q 1050 778 1074 774 q 1064 754 1051 768 q 1081 742 1076 740 z "},"ろ":{"ha":1389,"x_min":357,"x_max":1139,"o":"m 778 28 q 554 88 597 28 q 554 151 544 101 q 605 148 579 150 q 643 133 631 146 q 719 158 663 131 q 776 185 754 175 q 804 196 797 194 q 840 222 824 224 q 899 295 864 250 q 979 401 935 340 q 958 379 972 401 q 931 357 944 360 q 953 390 933 367 q 979 433 975 417 q 899 460 953 464 q 667 374 786 451 q 496 222 571 310 l 496 144 q 508 83 496 107 q 496 57 503 78 q 421 92 456 64 l 361 142 q 357 194 357 182 q 397 281 357 260 q 492 560 411 433 q 559 648 515 597 q 664 763 603 699 q 850 979 796 896 q 844 1001 843 992 q 854 1006 851 1006 q 869 997 860 1006 q 885 985 879 988 q 908 985 893 988 q 965 890 965 943 q 899 818 965 835 q 835 761 883 789 q 769 711 783 733 q 688 657 732 707 q 613 585 636 597 q 496 375 493 386 q 681 475 572 435 q 900 517 797 519 q 1128 415 1053 514 q 1104 325 1139 344 q 1106 318 1103 321 q 1114 321 1106 318 q 1115 314 1115 319 q 1104 303 1115 307 q 1082 294 1093 299 q 1042 253 1058 271 q 1014 226 1025 236 q 972 196 993 208 q 931 174 951 183 l 935 186 q 903 168 924 179 q 854 142 883 157 q 949 75 883 131 q 896 39 944 50 q 778 28 847 28 m 501 682 q 422 713 465 682 q 369 769 379 743 q 358 857 360 792 q 358 909 357 889 q 361 935 358 929 q 408 903 379 921 q 478 863 438 885 l 513 886 q 563 908 539 904 q 564 897 564 904 q 544 863 564 885 q 530 845 535 853 q 522 832 525 838 q 526 780 522 813 q 536 701 529 747 q 501 682 525 682 m 832 174 q 854 192 851 172 l 836 192 q 832 174 836 181 m 983 208 q 990 219 983 214 q 997 226 997 224 q 989 232 997 231 q 979 226 989 225 q 983 208 978 218 z "},"わ":{"ha":1389,"x_min":133,"x_max":1292,"o":"m 539 -29 q 443 60 517 7 q 349 147 371 113 q 281 138 311 135 q 251 176 274 154 q 225 221 229 199 q 238 239 231 228 q 256 264 246 250 q 204 338 247 290 q 156 392 174 371 q 133 419 139 413 q 451 690 238 593 q 447 724 449 707 q 444 757 444 740 q 453 832 444 789 q 479 931 463 875 q 508 1034 499 990 q 519 1106 518 1078 q 593 1064 558 1106 l 651 993 q 604 869 647 935 q 543 749 553 790 q 519 738 536 747 q 524 719 524 732 q 583 699 553 717 l 622 669 q 626 650 626 661 q 611 594 626 633 q 599 543 596 558 q 574 510 572 526 q 628 544 586 511 q 686 578 668 576 q 717 604 689 590 q 765 617 746 619 q 808 585 788 615 q 838 547 833 550 l 929 583 q 991 600 961 596 q 1047 601 1021 604 q 1117 589 1082 599 q 1190 561 1153 579 q 1282 494 1268 526 q 1292 451 1292 475 q 1249 356 1292 407 q 1171 279 1247 356 q 1160 289 1165 282 q 1122 248 1147 268 q 1081 228 1097 228 q 1072 229 1074 228 q 968 182 1046 179 q 847 215 906 185 q 989 299 917 251 q 1008 308 1008 301 q 1000 318 1008 313 l 1085 401 q 1126 449 1110 425 q 1151 494 1142 472 q 1069 515 1113 515 q 956 474 1017 515 q 917 443 940 464 q 861 392 893 422 q 763 440 793 389 q 729 543 743 472 q 715 510 707 531 q 700 496 704 510 q 694 479 697 486 q 690 469 692 472 q 578 357 628 424 q 579 301 578 335 q 583 221 581 268 q 588 140 586 174 q 589 83 589 106 q 588 33 589 57 q 583 -10 586 10 q 539 -29 569 -19 m 304 324 q 451 578 433 475 q 454 586 456 585 q 447 586 453 588 q 225 392 289 488 l 256 354 q 304 324 278 328 m 496 165 q 475 283 496 279 q 426 221 471 275 q 458 181 438 199 q 496 165 478 163 m 149 411 q 172 443 158 422 q 206 494 186 464 q 167 454 189 485 q 149 411 143 422 m 1076 240 q 1107 252 1093 239 q 1115 275 1121 265 l 1093 261 q 1076 240 1081 251 z "},"ゎ":{"ha":1389,"x_min":133,"x_max":1292,"o":"m 539 -29 q 443 60 517 7 q 349 147 371 113 q 281 138 311 135 q 251 176 274 154 q 225 221 229 199 q 238 239 231 228 q 256 264 246 250 q 204 338 247 290 q 156 392 174 371 q 133 419 139 413 q 451 690 238 593 q 447 724 449 707 q 444 757 444 740 q 453 832 444 789 q 479 931 463 875 q 508 1034 499 990 q 519 1106 518 1078 q 593 1064 558 1106 l 651 993 q 604 869 647 935 q 543 749 553 790 q 519 738 536 747 q 524 719 524 732 q 583 699 553 717 l 622 669 q 626 650 626 661 q 611 594 626 633 q 599 543 596 558 q 574 510 572 526 q 628 544 586 511 q 686 578 668 576 q 717 604 689 590 q 765 617 746 619 q 808 585 788 615 q 838 547 833 550 l 929 583 q 991 600 961 596 q 1047 601 1021 604 q 1117 589 1082 599 q 1190 561 1153 579 q 1282 494 1268 526 q 1292 451 1292 475 q 1249 356 1292 407 q 1171 279 1247 356 q 1160 289 1165 282 q 1122 248 1147 268 q 1081 228 1097 228 q 1072 229 1074 228 q 968 182 1046 179 q 847 215 906 185 q 989 299 917 251 q 1008 308 1008 301 q 1000 318 1008 313 l 1085 401 q 1126 449 1110 425 q 1151 494 1142 472 q 1069 515 1113 515 q 956 474 1017 515 q 917 443 940 464 q 861 392 893 422 q 763 440 793 389 q 729 543 743 472 q 715 510 707 531 q 700 496 704 510 q 694 479 697 486 q 690 469 692 472 q 578 357 628 424 q 579 301 578 335 q 583 221 581 268 q 588 140 586 174 q 589 83 589 106 q 588 33 589 57 q 583 -10 586 10 q 539 -29 569 -19 m 304 324 q 451 578 433 475 q 454 586 456 585 q 447 586 453 588 q 225 392 289 488 l 256 354 q 304 324 278 328 m 496 165 q 475 283 496 279 q 426 221 471 275 q 458 181 438 199 q 496 165 478 163 m 149 411 q 172 443 158 422 q 206 494 186 464 q 167 454 189 485 q 149 411 143 422 m 1076 240 q 1107 252 1093 239 q 1115 275 1121 265 l 1093 261 q 1076 240 1081 251 z "},"ゐ":{"ha":1389,"x_min":229,"x_max":1150,"o":"m 685 -24 q 683 -14 681 -22 q 685 -4 686 -6 q 608 51 656 0 q 557 146 557 104 q 644 218 557 192 q 767 238 711 238 q 906 183 871 238 q 829 65 903 117 q 846 60 835 60 q 901 85 868 60 q 981 168 946 118 q 1025 281 1026 233 q 993 343 1022 319 q 961 361 988 349 q 886 396 935 374 q 796 472 814 429 q 817 593 817 572 q 810 646 817 618 q 755 635 785 647 q 714 606 725 622 q 708 571 713 604 q 685 547 707 550 q 693 517 685 524 q 627 360 654 424 q 582 261 600 297 q 442 35 511 113 q 408 36 439 35 q 317 40 376 38 q 283 101 283 81 q 288 119 283 111 q 254 158 272 128 q 235 158 247 156 q 235 239 229 214 q 257 279 240 257 l 283 318 q 428 506 335 419 q 364 418 429 503 q 263 274 289 319 q 313 336 269 274 q 394 422 360 404 q 454 504 410 464 q 524 576 508 553 q 533 574 526 578 q 539 572 538 572 q 599 638 549 606 q 660 696 650 671 l 647 694 q 682 761 665 722 q 717 851 699 800 l 776 1026 q 768 1042 776 1031 q 760 1054 764 1047 q 757 1068 757 1061 q 800 1076 783 1060 q 913 933 904 1046 q 882 918 893 918 q 868 924 874 918 q 849 892 860 913 q 828 842 839 872 q 785 760 806 785 q 854 733 821 756 q 885 713 869 724 q 917 690 901 701 q 931 596 931 667 q 928 535 931 565 q 921 476 926 506 l 1065 389 q 1130 328 1110 363 q 1150 257 1150 293 q 1150 245 1150 251 q 1149 233 1150 239 q 1115 147 1142 201 q 1061 65 1088 92 l 1042 51 q 1017 38 1032 46 q 981 24 1003 31 q 921 -4 938 8 q 827 -10 886 -6 q 685 -24 768 -15 m 476 703 q 447 714 458 703 q 394 794 403 767 q 390 831 390 810 q 391 852 390 839 q 393 883 392 865 q 397 939 397 921 q 397 959 397 950 q 394 976 396 968 q 460 944 432 972 q 474 925 464 939 q 500 888 485 911 q 533 908 511 893 q 586 950 554 924 q 674 997 635 990 q 610 921 654 968 q 572 879 588 897 q 549 849 556 861 q 521 751 521 804 q 522 733 521 742 q 524 714 522 724 q 476 703 494 703 m 346 135 q 405 202 375 163 q 463 293 435 242 l 558 472 q 553 481 561 481 q 517 444 539 467 q 467 388 494 421 q 408 315 429 344 q 376 271 386 286 q 332 140 325 196 q 346 135 340 140 m 728 56 q 761 101 747 67 q 771 150 771 126 q 660 94 672 143 q 692 74 671 83 l 728 56 z "},"ゑ":{"ha":1389,"x_min":194,"x_max":1168,"o":"m 875 -24 q 832 -4 867 -24 q 764 13 800 15 q 829 32 803 32 q 858 21 847 32 q 890 49 875 29 q 919 74 906 68 q 917 76 917 76 q 892 64 917 75 q 904 79 888 69 q 933 89 921 89 q 939 88 938 89 q 994 129 950 107 q 1042 178 1036 151 q 1015 182 1028 181 q 988 183 1001 183 q 836 142 910 183 q 740 44 767 103 q 656 3 707 3 q 569 29 613 3 q 501 93 525 56 l 367 60 q 303 30 328 50 q 267 -17 278 10 q 214 17 231 -24 q 206 45 211 24 q 194 101 201 67 q 222 122 204 110 q 267 149 240 133 l 279 144 q 309 167 292 151 q 349 210 326 183 q 429 281 394 263 q 410 308 419 292 q 389 344 400 324 q 351 413 358 403 q 503 714 503 556 q 503 732 503 724 q 501 750 503 740 q 356 854 417 782 q 374 853 363 854 q 404 851 386 853 q 436 850 422 850 q 460 850 450 850 q 547 868 521 850 q 599 965 578 888 l 632 1089 q 707 1042 675 1074 q 740 974 739 1010 q 708 907 740 963 l 778 919 q 767 940 781 926 q 750 963 753 954 q 770 951 757 963 q 793 939 783 940 q 806 941 799 939 q 824 946 814 943 q 838 951 831 949 q 849 953 844 953 q 892 944 871 951 q 933 921 914 936 q 976 846 974 890 l 901 829 q 821 822 851 818 q 742 794 794 799 q 694 788 713 792 q 667 779 675 785 q 590 633 632 757 l 707 675 q 776 694 744 689 q 832 700 807 700 q 882 693 857 700 q 942 647 917 682 q 990 586 979 596 q 959 500 979 547 q 910 397 939 453 q 854 351 876 382 q 679 285 738 325 q 579 264 625 289 l 501 219 q 449 167 490 194 l 517 153 q 556 138 539 149 q 582 117 572 128 q 701 163 632 126 q 758 193 729 178 q 814 222 786 208 q 931 246 851 238 q 1019 247 1003 251 q 1107 231 1078 242 q 1165 178 1157 211 q 1160 150 1168 165 q 1153 121 1153 126 q 1154 110 1153 114 l 1131 92 q 1117 64 1117 82 q 915 -21 1028 -18 l 908 -17 q 910 -11 908 -12 q 875 -24 892 -24 m 525 385 q 613 431 549 433 q 699 393 669 428 q 867 619 861 493 q 815 635 847 635 q 632 563 725 635 q 583 511 615 550 q 558 481 568 493 q 543 464 549 469 q 547 446 549 458 l 533 446 q 536 433 536 438 q 529 414 536 425 q 522 396 522 403 q 523 390 522 393 q 525 385 524 388 z "},"を":{"ha":1389,"x_min":176,"x_max":1150,"o":"m 726 44 q 694 49 711 44 l 640 131 q 607 217 607 181 q 608 230 607 224 q 610 242 608 236 q 593 251 610 250 q 581 265 579 253 q 651 288 618 264 l 699 332 q 639 393 693 343 q 601 464 601 429 q 602 475 601 469 q 604 486 603 481 q 649 544 611 514 q 703 600 693 582 q 624 579 676 600 q 539 551 565 556 q 492 522 528 536 q 446 490 454 510 q 436 493 443 489 q 431 496 432 496 q 378 453 419 471 q 289 436 336 436 q 176 501 193 436 q 259 537 203 511 q 401 603 315 563 q 638 693 542 668 q 660 744 651 706 q 665 771 663 758 q 669 797 668 783 q 454 882 521 789 q 495 891 465 886 q 572 901 525 896 q 689 933 660 913 q 692 983 690 943 q 694 1093 693 1022 q 728 1104 713 1104 q 789 1057 767 1104 q 803 1016 799 1036 q 807 976 808 996 q 849 983 831 983 q 967 911 924 983 q 885 861 946 885 q 799 825 814 836 q 764 779 794 806 q 738 731 735 753 q 835 747 760 733 q 897 758 869 754 q 942 761 924 761 q 1018 735 996 761 q 1033 669 1038 711 q 909 599 986 651 q 788 528 832 547 l 799 524 q 740 492 763 514 q 718 444 717 469 q 769 388 719 411 q 982 454 853 457 q 1150 374 1107 451 q 1047 258 1121 288 q 974 241 1018 247 q 868 236 929 235 q 859 176 867 213 q 840 90 851 139 q 822 82 835 89 q 789 64 808 75 q 726 44 754 44 m 831 -64 l 831 -50 q 754 -54 801 -60 q 661 -56 699 -47 q 615 -44 649 -49 q 576 -21 588 -40 q 565 -22 574 -21 q 543 -26 557 -24 q 350 260 332 56 q 450 303 393 300 q 456 182 454 186 q 515 82 465 122 q 713 36 613 43 q 766 36 735 35 q 838 42 797 38 q 915 49 883 47 q 963 51 946 51 q 1046 40 1008 51 q 1061 1 1049 25 q 1063 -11 1063 -3 q 1024 -40 1063 -39 l 961 -44 q 954 -54 960 -54 q 942 -49 950 -54 q 929 -44 933 -44 q 910 -57 928 -54 q 888 -50 892 -58 q 831 -64 861 -65 m 840 299 q 921 318 875 296 q 962 344 944 329 q 990 374 979 358 q 929 374 965 385 q 868 342 897 365 q 840 299 839 318 m 722 153 q 746 181 746 156 l 746 224 q 714 183 714 221 q 722 153 714 165 z "},"ん":{"ha":1389,"x_min":256,"x_max":1211,"o":"m 329 43 q 258 196 256 100 q 364 450 261 319 q 392 442 385 454 q 442 521 417 465 q 466 575 456 553 q 485 607 476 597 q 505 676 490 638 q 546 758 519 715 q 572 802 549 765 q 638 907 596 839 q 669 964 654 935 q 706 1006 685 993 l 761 947 q 794 878 794 913 q 781 840 794 858 q 601 607 721 768 q 583 577 592 594 q 565 536 575 560 q 547 492 554 510 q 535 468 539 475 l 513 450 q 496 401 507 440 q 472 356 485 368 q 535 204 489 276 q 699 153 607 153 q 1211 410 889 153 q 1185 374 1208 397 q 1192 343 1189 365 q 1193 315 1192 317 q 1168 285 1174 308 q 1157 249 1160 256 q 1149 253 1156 247 q 1040 158 1104 196 q 988 128 1021 129 q 974 106 983 118 q 960 106 967 107 q 946 106 953 106 q 932 103 939 104 q 919 106 925 103 q 911 88 919 100 q 818 60 865 74 q 718 43 771 47 l 714 51 q 699 50 707 50 q 685 50 692 50 q 530 99 600 50 q 418 231 460 147 q 356 60 372 188 q 329 43 346 58 z "},"ゔ":{"ha":1389,"x_min":149,"x_max":1318,"o":"m 746 -101 q 697 -96 733 -106 q 668 -84 681 -90 q 647 -72 656 -78 q 579 4 624 -56 q 504 86 533 64 q 470 101 490 90 q 425 126 450 111 q 417 176 417 153 q 442 244 417 215 q 518 288 467 272 q 599 309 558 300 q 681 329 640 318 q 681 440 682 364 q 661 430 675 439 q 624 407 647 421 q 590 392 606 396 q 563 389 575 389 q 515 432 532 393 q 504 507 501 464 l 757 632 q 892 703 832 668 q 997 769 951 739 q 522 672 758 781 l 435 618 q 381 595 408 601 q 331 590 354 589 q 222 640 276 597 q 149 722 174 679 q 200 717 168 717 q 260 724 225 718 q 339 744 294 731 l 493 793 q 690 840 597 826 q 865 853 783 853 q 957 850 910 853 q 1181 747 1133 835 q 1180 734 1178 742 q 1183 721 1182 726 q 1186 714 1186 715 q 1181 699 1186 706 q 1062 658 1139 681 q 874 611 985 636 q 883 617 874 617 q 894 622 893 618 q 750 586 800 628 q 853 496 839 553 q 797 431 808 449 q 781 333 774 388 q 826 339 800 339 q 885 331 854 339 q 947 308 915 324 q 1025 222 1025 272 q 972 157 1025 185 q 936 162 963 157 q 893 167 910 167 q 840 157 864 167 q 839 163 839 158 q 851 186 839 169 q 864 213 864 203 q 858 228 864 222 q 790 228 840 238 q 792 158 792 201 q 793 54 793 115 q 746 -101 793 -90 m 563 868 q 561 876 561 871 q 582 911 561 890 q 600 926 592 918 q 617 940 608 933 l 563 988 q 533 1038 532 1014 q 587 1045 561 1042 q 638 1049 613 1049 q 825 931 803 1049 q 729 910 801 907 q 619 906 638 911 q 563 868 585 897 m 1054 964 q 999 1027 1024 988 q 965 1094 975 1067 q 1052 1094 1011 1107 q 1122 1049 1093 1081 q 1157 972 1150 1017 q 1104 945 1131 944 q 1054 964 1078 946 m 1318 1051 q 1257 1028 1285 1024 q 1206 1056 1229 1033 q 1158 1115 1179 1081 q 1118 1169 1136 1149 q 1199 1169 1154 1176 q 1279 1133 1244 1161 q 1318 1051 1314 1106 m 665 60 q 674 130 671 93 q 676 207 676 167 q 606 190 628 197 q 547 161 567 178 q 569 131 556 146 q 600 103 582 115 q 665 60 604 100 z "},"A":{"ha":1222,"x_min":83,"x_max":1157,"o":"m 185 -46 q 156 -15 163 -40 q 152 41 150 10 q 158 94 154 72 q 160 110 160 106 q 207 328 174 232 q 279 518 240 425 q 252 523 265 521 q 224 526 239 525 q 168 534 196 529 q 119 553 140 539 q 92 594 99 567 q 99 653 83 633 q 135 674 114 674 q 168 658 153 674 q 181 607 183 642 q 196 604 186 606 q 265 594 229 599 q 332 603 301 590 q 372 639 347 610 q 419 696 396 668 q 444 724 435 715 q 460 742 453 733 q 684 910 563 844 q 950 1035 806 976 q 981 1034 961 1039 q 1010 1015 1000 1029 q 1003 931 1010 975 q 989 843 997 888 q 972 724 979 786 q 969 604 964 661 q 999 596 981 597 q 1054 597 1017 594 q 1117 598 1086 600 q 1153 568 1147 596 q 1141 534 1157 543 q 1099 524 1125 525 q 1046 525 1072 524 q 1043 525 1044 525 q 999 528 1019 528 q 963 524 978 528 q 975 150 938 365 q 981 122 978 136 q 989 92 985 107 q 1006 2 1006 29 q 996 -40 1007 -25 q 947 -35 964 -50 q 922 6 929 -21 q 908 57 914 32 q 908 60 908 58 q 906 74 907 67 q 904 86 906 81 q 878 282 886 169 q 875 511 869 394 q 767 520 831 517 q 632 525 703 524 q 496 524 561 526 q 443 522 469 522 q 393 521 417 521 q 321 399 354 474 q 265 239 288 325 q 238 68 243 153 q 236 53 236 61 q 236 35 236 44 q 234 -7 236 14 q 222 -40 232 -28 q 185 -46 211 -51 m 460 607 q 594 597 519 599 q 743 597 668 594 q 876 608 818 600 q 890 717 881 661 q 905 826 899 772 q 910 931 911 881 q 647 794 758 876 q 460 607 536 711 z "},"Æ":{"ha":1842,"x_min":83,"x_max":1818,"o":"m 185 -46 q 156 -15 163 -40 q 152 41 150 10 q 158 94 154 72 q 160 110 160 106 q 207 328 174 232 q 279 518 240 425 q 252 523 265 521 q 224 526 239 525 q 168 534 196 529 q 119 553 140 539 q 92 594 99 567 q 99 653 83 633 q 135 674 114 674 q 168 658 153 674 q 181 607 183 642 q 196 604 186 606 q 265 594 229 599 q 332 603 301 590 q 372 639 347 610 q 419 696 396 668 q 444 724 435 715 q 460 742 453 733 q 684 910 563 844 q 950 1035 806 976 q 981 1034 961 1039 q 1010 1015 1000 1029 q 1006 944 1010 983 q 1110 997 1050 976 q 1239 1019 1171 1017 q 1397 1005 1315 1022 q 1547 955 1478 988 q 1654 881 1615 922 q 1686 835 1671 864 q 1706 775 1701 806 q 1697 720 1711 744 q 1643 689 1683 696 l 1636 690 q 1615 715 1618 704 q 1618 747 1613 726 q 1621 785 1624 772 q 1575 849 1614 819 q 1481 899 1536 878 q 1367 931 1425 919 q 1263 943 1308 943 q 1166 930 1215 943 q 1074 893 1117 917 q 1006 837 1032 869 q 980 767 981 804 q 1014 688 979 729 q 1139 613 1057 639 q 1307 583 1221 588 q 1325 583 1315 582 q 1343 585 1335 583 q 1354 586 1350 586 q 1406 589 1379 589 q 1454 571 1432 589 q 1409 510 1447 521 q 1278 513 1371 499 q 1269 513 1274 513 q 1260 515 1264 514 q 1233 518 1246 517 q 1211 518 1221 519 q 1100 489 1150 517 q 1021 415 1050 461 q 989 310 992 368 q 1035 157 986 217 q 1164 69 1083 97 q 1335 39 1244 40 q 1474 54 1406 39 q 1600 99 1543 69 q 1692 172 1657 129 q 1697 183 1693 175 q 1708 208 1701 190 q 1742 270 1728 253 q 1772 289 1756 288 q 1813 262 1808 290 q 1792 182 1818 233 q 1764 137 1782 161 q 1728 94 1746 113 q 1551 -6 1660 26 q 1331 -35 1443 -39 q 1139 3 1231 -31 q 988 99 1047 36 q 989 92 988 94 q 1006 2 1006 29 q 996 -40 1007 -25 q 947 -35 964 -50 q 922 6 929 -21 q 908 57 914 32 q 908 60 908 58 q 906 74 907 67 q 904 86 906 81 q 878 282 886 169 q 875 511 869 394 q 767 520 831 517 q 632 525 703 524 q 496 524 561 526 q 443 522 469 522 q 393 521 417 521 q 321 399 354 474 q 265 239 288 325 q 238 68 243 153 q 236 53 236 61 q 236 35 236 44 q 234 -7 236 14 q 222 -40 232 -28 q 185 -46 211 -51 m 460 607 q 594 597 519 599 q 743 597 668 594 q 876 608 818 600 q 890 717 881 661 q 905 826 899 772 q 910 931 911 881 q 647 794 758 876 q 460 607 536 711 m 957 457 q 1057 554 993 510 q 1038 569 1047 561 q 1013 589 1028 578 q 988 608 1000 599 q 964 626 975 617 q 959 543 961 586 q 957 457 957 500 z "},"Á":{"ha":1222,"x_min":83,"x_max":1157,"o":"m 185 -46 q 156 -15 163 -40 q 152 41 150 10 q 158 94 154 72 q 160 110 160 106 q 207 328 174 232 q 279 518 240 425 q 252 523 265 521 q 224 526 239 525 q 168 534 196 529 q 119 553 140 539 q 92 594 99 567 q 99 653 83 633 q 135 674 114 674 q 168 658 153 674 q 181 607 183 642 q 196 604 186 606 q 265 594 229 599 q 332 603 301 590 q 372 639 347 610 q 419 696 396 668 q 444 724 435 715 q 460 742 453 733 q 684 910 563 844 q 950 1035 806 976 q 981 1034 961 1039 q 1010 1015 1000 1029 q 1003 931 1010 975 q 989 843 997 888 q 972 724 979 786 q 969 604 964 661 q 999 596 981 597 q 1054 597 1017 594 q 1117 598 1086 600 q 1153 568 1147 596 q 1141 534 1157 543 q 1099 524 1125 525 q 1046 525 1072 524 q 1043 525 1044 525 q 999 528 1019 528 q 963 524 978 528 q 975 150 938 365 q 981 122 978 136 q 989 92 985 107 q 1006 2 1006 29 q 996 -40 1007 -25 q 947 -35 964 -50 q 922 6 929 -21 q 908 57 914 32 q 908 60 908 58 q 906 74 907 67 q 904 86 906 81 q 878 282 886 169 q 875 511 869 394 q 767 520 831 517 q 632 525 703 524 q 496 524 561 526 q 443 522 469 522 q 393 521 417 521 q 321 399 354 474 q 265 239 288 325 q 238 68 243 153 q 236 53 236 61 q 236 35 236 44 q 234 -7 236 14 q 222 -40 232 -28 q 185 -46 211 -51 m 460 607 q 594 597 519 599 q 743 597 668 594 q 876 608 818 600 q 890 717 881 661 q 905 826 899 772 q 910 931 911 881 q 647 794 758 876 q 460 607 536 711 m 925 1076 q 897 1072 903 1063 q 901 1103 892 1082 q 925 1147 913 1126 q 950 1189 938 1168 q 984 1237 967 1217 q 1032 1258 1001 1257 q 1067 1243 1051 1260 q 1083 1213 1083 1226 q 1063 1177 1083 1194 q 1018 1144 1042 1160 q 971 1111 993 1128 q 925 1076 949 1094 z "},"Â":{"ha":1222,"x_min":83,"x_max":1157,"o":"m 185 -46 q 156 -15 163 -40 q 152 41 150 10 q 158 94 154 72 q 160 110 160 106 q 207 328 174 232 q 279 518 240 425 q 252 523 265 521 q 224 526 239 525 q 168 534 196 529 q 119 553 140 539 q 92 594 99 567 q 99 653 83 633 q 135 674 114 674 q 168 658 153 674 q 181 607 183 642 q 196 604 186 606 q 265 594 229 599 q 332 603 301 590 q 372 639 347 610 q 419 696 396 668 q 444 724 435 715 q 460 742 453 733 q 684 910 563 844 q 950 1035 806 976 q 981 1034 961 1039 q 1010 1015 1000 1029 q 1003 931 1010 975 q 989 843 997 888 q 972 724 979 786 q 969 604 964 661 q 999 596 981 597 q 1054 597 1017 594 q 1117 598 1086 600 q 1153 568 1147 596 q 1141 534 1157 543 q 1099 524 1125 525 q 1046 525 1072 524 q 1043 525 1044 525 q 999 528 1019 528 q 963 524 978 528 q 975 150 938 365 q 981 122 978 136 q 989 92 985 107 q 1006 2 1006 29 q 996 -40 1007 -25 q 947 -35 964 -50 q 922 6 929 -21 q 908 57 914 32 q 908 60 908 58 q 906 74 907 67 q 904 86 906 81 q 878 282 886 169 q 875 511 869 394 q 767 520 831 517 q 632 525 703 524 q 496 524 561 526 q 443 522 469 522 q 393 521 417 521 q 321 399 354 474 q 265 239 288 325 q 238 68 243 153 q 236 53 236 61 q 236 35 236 44 q 234 -7 236 14 q 222 -40 232 -28 q 185 -46 211 -51 m 460 607 q 594 597 519 599 q 743 597 668 594 q 876 608 818 600 q 890 717 881 661 q 905 826 899 772 q 910 931 911 881 q 647 794 758 876 q 460 607 536 711 m 749 1053 q 801 1128 768 1083 q 857 1211 835 1174 q 864 1226 860 1217 q 872 1244 868 1235 q 892 1280 881 1267 q 918 1293 903 1293 q 953 1277 940 1293 q 971 1243 965 1261 q 976 1230 974 1236 q 982 1218 979 1224 q 1043 1140 1010 1176 q 1106 1069 1076 1103 q 1082 1047 1099 1047 q 1058 1053 1065 1047 q 1035 1073 1053 1057 q 994 1110 1017 1089 q 953 1154 972 1132 q 925 1193 933 1176 q 881 1136 907 1164 q 835 1088 856 1108 q 806 1058 814 1067 q 778 1047 796 1049 q 749 1053 761 1046 z "},"Ä":{"ha":1222,"x_min":83,"x_max":1157,"o":"m 185 -46 q 156 -15 163 -40 q 152 41 150 10 q 158 94 154 72 q 160 110 160 106 q 207 328 174 232 q 279 518 240 425 q 252 523 265 521 q 224 526 239 525 q 168 534 196 529 q 119 553 140 539 q 92 594 99 567 q 99 653 83 633 q 135 674 114 674 q 168 658 153 674 q 181 607 183 642 q 196 604 186 606 q 265 594 229 599 q 332 603 301 590 q 372 639 347 610 q 419 696 396 668 q 444 724 435 715 q 460 742 453 733 q 684 910 563 844 q 950 1035 806 976 q 981 1034 961 1039 q 1010 1015 1000 1029 q 1003 931 1010 975 q 989 843 997 888 q 972 724 979 786 q 969 604 964 661 q 999 596 981 597 q 1054 597 1017 594 q 1117 598 1086 600 q 1153 568 1147 596 q 1141 534 1157 543 q 1099 524 1125 525 q 1046 525 1072 524 q 1043 525 1044 525 q 999 528 1019 528 q 963 524 978 528 q 975 150 938 365 q 981 122 978 136 q 989 92 985 107 q 1006 2 1006 29 q 996 -40 1007 -25 q 947 -35 964 -50 q 922 6 929 -21 q 908 57 914 32 q 908 60 908 58 q 906 74 907 67 q 904 86 906 81 q 878 282 886 169 q 875 511 869 394 q 767 520 831 517 q 632 525 703 524 q 496 524 561 526 q 443 522 469 522 q 393 521 417 521 q 321 399 354 474 q 265 239 288 325 q 238 68 243 153 q 236 53 236 61 q 236 35 236 44 q 234 -7 236 14 q 222 -40 232 -28 q 185 -46 211 -51 m 460 607 q 594 597 519 599 q 743 597 668 594 q 876 608 818 600 q 890 717 881 661 q 905 826 899 772 q 910 931 911 881 q 647 794 758 876 q 460 607 536 711 m 797 1076 q 749 1094 771 1078 q 722 1140 726 1111 q 742 1204 717 1168 q 813 1218 778 1232 q 865 1171 849 1204 q 847 1097 869 1119 q 797 1076 825 1075 m 1075 1076 q 1026 1094 1049 1078 q 999 1140 1004 1111 q 1019 1204 994 1168 q 1091 1218 1056 1232 q 1143 1171 1126 1204 q 1125 1097 1147 1119 q 1075 1076 1103 1075 z "},"À":{"ha":1222,"x_min":83,"x_max":1157,"o":"m 185 -46 q 156 -15 163 -40 q 152 41 150 10 q 158 94 154 72 q 160 110 160 106 q 207 328 174 232 q 279 518 240 425 q 252 523 265 521 q 224 526 239 525 q 168 534 196 529 q 119 553 140 539 q 92 594 99 567 q 99 653 83 633 q 135 674 114 674 q 168 658 153 674 q 181 607 183 642 q 196 604 186 606 q 265 594 229 599 q 332 603 301 590 q 372 639 347 610 q 419 696 396 668 q 444 724 435 715 q 460 742 453 733 q 684 910 563 844 q 950 1035 806 976 q 981 1034 961 1039 q 1010 1015 1000 1029 q 1003 931 1010 975 q 989 843 997 888 q 972 724 979 786 q 969 604 964 661 q 999 596 981 597 q 1054 597 1017 594 q 1117 598 1086 600 q 1153 568 1147 596 q 1141 534 1157 543 q 1099 524 1125 525 q 1046 525 1072 524 q 1043 525 1044 525 q 999 528 1019 528 q 963 524 978 528 q 975 150 938 365 q 981 122 978 136 q 989 92 985 107 q 1006 2 1006 29 q 996 -40 1007 -25 q 947 -35 964 -50 q 922 6 929 -21 q 908 57 914 32 q 908 60 908 58 q 906 74 907 67 q 904 86 906 81 q 878 282 886 169 q 875 511 869 394 q 767 520 831 517 q 632 525 703 524 q 496 524 561 526 q 443 522 469 522 q 393 521 417 521 q 321 399 354 474 q 265 239 288 325 q 238 68 243 153 q 236 53 236 61 q 236 35 236 44 q 234 -7 236 14 q 222 -40 232 -28 q 185 -46 211 -51 m 460 607 q 594 597 519 599 q 743 597 668 594 q 876 608 818 600 q 890 717 881 661 q 905 826 899 772 q 910 931 911 881 q 647 794 758 876 q 460 607 536 711 m 1006 1079 q 960 1114 982 1097 q 913 1147 938 1131 q 869 1180 890 1163 q 847 1215 847 1197 q 864 1246 847 1229 q 899 1261 881 1263 q 947 1240 929 1260 q 981 1192 964 1219 q 1006 1150 993 1171 q 1029 1106 1018 1129 q 1034 1075 1040 1085 q 1006 1079 1028 1065 z "},"Å":{"ha":1222,"x_min":83,"x_max":1157,"o":"m 185 -46 q 156 -15 163 -40 q 152 41 150 10 q 158 94 154 72 q 160 110 160 106 q 207 328 174 232 q 279 518 240 425 q 252 523 265 521 q 224 526 239 525 q 168 534 196 529 q 119 553 140 539 q 92 594 99 567 q 99 653 83 633 q 135 674 114 674 q 168 658 153 674 q 181 607 183 642 q 196 604 186 606 q 265 594 229 599 q 332 603 301 590 q 372 639 347 610 q 419 696 396 668 q 444 724 435 715 q 460 742 453 733 q 684 910 563 844 q 950 1035 806 976 q 981 1034 961 1039 q 1010 1015 1000 1029 q 1003 931 1010 975 q 989 843 997 888 q 972 724 979 786 q 969 604 964 661 q 999 596 981 597 q 1054 597 1017 594 q 1117 598 1086 600 q 1153 568 1147 596 q 1141 534 1157 543 q 1099 524 1125 525 q 1046 525 1072 524 q 1043 525 1044 525 q 999 528 1019 528 q 963 524 978 528 q 975 150 938 365 q 981 122 978 136 q 989 92 985 107 q 1006 2 1006 29 q 996 -40 1007 -25 q 947 -35 964 -50 q 922 6 929 -21 q 908 57 914 32 q 908 60 908 58 q 906 74 907 67 q 904 86 906 81 q 878 282 886 169 q 875 511 869 394 q 767 520 831 517 q 632 525 703 524 q 496 524 561 526 q 443 522 469 522 q 393 521 417 521 q 321 399 354 474 q 265 239 288 325 q 238 68 243 153 q 236 53 236 61 q 236 35 236 44 q 234 -7 236 14 q 222 -40 232 -28 q 185 -46 211 -51 m 460 607 q 594 597 519 599 q 743 597 668 594 q 876 608 818 600 q 890 717 881 661 q 905 826 899 772 q 910 931 911 881 q 647 794 758 876 q 460 607 536 711 m 971 1019 q 882 1056 914 1024 q 850 1149 850 1088 q 877 1222 850 1190 q 943 1264 904 1254 q 1033 1261 994 1279 q 1092 1204 1072 1243 q 1104 1114 1111 1165 q 1058 1042 1093 1067 q 971 1019 1022 1017 m 971 1072 q 1023 1096 999 1071 q 1047 1149 1047 1121 q 1039 1179 1047 1164 q 1019 1207 1031 1194 q 935 1200 964 1225 q 906 1143 906 1175 q 922 1096 906 1118 q 971 1072 938 1074 z "},"Ã":{"ha":1222,"x_min":83,"x_max":1157,"o":"m 185 -46 q 156 -15 163 -40 q 152 41 150 10 q 158 94 154 72 q 160 110 160 106 q 207 328 174 232 q 279 518 240 425 q 252 523 265 521 q 224 526 239 525 q 168 534 196 529 q 119 553 140 539 q 92 594 99 567 q 99 653 83 633 q 135 674 114 674 q 168 658 153 674 q 181 607 183 642 q 196 604 186 606 q 265 594 229 599 q 332 603 301 590 q 372 639 347 610 q 419 696 396 668 q 444 724 435 715 q 460 742 453 733 q 684 910 563 844 q 950 1035 806 976 q 981 1034 961 1039 q 1010 1015 1000 1029 q 1003 931 1010 975 q 989 843 997 888 q 972 724 979 786 q 969 604 964 661 q 999 596 981 597 q 1054 597 1017 594 q 1117 598 1086 600 q 1153 568 1147 596 q 1141 534 1157 543 q 1099 524 1125 525 q 1046 525 1072 524 q 1043 525 1044 525 q 999 528 1019 528 q 963 524 978 528 q 975 150 938 365 q 981 122 978 136 q 989 92 985 107 q 1006 2 1006 29 q 996 -40 1007 -25 q 947 -35 964 -50 q 922 6 929 -21 q 908 57 914 32 q 908 60 908 58 q 906 74 907 67 q 904 86 906 81 q 878 282 886 169 q 875 511 869 394 q 767 520 831 517 q 632 525 703 524 q 496 524 561 526 q 443 522 469 522 q 393 521 417 521 q 321 399 354 474 q 265 239 288 325 q 238 68 243 153 q 236 53 236 61 q 236 35 236 44 q 234 -7 236 14 q 222 -40 232 -28 q 185 -46 211 -51 m 460 607 q 594 597 519 599 q 743 597 668 594 q 876 608 818 600 q 890 717 881 661 q 905 826 899 772 q 910 931 911 881 q 647 794 758 876 q 460 607 536 711 m 1040 1082 q 989 1088 1022 1079 q 931 1110 956 1096 q 877 1144 900 1129 q 832 1160 854 1158 q 785 1144 801 1161 q 756 1108 768 1128 q 754 1149 746 1126 q 783 1191 763 1172 q 828 1214 803 1210 q 890 1208 863 1219 q 944 1182 918 1196 q 987 1160 965 1169 q 1032 1153 1008 1150 q 1076 1170 1050 1156 q 1111 1210 1101 1185 q 1128 1168 1129 1197 q 1105 1113 1126 1139 q 1040 1082 1083 1088 z "},"B":{"ha":1104,"x_min":92,"x_max":1028,"o":"m 203 -17 q 192 -15 197 -15 q 182 -14 186 -14 q 132 -3 147 -10 q 119 32 117 4 q 162 62 121 61 q 272 57 203 63 q 284 55 278 56 q 296 54 290 54 q 481 51 388 47 q 657 74 574 56 q 805 128 740 92 q 904 222 869 164 q 926 273 917 242 q 938 340 936 304 q 926 406 939 375 q 880 471 914 440 q 803 521 846 501 q 724 539 761 540 q 687 531 706 538 q 649 517 668 525 q 595 498 624 507 q 533 493 567 489 q 465 524 486 499 q 457 589 443 550 q 492 599 472 601 q 529 583 511 597 q 542 574 536 578 q 560 569 549 571 q 649 585 607 565 q 722 642 692 606 q 764 723 751 679 q 764 809 776 767 q 707 883 751 851 q 620 922 674 907 q 508 942 567 936 q 397 946 449 949 q 300 926 349 943 q 219 883 251 910 q 184 822 188 856 q 221 751 181 789 q 226 776 224 757 q 226 778 226 776 q 235 805 229 792 q 267 817 242 818 q 301 785 294 815 q 306 681 308 754 q 305 661 306 671 q 304 643 304 651 l 304 254 q 304 235 304 244 q 306 214 304 225 q 301 111 308 140 q 267 82 293 82 q 228 144 236 82 q 226 332 221 206 q 227 350 226 343 q 228 363 228 357 q 228 511 228 460 q 226 592 228 563 q 222 651 225 622 q 212 658 217 654 q 196 668 207 663 q 144 710 169 688 q 105 765 118 732 q 101 850 92 799 q 169 951 114 911 q 304 1009 224 990 q 471 1024 385 1028 q 620 999 547 1019 q 749 938 693 978 q 833 840 806 899 q 849 704 861 782 q 831 653 844 682 q 804 606 817 624 l 807 604 q 917 536 865 572 q 999 447 969 500 q 1019 311 1028 394 q 988 217 1015 265 q 925 127 961 168 q 856 64 889 86 q 732 13 807 33 q 567 -19 657 -8 q 384 -28 478 -29 q 203 -17 290 -28 z "},"C":{"ha":1117,"x_min":90,"x_max":1079,"o":"m 514 -36 q 308 30 399 -28 q 163 185 217 88 q 100 406 108 282 q 118 635 90 529 q 205 823 146 742 q 350 953 264 904 q 543 1013 436 1003 q 774 983 675 1026 q 908 854 874 940 q 922 743 931 799 q 881 644 913 688 q 801 578 849 600 q 697 564 754 556 q 625 606 660 571 q 585 679 590 640 q 586 733 582 701 q 608 789 590 765 q 664 808 626 813 q 681 779 679 797 q 676 722 683 761 q 673 671 671 693 q 707 640 675 649 q 774 653 742 632 q 824 712 806 674 q 838 793 843 750 q 791 875 832 840 q 688 927 750 910 q 550 938 625 944 q 347 854 433 926 q 216 667 260 782 q 182 411 172 553 q 215 268 188 338 q 292 144 242 199 q 417 62 343 90 q 589 40 492 33 q 800 108 706 50 q 954 265 894 165 q 964 288 960 276 q 971 311 968 300 q 992 363 979 338 q 1038 406 1006 389 q 1072 366 1064 386 q 1068 316 1079 346 q 1026 236 1057 286 q 913 94 985 160 q 740 -8 840 29 q 514 -36 640 -44 z "},"\r":{"ha":833,"x_min":0,"x_max":0,"o":""},"Ç":{"ha":1117,"x_min":90,"x_max":1079,"o":"m 514 -36 q 308 30 399 -28 q 163 185 217 88 q 100 406 108 282 q 118 635 90 529 q 205 823 146 742 q 350 953 264 904 q 543 1013 436 1003 q 774 983 675 1026 q 908 854 874 940 q 922 743 931 799 q 881 644 913 688 q 801 578 849 600 q 697 564 754 556 q 625 606 660 571 q 585 679 590 640 q 586 733 582 701 q 608 789 590 765 q 664 808 626 813 q 681 779 679 797 q 676 722 683 761 q 673 671 671 693 q 707 640 675 649 q 774 653 742 632 q 824 712 806 674 q 838 793 843 750 q 791 875 832 840 q 688 927 750 910 q 550 938 625 944 q 347 854 433 926 q 216 667 260 782 q 182 411 172 553 q 215 268 188 338 q 292 144 242 199 q 417 62 343 90 q 589 40 492 33 q 800 108 706 50 q 954 265 894 165 q 964 288 960 276 q 971 311 968 300 q 992 363 979 338 q 1038 406 1006 389 q 1072 366 1064 386 q 1068 316 1079 346 q 1026 236 1057 286 q 913 94 985 160 q 740 -8 840 29 q 514 -36 640 -44 m 546 -278 q 479 -264 511 -278 q 426 -236 447 -250 q 420 -218 421 -229 q 435 -207 419 -207 q 542 -228 493 -228 q 594 -210 569 -228 q 618 -169 618 -193 q 606 -133 618 -150 q 574 -112 593 -115 q 538 -116 564 -115 q 504 -103 513 -117 q 515 -77 508 -85 q 529 -60 522 -69 q 556 -18 544 -39 q 579 24 567 3 q 617 17 601 35 q 606 -20 617 1 q 588 -65 594 -42 q 653 -101 628 -75 q 679 -169 679 -128 q 653 -232 679 -219 q 610 -268 643 -258 q 546 -278 576 -278 z "},"D":{"ha":1257,"x_min":78,"x_max":1172,"o":"m 283 13 q 210 44 228 32 q 200 93 193 57 q 242 112 221 113 q 293 92 263 111 q 322 76 308 82 q 510 51 411 51 q 704 76 608 51 q 880 147 800 100 q 1013 260 960 193 q 1075 411 1065 326 q 1060 622 1090 532 q 965 775 1029 713 q 815 874 901 838 q 631 925 729 911 q 477 932 558 935 q 324 906 396 929 q 208 831 253 883 q 174 753 175 792 q 196 684 172 714 q 263 640 219 654 q 364 636 307 626 q 372 703 374 651 q 376 751 371 728 q 411 774 381 774 q 446 751 442 774 q 449 704 450 729 q 449 701 449 703 q 448 669 447 686 q 453 640 449 653 q 497 635 471 632 q 550 646 522 639 q 551 646 551 646 q 600 656 576 653 q 642 654 624 660 q 664 626 660 649 q 649 590 669 603 q 594 574 628 578 q 529 567 561 569 q 490 563 508 565 q 458 557 472 561 q 448 477 449 524 q 449 381 447 431 l 449 381 q 449 310 449 344 q 451 267 450 275 q 452 177 454 207 q 439 133 450 147 q 406 104 428 118 q 372 158 379 124 q 369 269 365 193 q 372 319 371 282 q 372 383 372 357 q 373 473 374 429 q 368 551 372 517 q 258 569 314 558 q 160 604 203 581 q 98 670 118 628 q 94 779 78 713 q 207 933 118 871 q 421 1006 296 994 q 717 990 578 1021 q 960 883 856 958 q 1118 691 1064 808 q 1157 415 1172 574 q 1088 229 1147 311 q 935 90 1028 147 q 730 5 842 33 q 502 -23 618 -24 q 283 13 386 -22 z "},"E":{"ha":1043,"x_min":96,"x_max":1019,"o":"m 532 -35 q 334 5 428 -31 q 178 108 240 40 q 108 276 117 176 q 258 554 96 439 q 239 569 249 561 q 214 589 229 578 q 142 652 175 618 q 103 746 108 686 q 140 878 96 818 q 262 977 183 939 q 440 1019 340 1015 q 598 1005 517 1022 q 748 955 679 988 q 856 881 817 922 q 888 835 872 864 q 908 775 903 806 q 899 720 913 744 q 844 689 885 696 l 838 690 q 817 715 819 704 q 819 747 814 726 q 822 785 825 772 q 776 849 815 819 q 682 899 738 878 q 568 931 626 919 q 464 943 510 943 q 367 930 417 943 q 276 893 318 917 q 208 837 233 869 q 181 767 182 804 q 215 688 181 729 q 340 613 258 639 q 508 583 422 588 q 526 583 517 582 q 544 585 536 583 q 556 586 551 586 q 607 589 581 589 q 656 571 633 589 q 610 510 649 521 q 479 513 572 499 q 470 513 475 513 q 461 515 465 514 q 435 518 447 517 q 413 518 422 519 q 301 489 350 517 q 222 415 251 461 q 190 310 193 368 q 236 157 188 217 q 365 69 285 97 q 536 39 446 40 q 676 54 607 39 q 801 99 744 69 q 893 172 858 129 q 899 183 894 175 q 910 208 903 190 q 943 270 929 253 q 974 289 957 288 q 1015 262 1010 290 q 993 182 1019 233 q 965 137 983 161 q 929 94 947 113 q 753 -6 861 26 q 532 -35 644 -39 z "},"É":{"ha":1043,"x_min":96,"x_max":1019,"o":"m 532 -35 q 334 5 428 -31 q 178 108 240 40 q 108 276 117 176 q 258 554 96 439 q 239 569 249 561 q 214 589 229 578 q 142 652 175 618 q 103 746 108 686 q 140 878 96 818 q 262 977 183 939 q 440 1019 340 1015 q 598 1005 517 1022 q 748 955 679 988 q 856 881 817 922 q 888 835 872 864 q 908 775 903 806 q 899 720 913 744 q 844 689 885 696 l 838 690 q 817 715 819 704 q 819 747 814 726 q 822 785 825 772 q 776 849 815 819 q 682 899 738 878 q 568 931 626 919 q 464 943 510 943 q 367 930 417 943 q 276 893 318 917 q 208 837 233 869 q 181 767 182 804 q 215 688 181 729 q 340 613 258 639 q 508 583 422 588 q 526 583 517 582 q 544 585 536 583 q 556 586 551 586 q 607 589 581 589 q 656 571 633 589 q 610 510 649 521 q 479 513 572 499 q 470 513 475 513 q 461 515 465 514 q 435 518 447 517 q 413 518 422 519 q 301 489 350 517 q 222 415 251 461 q 190 310 193 368 q 236 157 188 217 q 365 69 285 97 q 536 39 446 40 q 676 54 607 39 q 801 99 744 69 q 893 172 858 129 q 899 183 894 175 q 910 208 903 190 q 943 270 929 253 q 974 289 957 288 q 1015 262 1010 290 q 993 182 1019 233 q 965 137 983 161 q 929 94 947 113 q 753 -6 861 26 q 532 -35 644 -39 m 467 1049 q 439 1044 444 1035 q 443 1075 433 1054 q 467 1119 454 1099 q 492 1161 479 1140 q 526 1209 508 1189 q 574 1231 543 1229 q 609 1215 593 1232 q 625 1185 625 1199 q 604 1149 625 1167 q 560 1117 583 1132 q 513 1083 535 1100 q 467 1049 490 1067 z "},"Ê":{"ha":1043,"x_min":96,"x_max":1019,"o":"m 532 -35 q 334 5 428 -31 q 178 108 240 40 q 108 276 117 176 q 258 554 96 439 q 239 569 249 561 q 214 589 229 578 q 142 652 175 618 q 103 746 108 686 q 140 878 96 818 q 262 977 183 939 q 440 1019 340 1015 q 598 1005 517 1022 q 748 955 679 988 q 856 881 817 922 q 888 835 872 864 q 908 775 903 806 q 899 720 913 744 q 844 689 885 696 l 838 690 q 817 715 819 704 q 819 747 814 726 q 822 785 825 772 q 776 849 815 819 q 682 899 738 878 q 568 931 626 919 q 464 943 510 943 q 367 930 417 943 q 276 893 318 917 q 208 837 233 869 q 181 767 182 804 q 215 688 181 729 q 340 613 258 639 q 508 583 422 588 q 526 583 517 582 q 544 585 536 583 q 556 586 551 586 q 607 589 581 589 q 656 571 633 589 q 610 510 649 521 q 479 513 572 499 q 470 513 475 513 q 461 515 465 514 q 435 518 447 517 q 413 518 422 519 q 301 489 350 517 q 222 415 251 461 q 190 310 193 368 q 236 157 188 217 q 365 69 285 97 q 536 39 446 40 q 676 54 607 39 q 801 99 744 69 q 893 172 858 129 q 899 183 894 175 q 910 208 903 190 q 943 270 929 253 q 974 289 957 288 q 1015 262 1010 290 q 993 182 1019 233 q 965 137 983 161 q 929 94 947 113 q 753 -6 861 26 q 532 -35 644 -39 m 329 1039 q 382 1115 349 1069 q 438 1197 415 1160 q 444 1212 440 1203 q 453 1231 449 1221 q 472 1266 461 1253 q 499 1279 483 1279 q 533 1263 521 1279 q 551 1229 546 1247 q 557 1216 554 1222 q 563 1204 560 1210 q 624 1126 590 1163 q 686 1056 657 1089 q 663 1033 679 1033 q 639 1039 646 1033 q 615 1059 633 1043 q 575 1097 597 1075 q 533 1140 553 1118 q 506 1179 514 1163 q 462 1122 488 1150 q 415 1074 436 1094 q 386 1044 394 1053 q 359 1033 376 1035 q 329 1039 342 1032 z "},"Ë":{"ha":1043,"x_min":96,"x_max":1019,"o":"m 532 -35 q 334 5 428 -31 q 178 108 240 40 q 108 276 117 176 q 258 554 96 439 q 239 569 249 561 q 214 589 229 578 q 142 652 175 618 q 103 746 108 686 q 140 878 96 818 q 262 977 183 939 q 440 1019 340 1015 q 598 1005 517 1022 q 748 955 679 988 q 856 881 817 922 q 888 835 872 864 q 908 775 903 806 q 899 720 913 744 q 844 689 885 696 l 838 690 q 817 715 819 704 q 819 747 814 726 q 822 785 825 772 q 776 849 815 819 q 682 899 738 878 q 568 931 626 919 q 464 943 510 943 q 367 930 417 943 q 276 893 318 917 q 208 837 233 869 q 181 767 182 804 q 215 688 181 729 q 340 613 258 639 q 508 583 422 588 q 526 583 517 582 q 544 585 536 583 q 556 586 551 586 q 607 589 581 589 q 656 571 633 589 q 610 510 649 521 q 479 513 572 499 q 470 513 475 513 q 461 515 465 514 q 435 518 447 517 q 413 518 422 519 q 301 489 350 517 q 222 415 251 461 q 190 310 193 368 q 236 157 188 217 q 365 69 285 97 q 536 39 446 40 q 676 54 607 39 q 801 99 744 69 q 893 172 858 129 q 899 183 894 175 q 910 208 903 190 q 943 270 929 253 q 974 289 957 288 q 1015 262 1010 290 q 993 182 1019 233 q 965 137 983 161 q 929 94 947 113 q 753 -6 861 26 q 532 -35 644 -39 m 367 1049 q 318 1067 340 1050 q 291 1112 296 1083 q 311 1176 286 1140 q 383 1190 347 1204 q 435 1143 418 1176 q 417 1069 439 1092 q 367 1049 394 1047 m 644 1049 q 596 1067 618 1050 q 569 1112 574 1083 q 589 1176 564 1140 q 660 1190 625 1204 q 713 1143 696 1176 q 694 1069 717 1092 q 644 1049 672 1047 z "},"È":{"ha":1043,"x_min":96,"x_max":1019,"o":"m 532 -35 q 334 5 428 -31 q 178 108 240 40 q 108 276 117 176 q 258 554 96 439 q 239 569 249 561 q 214 589 229 578 q 142 652 175 618 q 103 746 108 686 q 140 878 96 818 q 262 977 183 939 q 440 1019 340 1015 q 598 1005 517 1022 q 748 955 679 988 q 856 881 817 922 q 888 835 872 864 q 908 775 903 806 q 899 720 913 744 q 844 689 885 696 l 838 690 q 817 715 819 704 q 819 747 814 726 q 822 785 825 772 q 776 849 815 819 q 682 899 738 878 q 568 931 626 919 q 464 943 510 943 q 367 930 417 943 q 276 893 318 917 q 208 837 233 869 q 181 767 182 804 q 215 688 181 729 q 340 613 258 639 q 508 583 422 588 q 526 583 517 582 q 544 585 536 583 q 556 586 551 586 q 607 589 581 589 q 656 571 633 589 q 610 510 649 521 q 479 513 572 499 q 470 513 475 513 q 461 515 465 514 q 435 518 447 517 q 413 518 422 519 q 301 489 350 517 q 222 415 251 461 q 190 310 193 368 q 236 157 188 217 q 365 69 285 97 q 536 39 446 40 q 676 54 607 39 q 801 99 744 69 q 893 172 858 129 q 899 183 894 175 q 910 208 903 190 q 943 270 929 253 q 974 289 957 288 q 1015 262 1010 290 q 993 182 1019 233 q 965 137 983 161 q 929 94 947 113 q 753 -6 861 26 q 532 -35 644 -39 m 519 1051 q 474 1086 496 1069 q 426 1119 451 1103 q 383 1152 404 1135 q 361 1188 361 1169 q 378 1218 361 1201 q 413 1233 394 1235 q 460 1212 443 1232 q 494 1164 478 1192 q 519 1122 507 1143 q 543 1078 532 1101 q 548 1047 554 1057 q 519 1051 542 1038 z "},"Ð":{"ha":1257,"x_min":78,"x_max":1172,"o":"m 136 304 q 152 356 138 335 q 210 385 167 376 q 286 397 243 392 q 372 407 329 403 q 373 483 374 446 q 368 551 372 521 q 258 569 314 558 q 160 604 203 581 q 98 670 118 628 q 94 779 78 713 q 207 933 118 871 q 421 1006 296 994 q 717 990 578 1021 q 960 883 856 958 q 1118 691 1064 808 q 1157 415 1172 574 q 1088 229 1147 311 q 935 90 1028 147 q 730 5 842 33 q 502 -23 618 -24 q 283 13 386 -22 q 210 44 228 32 q 200 93 193 57 q 242 112 221 113 q 293 92 263 111 q 322 76 308 82 q 510 51 411 51 q 704 76 608 51 q 880 147 800 100 q 1013 260 960 193 q 1075 411 1065 326 q 1060 622 1090 532 q 965 775 1029 713 q 815 874 901 838 q 631 925 729 911 q 477 932 558 935 q 324 906 396 929 q 208 831 253 883 q 174 753 175 792 q 196 684 172 714 q 263 640 219 654 q 364 636 307 626 q 372 703 374 651 q 376 751 371 728 q 411 774 381 774 q 446 751 442 774 q 449 704 450 729 q 449 701 449 703 q 448 669 447 686 q 453 640 449 653 q 497 635 471 632 q 550 646 522 639 q 551 646 551 646 q 600 656 576 653 q 642 654 624 660 q 664 626 660 649 q 649 590 669 603 q 594 574 628 578 q 529 567 561 569 q 490 563 508 565 q 458 557 472 561 q 449 492 450 529 q 449 414 447 454 q 505 419 479 417 q 546 422 531 421 q 592 423 565 424 q 641 419 618 422 q 668 407 664 415 q 651 370 675 382 q 592 354 628 358 q 524 349 556 350 q 505 347 514 347 q 489 346 496 347 q 449 342 469 344 q 449 294 449 315 q 451 267 450 272 q 452 177 454 207 q 439 133 450 147 q 406 104 428 118 q 372 158 379 124 q 369 269 365 193 q 370 294 369 276 q 372 332 371 311 q 249 316 310 324 q 136 304 189 308 z "},"F":{"ha":1186,"x_min":33,"x_max":1192,"o":"m 379 -43 q 267 -5 318 -37 q 206 71 215 28 q 208 153 197 117 q 245 206 218 189 q 310 211 272 222 q 314 179 317 193 q 300 146 311 165 q 288 101 286 122 q 317 56 290 75 q 382 33 343 36 q 498 55 449 28 q 581 131 547 82 q 636 242 615 181 q 668 367 657 303 q 682 490 679 432 q 622 501 654 503 q 556 496 590 500 l 553 496 q 478 490 517 492 q 404 503 440 489 q 360 540 376 515 q 340 591 343 565 q 348 633 336 617 q 388 647 360 650 q 416 633 411 646 q 422 610 421 621 q 431 578 424 589 q 508 573 467 574 q 592 574 549 572 q 696 574 644 576 q 780 745 736 658 q 888 893 824 832 q 837 896 865 894 q 776 899 808 897 q 591 908 692 904 q 395 913 490 913 q 231 904 300 913 q 184 893 211 901 q 138 871 157 885 q 119 838 118 857 q 138 812 122 815 q 176 810 153 808 q 229 804 213 810 q 256 779 246 799 q 233 741 251 753 q 190 728 214 729 q 142 731 165 726 q 107 739 119 735 q 48 798 63 757 q 50 882 33 839 q 111 950 67 925 q 229 983 154 975 q 394 990 304 990 q 574 985 485 989 q 678 982 618 983 q 803 980 739 981 q 926 980 868 979 q 1025 982 985 981 q 1098 983 1061 983 q 1161 974 1135 982 q 1189 944 1188 967 q 1171 910 1192 914 q 1125 907 1150 906 q 1114 907 1121 907 q 1091 907 1103 907 q 1067 904 1079 907 q 974 863 1017 896 q 898 782 932 829 q 839 682 864 735 q 797 579 814 629 q 821 572 804 574 q 876 575 838 571 l 876 575 q 931 578 903 578 q 976 568 958 578 q 993 533 994 558 q 973 501 992 510 q 927 494 954 493 q 872 497 900 494 q 860 499 868 497 q 814 501 835 500 q 779 494 793 501 q 770 455 775 475 q 761 413 765 435 q 730 283 747 350 q 687 156 713 217 q 621 49 661 96 q 522 -24 581 1 q 379 -43 463 -49 z "},"G":{"ha":1063,"x_min":107,"x_max":1004,"o":"m 499 -153 q 429 -135 464 -150 q 382 -110 394 -121 q 331 -33 343 -76 q 334 45 318 10 q 396 90 350 81 q 413 59 411 76 q 413 24 414 42 l 413 22 q 411 1 411 11 q 415 -19 411 -10 q 472 -76 428 -60 q 574 -78 517 -92 q 654 -31 624 -65 q 703 54 685 4 q 730 161 721 104 q 744 275 739 218 q 751 322 749 299 q 758 365 754 344 q 729 341 743 360 q 708 318 715 322 q 621 251 674 282 q 506 204 568 219 q 380 197 443 189 q 261 247 317 206 q 142 396 178 308 q 117 593 107 483 q 169 769 124 688 q 287 909 214 850 q 451 997 360 968 q 645 1019 543 1026 q 849 957 747 1011 q 986 793 1004 878 l 971 785 q 911 805 932 786 q 871 843 890 824 q 853 865 863 854 q 833 881 844 875 q 733 924 789 910 q 615 939 676 939 q 401 889 496 940 q 252 747 307 838 q 197 542 197 657 q 268 338 197 411 q 461 271 339 265 q 574 304 521 274 q 672 380 628 335 q 744 474 715 425 q 786 565 774 524 q 792 594 790 581 q 793 621 793 608 q 793 638 793 632 q 805 721 793 696 q 853 738 817 746 q 878 707 876 732 q 876 658 879 682 q 875 643 875 647 q 859 502 869 579 q 839 351 849 425 q 835 325 838 339 q 832 297 833 311 q 810 167 822 235 q 778 40 799 100 q 723 -67 758 -21 q 633 -137 688 -114 q 499 -153 579 -161 z "},"H":{"ha":1269,"x_min":88,"x_max":1189,"o":"m 129 -44 q 135 9 121 -12 q 168 49 150 31 q 169 51 169 50 q 199 86 189 71 q 282 291 253 176 q 326 539 311 406 q 284 551 308 550 q 232 553 260 553 q 163 558 197 553 q 107 588 128 563 q 90 637 88 613 q 106 678 92 661 q 137 699 119 696 q 168 688 154 703 q 182 631 182 672 q 253 622 214 622 q 326 626 292 621 q 310 846 338 758 q 226 947 283 933 q 190 947 214 951 q 118 958 146 940 q 122 1006 106 990 q 168 1024 139 1021 q 226 1025 197 1028 q 265 1018 254 1022 q 343 961 314 1003 q 388 863 372 919 q 410 747 403 807 q 421 632 417 686 q 556 622 482 624 q 705 622 629 619 q 851 626 781 624 q 870 627 861 626 q 889 628 879 628 q 933 840 908 754 q 999 976 957 925 q 1115 1047 1042 1026 q 1151 1015 1151 1033 q 1133 978 1151 997 q 1096 944 1115 960 l 1094 943 q 1010 814 1031 892 q 975 639 989 736 q 1008 622 986 625 q 1079 622 1031 618 q 1147 623 1115 625 q 1185 593 1179 621 q 1172 559 1189 568 q 1127 549 1156 550 q 1069 550 1099 549 q 1063 550 1065 550 q 1015 553 1038 553 q 981 549 993 553 q 985 352 972 454 q 1013 151 997 250 q 1016 123 1014 138 q 1021 94 1018 108 q 1022 84 1022 89 q 1024 72 1022 79 q 1029 -15 1035 13 q 996 -44 1024 -42 q 963 -26 975 -46 q 942 44 950 -6 q 922 183 933 94 q 914 256 919 208 q 902 360 908 304 q 892 465 896 415 q 888 542 888 514 q 751 552 825 550 q 601 552 678 554 q 456 547 525 550 q 437 547 446 547 q 419 546 428 546 q 381 369 401 460 q 333 194 361 279 q 260 39 304 110 q 215 -26 233 -4 q 177 -52 196 -49 q 129 -44 158 -56 z "},"I":{"ha":782,"x_min":58,"x_max":657,"o":"m 442 14 q 334 -26 389 -25 q 230 -2 279 -28 q 144 65 181 24 q 88 153 107 107 q 60 246 63 210 q 78 307 58 282 q 128 290 114 306 q 156 222 143 275 q 167 181 160 199 q 211 113 182 146 q 276 64 240 81 q 347 55 311 47 q 413 108 383 63 q 330 222 365 150 q 274 385 294 294 q 248 574 253 476 q 256 765 243 672 q 302 934 269 857 q 389 1058 335 1011 q 474 1098 435 1099 q 544 1069 513 1097 q 597 997 575 1042 q 633 901 619 953 q 649 803 646 849 q 647 574 657 693 q 610 342 638 454 q 541 144 583 231 q 442 14 499 57 m 456 181 q 526 351 499 251 q 565 565 554 450 q 568 797 576 679 q 559 859 567 819 q 539 938 551 899 q 508 1000 526 978 q 464 1007 489 1022 q 383 917 414 978 q 339 776 353 856 q 327 609 325 696 q 344 439 329 522 q 388 288 360 356 q 456 181 417 221 z "},"Í":{"ha":782,"x_min":58,"x_max":657,"o":"m 442 14 q 334 -26 389 -25 q 230 -2 279 -28 q 144 65 181 24 q 88 153 107 107 q 60 246 63 210 q 78 307 58 282 q 128 290 114 306 q 156 222 143 275 q 167 181 160 199 q 211 113 182 146 q 276 64 240 81 q 347 55 311 47 q 413 108 383 63 q 330 222 365 150 q 274 385 294 294 q 248 574 253 476 q 256 765 243 672 q 302 934 269 857 q 389 1058 335 1011 q 474 1098 435 1099 q 544 1069 513 1097 q 597 997 575 1042 q 633 901 619 953 q 649 803 646 849 q 647 574 657 693 q 610 342 638 454 q 541 144 583 231 q 442 14 499 57 m 456 181 q 526 351 499 251 q 565 565 554 450 q 568 797 576 679 q 559 859 567 819 q 539 938 551 899 q 508 1000 526 978 q 464 1007 489 1022 q 383 917 414 978 q 339 776 353 856 q 327 609 325 696 q 344 439 329 522 q 388 288 360 356 q 456 181 417 221 m 453 1135 q 425 1131 431 1121 q 429 1161 419 1140 q 453 1206 440 1185 q 478 1247 465 1226 q 512 1295 494 1275 q 560 1317 529 1315 q 595 1301 579 1318 q 611 1271 611 1285 q 590 1235 611 1253 q 546 1203 569 1218 q 499 1169 521 1186 q 453 1135 476 1153 z "},"Î":{"ha":782,"x_min":58,"x_max":657,"o":"m 442 14 q 334 -26 389 -25 q 230 -2 279 -28 q 144 65 181 24 q 88 153 107 107 q 60 246 63 210 q 78 307 58 282 q 128 290 114 306 q 156 222 143 275 q 167 181 160 199 q 211 113 182 146 q 276 64 240 81 q 347 55 311 47 q 413 108 383 63 q 330 222 365 150 q 274 385 294 294 q 248 574 253 476 q 256 765 243 672 q 302 934 269 857 q 389 1058 335 1011 q 474 1098 435 1099 q 544 1069 513 1097 q 597 997 575 1042 q 633 901 619 953 q 649 803 646 849 q 647 574 657 693 q 610 342 638 454 q 541 144 583 231 q 442 14 499 57 m 456 181 q 526 351 499 251 q 565 565 554 450 q 568 797 576 679 q 559 859 567 819 q 539 938 551 899 q 508 1000 526 978 q 464 1007 489 1022 q 383 917 414 978 q 339 776 353 856 q 327 609 325 696 q 344 439 329 522 q 388 288 360 356 q 456 181 417 221 m 276 1107 q 329 1183 296 1138 q 385 1265 363 1228 q 392 1280 388 1271 q 400 1299 396 1289 q 419 1334 408 1321 q 446 1347 431 1347 q 481 1331 468 1347 q 499 1297 493 1315 q 504 1284 501 1290 q 510 1272 507 1278 q 571 1194 538 1231 q 633 1124 604 1157 q 610 1101 626 1101 q 586 1107 593 1101 q 563 1127 581 1111 q 522 1165 544 1143 q 481 1208 500 1186 q 453 1247 461 1231 q 409 1190 435 1218 q 363 1142 383 1163 q 333 1113 342 1121 q 306 1101 324 1103 q 276 1107 289 1100 z "},"Ï":{"ha":782,"x_min":58,"x_max":657,"o":"m 442 14 q 334 -26 389 -25 q 230 -2 279 -28 q 144 65 181 24 q 88 153 107 107 q 60 246 63 210 q 78 307 58 282 q 128 290 114 306 q 156 222 143 275 q 167 181 160 199 q 211 113 182 146 q 276 64 240 81 q 347 55 311 47 q 413 108 383 63 q 330 222 365 150 q 274 385 294 294 q 248 574 253 476 q 256 765 243 672 q 302 934 269 857 q 389 1058 335 1011 q 474 1098 435 1099 q 544 1069 513 1097 q 597 997 575 1042 q 633 901 619 953 q 649 803 646 849 q 647 574 657 693 q 610 342 638 454 q 541 144 583 231 q 442 14 499 57 m 456 181 q 526 351 499 251 q 565 565 554 450 q 568 797 576 679 q 559 859 567 819 q 539 938 551 899 q 508 1000 526 978 q 464 1007 489 1022 q 383 917 414 978 q 339 776 353 856 q 327 609 325 696 q 344 439 329 522 q 388 288 360 356 q 456 181 417 221 m 307 1160 q 258 1178 281 1161 q 231 1223 236 1194 q 251 1288 226 1251 q 323 1301 288 1315 q 375 1254 358 1288 q 357 1181 379 1203 q 307 1160 335 1158 m 585 1160 q 536 1178 558 1161 q 509 1223 514 1194 q 529 1288 504 1251 q 601 1301 565 1315 q 653 1254 636 1288 q 635 1181 657 1203 q 585 1160 613 1158 z "},"Ì":{"ha":782,"x_min":58,"x_max":657,"o":"m 442 14 q 334 -26 389 -25 q 230 -2 279 -28 q 144 65 181 24 q 88 153 107 107 q 60 246 63 210 q 78 307 58 282 q 128 290 114 306 q 156 222 143 275 q 167 181 160 199 q 211 113 182 146 q 276 64 240 81 q 347 55 311 47 q 413 108 383 63 q 330 222 365 150 q 274 385 294 294 q 248 574 253 476 q 256 765 243 672 q 302 934 269 857 q 389 1058 335 1011 q 474 1098 435 1099 q 544 1069 513 1097 q 597 997 575 1042 q 633 901 619 953 q 649 803 646 849 q 647 574 657 693 q 610 342 638 454 q 541 144 583 231 q 442 14 499 57 m 456 181 q 526 351 499 251 q 565 565 554 450 q 568 797 576 679 q 559 859 567 819 q 539 938 551 899 q 508 1000 526 978 q 464 1007 489 1022 q 383 917 414 978 q 339 776 353 856 q 327 609 325 696 q 344 439 329 522 q 388 288 360 356 q 456 181 417 221 m 492 1135 q 446 1169 468 1153 q 399 1203 424 1186 q 355 1235 376 1218 q 333 1271 333 1253 q 350 1301 333 1285 q 385 1317 367 1318 q 433 1295 415 1315 q 467 1247 450 1275 q 492 1206 479 1226 q 515 1161 504 1185 q 520 1131 526 1140 q 492 1135 514 1121 z "},"J":{"ha":1022,"x_min":39,"x_max":1021,"o":"m 394 42 q 530 94 481 51 q 601 206 579 138 q 631 360 624 275 q 642 539 639 446 q 651 720 644 633 q 685 885 658 807 q 610 897 657 896 q 507 894 563 897 l 504 894 q 441 892 474 893 q 379 893 408 892 q 263 1040 179 903 l 269 1043 q 310 1033 301 1050 q 319 1001 318 1017 q 328 975 324 979 q 503 969 399 969 q 714 969 607 968 q 839 970 793 969 q 890 971 885 971 q 894 971 892 971 q 947 972 919 972 q 994 964 974 971 q 1017 940 1014 957 q 1001 906 1021 915 q 950 897 982 897 q 886 897 918 896 q 878 897 881 897 q 874 897 876 897 q 820 901 844 900 q 783 896 796 901 q 735 720 744 817 q 721 517 725 624 q 710 338 718 425 q 678 177 703 250 q 600 51 654 104 q 478 -20 549 1 q 335 -37 408 -42 q 197 -1 261 -32 q 91 83 132 29 q 46 211 50 136 q 115 418 39 321 q 206 506 168 488 q 286 507 243 525 q 272 455 292 474 q 232 422 253 436 q 231 422 231 422 q 210 408 217 413 q 199 399 204 404 q 128 217 124 315 q 203 76 132 124 q 394 42 275 28 z "},"K":{"ha":1172,"x_min":50,"x_max":1200,"o":"m 817 0 q 746 76 767 28 q 720 183 725 124 q 715 301 715 242 q 713 402 715 354 q 699 489 711 450 q 657 550 686 528 q 597 577 628 574 q 535 557 567 581 q 502 537 521 546 q 456 538 483 528 q 429 586 428 560 q 453 633 431 613 q 510 658 476 654 q 674 810 586 736 q 867 940 763 883 q 1092 1021 971 996 q 1128 972 1149 994 q 1022 925 1108 950 q 985 911 992 915 q 856 843 922 885 q 731 753 790 801 q 628 657 672 706 q 654 635 642 643 q 681 621 667 628 q 715 599 697 611 q 750 565 733 588 q 792 444 786 514 q 797 304 799 374 q 801 188 797 242 q 826 97 804 133 q 901 53 849 61 q 991 60 942 47 q 1083 92 1040 72 q 1158 113 1136 115 q 1200 89 1179 110 q 1162 35 1194 50 q 1100 11 1129 21 q 944 -23 1014 -15 q 817 0 875 -31 m 76 -25 q 72 20 64 -1 q 110 76 79 42 q 125 94 121 88 q 133 107 129 101 q 215 281 179 181 q 267 498 250 381 q 274 736 283 615 q 240 881 267 822 q 172 951 213 940 q 153 953 163 954 q 133 950 144 953 q 131 950 132 950 q 85 949 99 944 q 58 963 72 953 q 65 1010 50 994 q 108 1028 81 1025 q 168 1025 136 1031 q 227 1008 200 1019 q 267 986 254 997 q 335 869 314 942 q 359 707 357 796 q 349 527 361 618 q 317 356 338 436 q 275 218 297 275 q 244 140 261 181 q 207 64 228 99 q 138 -19 164 -3 q 76 -25 111 -35 z "},"L":{"ha":1110,"x_min":-14,"x_max":1071,"o":"m 607 -21 q 476 -17 547 -18 q 342 -17 404 -17 q 319 -17 339 -17 q 251 -15 294 -15 q 159 -15 208 -15 q 69 -17 110 -15 q 15 -14 43 -18 q -14 18 -14 -10 q 6 42 -14 33 q 53 54 25 50 q 108 61 82 58 q 163 68 146 65 q 190 75 181 71 q 272 169 243 103 q 318 324 301 235 q 347 508 335 413 q 376 697 360 604 q 425 865 393 789 q 513 982 457 940 q 605 1018 551 1013 q 711 1006 658 1024 q 799 947 764 988 q 839 840 835 906 q 813 708 843 764 q 734 610 782 651 q 636 540 686 569 q 547 495 575 503 q 490 510 519 488 q 512 558 488 538 q 563 588 536 578 q 584 595 576 592 q 597 601 592 599 q 667 656 629 622 q 733 735 706 690 q 757 835 760 781 q 727 913 756 888 q 659 941 699 939 q 581 924 619 943 q 521 869 543 906 q 463 706 482 806 q 429 497 444 606 q 401 317 417 406 q 356 157 385 228 q 328 110 346 132 q 308 65 311 89 l 310 65 q 478 54 386 60 q 662 48 569 49 q 833 54 754 47 q 982 158 967 63 q 997 210 989 194 q 1021 229 1004 226 q 1062 215 1053 235 q 1067 166 1071 196 q 1053 108 1063 136 q 1036 71 1043 81 q 935 -1 1000 19 q 787 -22 871 -21 q 607 -21 703 -24 z "},"Ł":{"ha":1110,"x_min":-14,"x_max":1071,"o":"m 74 228 q 63 257 60 244 q 79 282 65 269 q 135 310 99 297 q 199 331 172 324 q 260 348 228 339 q 326 367 293 357 q 337 437 332 401 q 347 508 342 472 q 376 697 360 604 q 425 865 393 789 q 513 982 457 940 q 605 1018 551 1013 q 711 1006 658 1024 q 799 947 764 988 q 839 840 835 906 q 813 708 843 764 q 734 610 782 651 q 636 540 686 569 q 547 495 575 503 q 490 510 519 488 q 512 558 488 538 q 563 588 536 578 q 584 595 576 592 q 597 601 592 599 q 667 656 629 622 q 733 735 706 690 q 757 835 760 781 q 727 913 756 888 q 659 941 699 939 q 581 924 619 943 q 521 869 543 906 q 463 706 482 806 q 429 497 444 606 q 422 444 425 471 q 414 392 418 418 q 525 423 471 408 q 622 449 579 438 q 682 452 660 458 q 713 438 704 446 q 690 401 713 415 q 618 385 667 386 q 518 358 571 372 q 403 325 465 344 q 382 237 393 279 q 356 157 371 194 q 328 110 346 132 q 308 65 311 89 l 310 65 q 478 54 386 60 q 662 48 569 49 q 833 54 754 47 q 982 158 967 63 q 997 210 989 194 q 1021 229 1004 226 q 1062 215 1053 235 q 1067 166 1071 196 q 1053 108 1063 136 q 1036 71 1043 81 q 935 -1 1000 19 q 787 -22 871 -21 q 607 -21 703 -24 q 476 -17 547 -18 q 342 -17 404 -17 q 319 -17 339 -17 q 251 -15 294 -15 q 159 -15 208 -15 q 69 -17 110 -15 q 15 -14 43 -18 q -14 18 -14 -10 q 6 42 -14 33 q 53 54 25 50 q 108 61 82 58 q 163 68 146 65 q 190 75 181 71 q 267 160 239 101 q 313 299 296 219 q 239 276 275 288 q 168 251 203 264 q 121 238 146 246 q 74 228 96 231 z "},"M":{"ha":1615,"x_min":1,"x_max":1622,"o":"m 21 -157 l 11 -153 q 11 -109 1 -124 q 40 -78 21 -94 q 49 -69 44 -74 q 60 -60 54 -65 q 180 117 138 14 q 240 346 222 219 q 260 617 257 472 q 261 919 263 763 q 261 952 261 936 q 261 983 261 968 q 285 1007 265 1000 l 288 1007 q 396 969 347 1004 q 483 881 444 933 q 551 772 522 828 q 603 669 581 715 q 653 552 631 611 q 697 436 676 493 q 735 338 717 386 q 772 246 753 290 q 788 308 781 275 q 803 374 796 340 q 847 550 824 460 q 904 723 871 640 q 985 869 938 806 q 1100 967 1033 933 q 1170 988 1125 981 q 1263 990 1215 994 q 1342 961 1311 985 l 1346 956 q 1340 872 1344 917 q 1331 776 1336 826 q 1329 765 1331 772 q 1309 504 1318 644 q 1313 231 1300 364 q 1322 153 1317 192 q 1338 86 1326 114 q 1374 50 1350 58 q 1440 49 1411 36 q 1496 81 1468 61 q 1545 109 1519 96 q 1604 118 1571 122 l 1613 114 q 1605 63 1622 88 q 1557 20 1588 39 q 1493 -11 1526 1 q 1439 -26 1460 -24 q 1324 -10 1368 -36 q 1258 67 1281 15 q 1228 188 1236 119 q 1222 329 1221 256 q 1225 471 1222 403 l 1225 474 q 1233 603 1228 539 q 1244 726 1239 668 q 1253 824 1250 779 q 1258 906 1257 869 q 1147 901 1197 922 q 1050 821 1097 881 q 960 653 996 751 q 901 442 924 554 q 858 217 878 331 q 856 196 857 207 q 853 172 854 185 q 831 44 843 82 q 799 1 819 6 q 747 45 771 -4 q 693 204 724 94 q 686 228 689 218 q 681 244 683 239 q 594 486 639 364 q 490 715 549 608 q 349 896 431 822 q 344 652 349 779 q 326 401 340 525 q 283 169 313 278 q 200 -18 253 61 q 192 -31 197 -22 q 149 -90 172 -60 q 94 -140 125 -119 q 21 -157 63 -160 z "},"N":{"ha":1174,"x_min":-60,"x_max":1207,"o":"m 113 -165 q -7 -188 42 -190 q -58 -153 -56 -186 q -40 -124 -60 -135 q 10 -108 -19 -114 q 61 -100 39 -103 q 63 -100 63 -100 q 83 -97 78 -97 q 89 -94 88 -96 q 147 -62 121 -83 q 186 -18 172 -42 q 225 106 215 31 q 232 273 235 182 q 224 458 229 364 l 224 460 q 215 632 218 547 q 219 791 213 717 q 249 921 226 865 q 386 1011 300 1050 q 393 977 397 990 q 358 936 389 964 l 357 935 q 333 911 343 924 q 324 879 322 899 q 357 815 325 850 q 424 747 389 779 q 449 723 436 735 q 468 701 461 711 q 517 645 494 672 q 560 592 539 618 q 589 555 575 574 q 615 521 603 536 q 676 447 647 482 q 732 375 706 411 q 815 274 775 324 q 893 179 854 224 q 949 798 886 553 q 1142 1146 1011 1043 q 1204 1140 1172 1172 l 1207 1135 q 1190 1088 1206 1108 q 1157 1051 1174 1068 q 1138 1032 1144 1039 q 1126 1017 1132 1025 q 1030 795 1067 933 q 982 478 993 657 q 986 92 971 299 q 988 76 988 85 q 990 60 989 68 q 994 -19 997 8 q 972 -65 990 -46 l 964 -68 q 913 -33 929 -61 q 872 36 897 -4 q 613 409 758 231 q 314 747 467 588 q 295 579 293 672 q 304 388 297 486 q 304 381 304 385 q 311 206 310 292 q 299 46 313 119 q 242 -78 285 -28 q 217 -101 238 -83 q 169 -136 197 -118 q 113 -165 142 -154 z "},"Ñ":{"ha":1174,"x_min":-60,"x_max":1207,"o":"m 113 -165 q -7 -188 42 -190 q -58 -153 -56 -186 q -40 -124 -60 -135 q 10 -108 -19 -114 q 61 -100 39 -103 q 63 -100 63 -100 q 83 -97 78 -97 q 89 -94 88 -96 q 147 -62 121 -83 q 186 -18 172 -42 q 225 106 215 31 q 232 273 235 182 q 224 458 229 364 l 224 460 q 215 632 218 547 q 219 791 213 717 q 249 921 226 865 q 386 1011 300 1050 q 393 977 397 990 q 358 936 389 964 l 357 935 q 333 911 343 924 q 324 879 322 899 q 357 815 325 850 q 424 747 389 779 q 449 723 436 735 q 468 701 461 711 q 517 645 494 672 q 560 592 539 618 q 589 555 575 574 q 615 521 603 536 q 676 447 647 482 q 732 375 706 411 q 815 274 775 324 q 893 179 854 224 q 949 798 886 553 q 1142 1146 1011 1043 q 1204 1140 1172 1172 l 1207 1135 q 1190 1088 1206 1108 q 1157 1051 1174 1068 q 1138 1032 1144 1039 q 1126 1017 1132 1025 q 1030 795 1067 933 q 982 478 993 657 q 986 92 971 299 q 988 76 988 85 q 990 60 989 68 q 994 -19 997 8 q 972 -65 990 -46 l 964 -68 q 913 -33 929 -61 q 872 36 897 -4 q 613 409 758 231 q 314 747 467 588 q 295 579 293 672 q 304 388 297 486 q 304 381 304 385 q 311 206 310 292 q 299 46 313 119 q 242 -78 285 -28 q 217 -101 238 -83 q 169 -136 197 -118 q 113 -165 142 -154 m 818 1040 q 767 1046 800 1038 q 708 1068 733 1054 q 655 1102 678 1088 q 610 1118 632 1117 q 563 1103 579 1119 q 533 1067 546 1086 q 532 1108 524 1085 q 560 1149 540 1131 q 606 1172 581 1168 q 668 1166 640 1178 q 722 1140 696 1154 q 765 1118 743 1128 q 810 1111 786 1108 q 853 1128 828 1114 q 889 1168 879 1143 q 906 1126 907 1156 q 883 1072 904 1097 q 818 1040 861 1046 z "},"O":{"ha":1183,"x_min":81,"x_max":1097,"o":"m 532 -44 q 356 6 435 -37 q 220 121 278 50 q 128 279 163 192 q 88 462 94 367 q 102 650 81 557 q 178 824 124 743 q 212 868 189 840 q 265 924 235 896 q 327 972 294 951 q 393 995 360 992 q 454 976 426 999 q 464 982 458 978 q 526 1013 496 1000 q 595 1031 557 1025 q 692 1029 633 1036 q 910 938 818 1017 q 1050 732 1003 858 q 1086 450 1097 606 q 1032 244 1078 338 q 910 83 986 150 q 738 -18 835 15 q 532 -44 642 -51 m 522 32 q 715 52 629 21 q 862 144 800 83 q 960 285 924 206 q 1004 450 996 365 q 979 694 1017 585 q 865 872 942 803 q 683 954 789 942 q 531 931 599 964 q 431 835 464 897 q 411 696 397 772 q 456 613 421 649 q 525 558 492 578 q 540 553 532 556 q 561 546 547 550 q 612 528 586 540 q 643 481 638 515 l 639 474 q 585 456 615 454 q 526 472 554 458 q 476 496 497 485 q 413 547 444 515 q 365 606 382 579 q 331 739 331 664 q 367 894 332 814 q 235 778 283 854 q 173 607 188 701 q 175 416 158 513 q 237 236 192 319 q 354 97 282 153 q 522 32 426 42 z "}}}
